  0
SECTION
  2
HEADER
  9
$ACADVER
  1
AC1009
  9
$EXTMIN
 10
997237.03246928
 20
9974090.75753189
 30
0.0
  9
$EXTMAX
 10
998628.965284611
 20
9974702.24246811
 30
0.0
  9
$LIMMIN
 10
0.0
 20
0.0
  9
$LIMMAX
 10
0.0
 20
0.0
  9
$LTSCALE
40
3.0
  0
ENDSEC
 0
SECTION
 2
TABLES
  0
TABLE
  2
LTYPE
 70
     1
  0
LTYPE
  2
CONTINUOUS
 70
     0
  3
Solid Line
 72
    65
 73
     0
 40
0.0
  0
LTYPE
  2
DASHED
 70
     0
  3
Dashed __ __ __ __ __
 72
    65
 73
     2
 40
1
 49
0.75
 49
-0.25
  0
LTYPE
  2
DASHDOT
 70
     0
  3
Dash dot __ . __ . __
 72
    65
 73
     4
 40
1.0
 49
0.5
 49
-0.25
 49
0.0
 49
-0.25
  0
ENDTAB
  0
TABLE
  2
LAYER
 70
     1
  0
LAYER
  2
INSTALACAO_CARGA
 70
     0
 62
4
  6
CONTINUOUS
  0
LAYER
  2
INSTALACAO_CARGA_PROJ
 70
     0
 62
1
  6
CONTINUOUS
  0
LAYER
  2
INSTALACAO_MANOBRA
 70
     0
 62
4
  6
CONTINUOUS
  0
LAYER
  2
INSTALACAO_MANOBRA_PROJ
 70
     0
 62
1
  6
CONTINUOUS
  0
LAYER
  2
INSTALACAO_REGULACAO
 70
     0
 62
4
  6
CONTINUOUS
  0
LAYER
  2
INSTALACAO_REGULACAO_PROJ
 70
     0
 62
1
  6
CONTINUOUS
  0
LAYER
  2
ENCABECAMENTO
 70
     0
 62
5
  6
CONTINUOUS
  0
LAYER
  2
ENCABECAMENTO_PROJ
 70
     0
 62
1
  6
CONTINUOUS
  0
LAYER
  2
IP
 70
     0
 62
7
  6
CONTINUOUS
  0
LAYER
  2
IP_PROJ
 70
     0
 62
1
  6
CONTINUOUS
  0
LAYER
  2
TRECHO_PRIMARIO
 70
     0
 62
5
  6
DASHED
  0
LAYER
  2
TRECHO_PRIMARIO_PROJ
 70
     0
 62
1
  6
DASHED
  0
LAYER
  2
TRECHO_SECUNDARIO
 70
     0
 62
1
  6
CONTINUOUS
  0
LAYER
  2
TRECHO_SECUNDARIO_PROJ
 70
     0
 62
6
  6
CONTINUOUS
  0
LAYER
  2
PARA_RAIO
 70
     0
 62
5
  6
CONTINUOUS
  0
LAYER
  2
PARA_RAIO_PROJ
 70
     0
 62
6
  6
CONTINUOUS
  0
LAYER
  2
ATERRAMENTO
 70
     0
 62
5
  6
CONTINUOUS
  0
LAYER
  2
ATERRAMENTO_PROJ
 70
     0
 62
6
  6
CONTINUOUS
  0
LAYER
  2
TEXTO_PROJ
 70
     0
 62
182
  6
CONTINUOUS
  0
LAYER
  2
ESTAI
 70
     0
 62
5
  6
CONTINUOUS
  0
LAYER
  2
ESTAI_PROJ
 70
     0
 62
6
  6
CONTINUOUS
  0
LAYER
  2
PONTO_GEOGRAFICO
 70
     0
 62
7
  6
CONTINUOUS
  0
LAYER
  2
PONTO_GEOGRAFICO_PROJ
 70
     0
 62
6
  6
CONTINUOUS
  0
LAYER
  2
QUADRA
 70
     0
 62
3
  6
CONTINUOUS
  0
LAYER
  2
TEXTO_PG_NUMERO
 70
     0
 62
7
  6
CONTINUOUS
  0
LAYER
  2
TEXTO_PG_NUMERO_PROJ
 70
     0
 62
7
  6
CONTINUOUS
  0
LAYER
  2
TEXTO_PG_NUMERO_RETI
 70
     0
 62
7
  6
CONTINUOUS
  0
LAYER
  2
TEXTO_PG
 70
     0
 62
7
  6
CONTINUOUS
  0
LAYER
  2
TEXTO_PG_PROJ
 70
     0
 62
7
  6
CONTINUOUS
  0
LAYER
  2
TEXTO_PG_RETI
 70
     0
 62
7
  6
CONTINUOUS
  0
LAYER
  2
TEXTO_PG_ESTRUTURA_PRI
 70
     0
 62
7
  6
CONTINUOUS
  0
LAYER
  2
TEXTO_PG_ESTRUTURA_PRI_PROJ
 70
     0
 62
7
  6
CONTINUOUS
  0
LAYER
  2
TEXTO_PG_ESTRUTURA_PRI_RETI
 70
     0
 62
7
  6
CONTINUOUS
  0
LAYER
  2
TEXTO_PG_ESTRUTURA_SEC
 70
     0
 62
7
  6
CONTINUOUS
  0
LAYER
  2
TEXTO_PG_ESTRUTURA_SEC_PROJ
 70
     0
 62
7
  6
CONTINUOUS
  0
LAYER
  2
TEXTO_PG_ESTRUTURA_SEC_RETI
 70
     0
 62
7
  6
CONTINUOUS
  0
LAYER
  2
TEXTO_TP
 70
     0
 62
7
  6
CONTINUOUS
  0
LAYER
  2
TEXTO_TP_PROJ
 70
     0
 62
7
  6
CONTINUOUS
  0
LAYER
  2
TEXTO_TP_RETI
 70
     0
 62
7
  6
CONTINUOUS
  0
LAYER
  2
TEXTO_TS
 70
     0
 62
7
  6
CONTINUOUS
  0
LAYER
  2
TEXTO_TS_PROJ
 70
     0
 62
7
  6
CONTINUOUS
  0
LAYER
  2
TEXTO_TS_RETI
 70
     0
 62
7
  6
CONTINUOUS
  0
LAYER
  2
TEXTO_PG_COORD
 70
     0
 62
7
  6
CONTINUOUS
  0
LAYER
  2
TEXTO_PG_COORD_PROJ
 70
     0
 62
7
  6
CONTINUOUS
  0
LAYER
  2
TEXTO_PG_COORD_RETI
 70
     0
 62
7
  6
CONTINUOUS
  0
LAYER
  2
TEXTO_IP
 70
     0
 62
7
  6
CONTINUOUS
  0
LAYER
  2
TEXTO_IT
 70
     0
 62
7
  6
CONTINUOUS
  0
LAYER
  2
TEXTO_IT_PROJ
 70
     0
 62
7
  6
CONTINUOUS
  0
LAYER
  2
TEXTO_IT_RETI
 70
     0
 62
7
  6
CONTINUOUS
  0
ENDTAB
   0
TABLE
  2
STYLE
 70
     2
  0
STYLE
  2
STANDARD
 70
     0
 40
0.0
 41
0.8
 50
0.0
 71
     0
 42
2.0
  3
ROMANS
  4

  0
STYLE
  2
GEOREDE
 70
     0
 40
0.0
 41
1.0
 50
0.0
 71
     0
 42
2.0
  3
GeoRedeSimbologia.ttf
  4

  0
ENDTAB
 0
ENDSEC
  0
SECTION
  2
BLOCKS
  0
BLOCK
  8
0
  2
002F
 70
     0
 10
0.0
 20
0.0
 30
0.0
  3
002F
  1

  0
POLYLINE
  8
0
 62
     0
 62
     0
 66
     1
 10
0.0
 20
0.0
 30
0.0
 70
     1
  0
VERTEX
  8
0
 62
     0
 10
-1.11328
 20
1.5
 30
0.0
  0
VERTEX
  8
0
 62
     0
 10
-1.11328
 20
-1.5
 30
0.0
  0
VERTEX
  8
0
 62
     0
 10
1.113281
 20
-1.5
 30
0.0
  0
VERTEX
  8
0
 62
     0
 10
1.113281
 20
1.5
 30
0.0
  0
SEQEND
  8
0
 62
     0
  0
ENDBLK
  8
0
  0
BLOCK
  8
0
  2
0021
 70
     0
 10
0.0
 20
0.0
 30
0.0
  3
0021
  1

  0
CIRCLE
  8
0
 62
     0
 10
-0.00163
 20
-0.00219
 30
0.0
 40
1.501632
  0
CIRCLE
  8
0
 62
     0
 10
0.0
 20
0.0
 30
0.0
 40
0.878906
  0
ENDBLK
  8
0
  0
BLOCK
  8
0
  2
0022
 70
     0
 10
0.0
 20
0.0
 30
0.0
  3
0022
  1

  0
CIRCLE
  8
0
 62
     0
 10
0.0
 20
0.0
 30
0.0
 40
1.5
  0
ENDBLK
  8
0
  0
BLOCK
  8
0
  2
0023
 70
     0
 10
0.0
 20
0.0
 30
0.0
  3
0023
  1

  0
POLYLINE
  8
0
 62
     0
 66
     1
 10
0.0
 20
0.0
 30
0.0
 70
     1
  0
VERTEX
  8
0
 62
     0
 10
-0.38085
 20
-1.5
 30
0.0
  0
VERTEX
  8
0
 62
     0
 10
-1.11328
 20
-1.5
 30
0.0
  0
VERTEX
  8
0
 62
     0
 10
-1.11328
 20
1.5
 30
0.0
  0
VERTEX
  8
0
 62
     0
 10
-0.38085
 20
1.5
 30
0.0
  0
VERTEX
  8
0
 62
     0
 10
-0.38085
 20
0.366210
 30
0.0
  0
VERTEX
  8
0
 62
     0
 10
0.380859
 20
0.366210
 30
0.0
  0
VERTEX
  8
0
 62
     0
 10
0.380859
 20
1.5
 30
0.0
  0
VERTEX
  8
0
 62
     0
 10
1.113281
 20
1.5
 30
0.0
  0
VERTEX
  8
0
 62
     0
 10
1.113281
 20
-1.5
 30
0.0
  0
VERTEX
  8
0
 62
     0
 10
0.380859
 20
-1.5
 30
0.0
  0
VERTEX
  8
0
 62
     0
 10
0.380859
 20
-0.36621
 30
0.0
  0
VERTEX
  8
0
 62
     0
 10
-0.38085
 20
-0.36621
 30
0.0
  0
SEQEND
  8
0
 62
     0
  0
ENDBLK
  8
0
  0
BLOCK
  8
0
  2
0024
 70
     0
 10
0.0
 20
0.0
 30
0.0
  3
0024
  1

  0
LINE
  8
0
 62
     0
 10
-1.5
 20
0.0
 30
0.0
 11
1.5
 21
0.0
 31
0.0
  0
LINE
  8
0
 62
     0
 10
0.0
 20
1.5
 30
0.0
 11
0.0
 21
-1.5
 31
0.0
  0
CIRCLE
  8
0
 62
     0
 10
0.0
 20
0.0
 30
0.0
 40
1.5
  0
ENDBLK
  8
0
  0
BLOCK
  8
0
  2
0025
 70
     0
 10
0.0
 20
0.0
 30
0.0
  3
0025
  1

  0
SOLID
  8
0
 62
     0
 10
-0.75
 20
-0.75
 30
0.0
 11
0.75
 21
-0.75
 31
0.0
 12
-0.75
 22
0.75
 32
0.0
 13
0.75
 23
0.75
 33
0.0
  0
ENDBLK
  8
0
  0
BLOCK
  8
0
  2
0026
 70
     0
 10
0.0
 20
0.0
 30
0.0
  3
0026
  1

  0
POLYLINE
  8
0
 62
     0
 66
     1
 10
0.0
 20
0.0
 30
0.0
 70
     1
  0
VERTEX
  8
0
 62
     0
 10
-1.12133
 20
0.922851
 30
0.0
  0
VERTEX
  8
0
 62
     0
 10
-0.54418
 20
1.5
 30
0.0
  0
VERTEX
  8
0
 62
     0
 10
0.544189
 20
1.5
 30
0.0
  0
VERTEX
  8
0
 62
     0
 10
1.121337
 20
0.922851
 30
0.0
  0
VERTEX
  8
0
 62
     0
 10
1.121337
 20
-0.92285
 30
0.0
  0
VERTEX
  8
0
 62
     0
 10
0.544189
 20
-1.5
 30
0.0
  0
VERTEX
  8
0
 62
     0
 10
-0.54418
 20
-1.5
 30
0.0
  0
VERTEX
  8
0
 62
     0
 10
-1.12133
 20
-0.92285
 30
0.0
  0
SEQEND
  8
0
 62
     0
  0
ENDBLK
  8
0
  0
BLOCK
  8
0
  2
0027
 70
     0
 10
0.0
 20
0.0
 30
0.0
  3
0027
  1

  0
LINE
  8
0
 62
     0
 10
-1.5
 20
0.0
 30
0.0
 11
1.5
 21
0.0
 31
0.0
  0
LINE
  8
0
 62
     0
 10
0.0
 20
1.5
 30
0.0
 11
0.0
 21
-1.5
 31
0.0
  0
CIRCLE
  8
0
 62
     0
 10
0.0
 20
0.0
 30
0.0
 40
1.5
  0
ENDBLK
  8
0
  0
BLOCK
  8
0
  2
0028
 70
     0
 10
0.0
 20
0.0
 30
0.0
  3
0028
  1

  0
POLYLINE
  8
0
 62
     0
 66
     1
 10
0.0
 20
0.0
 30
0.0
 70
     1
 40
0.732421
 41
0.732421
  0
VERTEX
  8
0
 62
     0
 10
-0.36621
 20
0.0
 30
0.0
 42
1.0
  0
VERTEX
  8
0
 62
     0
 10
0.366210
 20
0.0
 30
0.0
 42
1.0
  0
SEQEND
  8
0
 62
     0
  0
ENDBLK
  8
0
  0
BLOCK
  8
0
  2
0029
 70
     0
 10
0.0
 20
0.0
 30
0.0
  3
0029
  1

  0
LINE
  8
0
 62
     0
 10
-1.31835
 20
1.318359
 30
0.0
 11
1.318359
 21
-1.31835
 31
0.0
  0
LINE
  8
0
 62
     0
 10
-1.31835
 20
-1.31835
 30
0.0
 11
1.318359
 21
1.318359
 31
0.0
  0
POLYLINE
  8
0
 62
     0
 66
     1
 10
0.0
 20
0.0
 30
0.0
 70
     1
  0
VERTEX
  8
0
 62
     0
 10
-1.31835
 20
-1.31835
 30
0.0
  0
VERTEX
  8
0
 62
     0
 10
1.318359
 20
-1.31835
 30
0.0
  0
VERTEX
  8
0
 62
     0
 10
1.318359
 20
1.318359
 30
0.0
  0
VERTEX
  8
0
 62
     0
 10
-1.31835
 20
1.318359
 30
0.0
  0
SEQEND
  8
0
 62
     0
  0
ENDBLK
  8
0
  0
BLOCK
  8
0
  2
002A
 70
     0
 10
0.0
 20
0.0
 30
0.0
  3
002A
  1

  0
CIRCLE
  8
0
 62
     0
 10
0.0
 20
0.0
 30
0.0
 40
1.5
  0
ENDBLK
  8
0
  0
BLOCK
  8
0
  2
002B
 70
     0
 10
0.0
 20
0.0
 30
0.0
  3
002B
  1

  0
SOLID
  8
0
 62
     0
 10
-1.5
 20
0.0
 30
0.0
 11
0.0
 21
1.5
 31
0.0
 12
0.0
 22
-1.5
 32
0.0
 13
1.5
 23
0.0
 33
0.0
  0
CIRCLE
  8
0
 62
     0
 10
0.0
 20
0.0
 30
0.0
 40
1.5
  0
ENDBLK
  8
0
  0
BLOCK
  8
0
  2
002C
 70
     0
 10
0.0
 20
0.0
 30
0.0
  3
002C
  1

  0
SOLID
  8
0
 62
     0
 10
1.318359
 20
-1.31835
 30
0.0
 11
1.318359
 21
1.318359
 31
0.0
 12
0.0
 22
0.0
 32
0.0
 13
0.0
 23
0.0
 33
0.0
  0
SOLID
  8
0
 62
     0
 10
-1.31835
 20
-1.31835
 30
0.0
 11
-1.31835
 21
1.318359
 31
0.0
 12
0.0
 22
0.0
 32
0.0
 13
0.0
 23
0.0
 33
0.0
  0
POLYLINE
  8
0
 62
     0
 66
     1
 10
0.0
 20
0.0
 30
0.0
 70
     1
  0
VERTEX
  8
0
 62
     0
 10
-1.31835
 20
-1.31835
 30
0.0
  0
VERTEX
  8
0
 62
     0
 10
1.318359
 20
-1.31835
 30
0.0
  0
VERTEX
  8
0
 62
     0
 10
1.318359
 20
1.318359
 30
0.0
  0
VERTEX
  8
0
 62
     0
 10
-1.31835
 20
1.318359
 30
0.0
  0
SEQEND
  8
0
 62
     0
  0
ENDBLK
  8
0
  0
BLOCK
  8
0
  2
002D
 70
     0
 10
0.0
 20
0.0
 30
0.0
  3
002D
  1

  0
SOLID
  8
0
 62
     0
 10
-0.68408
 20
-0.68408
 30
0.0
 11
0.684082
 21
-0.68408
 31
0.0
 12
-0.68408
 22
0.684082
 32
0.0
 13
0.684082
 23
0.684082
 33
0.0
  0
LINE
  8
0
 62
     0
 10
-1.5
 20
0.0
 30
0.0
 11
1.5
 21
0.0
 31
0.0
  0
LINE
  8
0
 62
     0
 10
0.0
 20
1.5
 30
0.0
 11
0.0
 21
-1.5
 31
0.0
  0
CIRCLE
  8
0
 62
     0
 10
0.0
 20
0.0
 30
0.0
 40
1.5
  0
ENDBLK
  8
0
  0
BLOCK
  8
0
  2
002E
 70
     0
 10
0.0
 20
0.0
 30
0.0
  3
002E
  1

  0
POLYLINE
  8
0
 62
     0
 66
     1
 10
0.0
 20
0.0
 30
0.0
 70
     1
 40
0.553710
 41
0.553710
  0
VERTEX
  8
0
 62
     0
 10
-0.27685
 20
0.0
 30
0.0
 42
1.0
  0
VERTEX
  8
0
 62
     0
 10
0.276855
 20
0.0
 30
0.0
 42
1.0
  0
SEQEND
  8
0
 62
     0
  0
LINE
  8
0
 62
     0
 10
-1.49999
 20
0.0
 30
0.0
 11
1.500000
 21
0.0
 31
0.0
  0
LINE
  8
0
 62
     0
 10
0.000000
 20
1.5
 30
0.0
 11
0.000000
 21
-1.5
 31
0.0
  0
CIRCLE
  8
0
 62
     0
 10
0.000000
 20
0.0
 30
0.0
 40
1.5
  0
ENDBLK
  8
0
  0
BLOCK
  8
0
  2
0030
 70
     0
 10
0.0
 20
0.0
 30
0.0
  3
0030
  1

  0
POLYLINE
  8
0
 62
     0
 66
     1
 10
0.0
 20
0.0
 30
0.0
 70
     1
  0
VERTEX
  8
0
 62
     0
 10
0.000000
 20
1.5
 30
0.0
  0
VERTEX
  8
0
 62
     0
 10
-1.29903
 20
0.750000
 30
0.0
  0
VERTEX
  8
0
 62
     0
 10
-1.29903
 20
-0.74999
 30
0.0
  0
VERTEX
  8
0
 62
     0
 10
-0.00000
 20
-1.5
 30
0.0
  0
VERTEX
  8
0
 62
     0
 10
1.299038
 20
-0.75000
 30
0.0
  0
VERTEX
  8
0
 62
     0
 10
1.299038
 20
0.749999
 30
0.0
  0
SEQEND
  8
0
 62
     0
  0
ENDBLK
  8
0
  0
BLOCK
  8
0
  2
0039
 70
     0
 10
0.0
 20
0.0
 30
0.0
  3
0039
  1

  0
LINE
  8
0
 62
     0
 10
1.499999
 20
0.0
 30
0.0
 11
4.784179
 21
0.0
 31
0.0
  0
LINE
  8
0
 62
     0
 10
6.981445
 20
-0.66503
 30
0.0
 11
6.981445
 21
0.665039
 31
0.0
  0
LINE
  8
0
 62
     0
 10
6.249023
 20
-1.5
 30
0.0
 11
6.249023
 21
1.5
 31
0.0
  0
LINE
  8
0
 62
     0
 10
5.516601
 20
-0.66503
 30
0.0
 11
5.516601
 21
0.665039
 31
0.0
  0
LINE
  8
0
 62
     0
 10
4.784179
 20
-1.5
 30
0.0
 11
4.784179
 21
1.5
 31
0.0
  0
ENDBLK
  8
0
  0
BLOCK
  8
0
  2
0047
 70
     0
 10
0.0
 20
0.0
 30
0.0
  3
0047
  1

  0
LINE
  8
0
 62
     0
 10
0.0
 20
-0.87890
 30
0.0
 11
0.0
 21
0.878906
 31
0.0
  0
ENDBLK
  8
0
  0
BLOCK
  8
0
  2
0048
 70
     0
 10
0.0
 20
0.0
 30
0.0
  3
0048
  1

  0
LINE
  8
0
 62
     0
 10
0.0
 20
-0.87890
 30
0.0
 11
0.0
 21
0.878906
 31
0.0
  0
ENDBLK
  8
0
  0
BLOCK
  8
0
  2
0049
 70
     0
 10
0.0
 20
0.0
 30
0.0
  3
0049
  1

  0
LINE
  8
0
 62
     0
 10
0.0
 20
-0.87890
 30
0.0
 11
0.0
 21
0.878906
 31
0.0
  0
ENDBLK
  8
0
  0
BLOCK
  8
0
  2
004A
 70
     0
 10
0.0
 20
0.0
 30
0.0
  3
004A
  1

  0
LINE
  8
0
 62
     0
 10
0.0
 20
-0.87890
 30
0.0
 11
0.0
 21
0.878906
 31
0.0
  0
ENDBLK
  8
0
  0
BLOCK
  8
0
  2
004B
 70
     0
 10
0.0
 20
0.0
 30
0.0
  3
004B
  1

  0
SOLID
  8
0
 62
     0
 10
0.0
 20
0.0
 30
0.0
 11
2.050781
 21
-0.69580
 31
0.0
 12
2.050781
 22
0.695800
 32
0.0
 13
2.050781
 23
0.695800
 33
0.0
  0
ENDBLK
  8
0
  0
BLOCK
  8
0
  2
004C
 70
     0
 10
0.0
 20
0.0
 30
0.0
  3
004C
  1

  0
SOLID
  8
0
 62
     0
 10
0.0
 20
0.0
 30
0.0
 11
2.050781
 21
-0.69580
 31
0.0
 12
2.050781
 22
0.695800
 32
0.0
 13
2.050781
 23
0.695800
 33
0.0
  0
ENDBLK
  8
0
  0
BLOCK
  8
0
  2
0055
 70
     0
 10
0.0
 20
0.0
 30
0.0
  3
0055
  1

  0
SOLID
  8
0
 62
     0
 10
-1.57410
 20
0.356345
 30
0.0
 11
1.574105
 21
0.356345
 31
0.0
 12
0.000000
 22
1.5
 32
0.0
 13
0.000000
 23
1.5
 33
0.0
  0
SOLID
  8
0
 62
     0
 10
-0.96471
 20
-1.5
 30
0.0
 11
0.964713
 21
-1.5
 31
0.0
 12
-1.57410
 22
0.356345
 32
0.0
 13
1.574105
 23
0.356345
 33
0.0
  0
ENDBLK
  8
0
  0
BLOCK
  8
0
  2
0063
 70
     0
 10
0.0
 20
0.0
 30
0.0
  3
0063
  1

  0
LINE
  8
0
 62
     0
 10
4.576171
 20
-1.14111
 30
0.0
 11
4.576171
 21
-1.65527
 31
0.0
  0
LINE
  8
0
 62
     0
 10
4.576171
 20
1.141113
 30
0.0
 11
4.576171
 21
1.655273
 31
0.0
  0
LINE
  8
0
 62
     0
 10
5.717285
 20
0.0
 30
0.0
 11
6.231445
 21
0.0
 31
0.0
  0
CIRCLE
  8
0
 62
     0
 10
4.576171
 20
0.0
 30
0.0
 40
1.141113
  0
LINE
  8
0
 62
     0
 10
1.5
 20
0.0
 30
0.0
 11
3.435058
 21
0.0
 31
0.0
  0
ENDBLK
  8
0
  0
BLOCK
  8
0
  2
0064
 70
     0
 10
0.0
 20
0.0
 30
0.0
  3
0064
  1

  0
POLYLINE
  8
0
 62
     0
 66
     1
 10
0.0
 20
0.0
 30
0.0
 70
     1
 40
1.141113
 41
1.141113
  0
VERTEX
  8
0
 62
     0
 10
4.005615
 20
0.0
 30
0.0
 42
1.0
  0
VERTEX
  8
0
 62
     0
 10
5.146728
 20
0.0
 30
0.0
 42
1.0
  0
SEQEND
  8
0
 62
     0
  0
LINE
  8
0
 62
     0
 10
1.5
 20
0.0
 30
0.0
 11
3.435058
 21
0.0
 31
0.0
  0
LINE
  8
0
 62
     0
 10
5.717285
 20
0.0
 30
0.0
 11
6.231445
 21
0.0
 31
0.0
  0
LINE
  8
0
 62
     0
 10
4.576171
 20
1.141113
 30
0.0
 11
4.576171
 21
1.655273
 31
0.0
  0
LINE
  8
0
 62
     0
 10
4.576171
 20
-1.14111
 30
0.0
 11
4.576171
 21
-1.65527
 31
0.0
  0
ENDBLK
  8
0
  0
BLOCK
  8
0
  2
0070
 70
     0
 10
0.0
 20
0.0
 30
0.0
  3
0070
  1

  0
POLYLINE
  8
0
 62
     0
 66
     1
 10
0.0
 20
0.0
 30
0.0
 70
     1
 40
0.498046
 41
0.498046
  0
VERTEX
  8
0
 62
     0
 10
6.748535
 20
0.0
 30
0.0
 42
1.0
  0
VERTEX
  8
0
 62
     0
 10
7.246582
 20
0.0
 30
0.0
 42
1.0
  0
SEQEND
  8
0
 62
     0
  0
POLYLINE
  8
0
 62
     0
 66
     1
 10
0.0
 20
0.0
 30
0.0
 70
     1
 40
0.498046
 41
0.498046
  0
VERTEX
  8
0
 62
     0
 10
1.749023
 20
0.0
 30
0.0
 42
1.0
  0
VERTEX
  8
0
 62
     0
 10
2.247070
 20
0.0
 30
0.0
 42
1.0
  0
SEQEND
  8
0
 62
     0
  0
SOLID
  8
0
 62
     0
 10
4.822379
 20
2.803869
 30
0.0
 11
5.743652
 21
2.271972
 31
0.0
 12
6.067382
 22
3.896484
 32
0.0
 13
6.067382
 23
3.896484
 33
0.0
  0
LINE
  8
0
 62
     0
 10
4.612699
 20
1.376899
 30
0.0
 11
6.067382
 21
3.896484
 31
0.0
  0
LINE
  8
0
 62
     0
 10
6.566237
 20
0.249023
 30
0.0
 11
2.667854
 21
2.499755
 31
0.0
  0
ENDBLK
  8
0
  0
BLOCK
  8
0
  2
0071
 70
     0
 10
0.0
 20
0.0
 30
0.0
  3
0071
  1

  0
POLYLINE
  8
0
 62
     0
 66
     1
 10
0.0
 20
0.0
 30
0.0
 70
     1
  0
VERTEX
  8
0
 62
     0
 10
1.5
 20
0.000000
 30
0.0
  0
VERTEX
  8
0
 62
     0
 10
4.499475
 20
-1.73174
 30
0.0
  0
VERTEX
  8
0
 62
     0
 10
4.499475
 20
1.731748
 30
0.0
  0
SEQEND
  8
0
 62
     0
  0
ENDBLK
  8
0
  0
BLOCK
  8
0
  2
0073
 70
     0
 10
0.0
 20
0.0
 30
0.0
  3
0073
  1

  0
LINE
  8
0
 62
     0
 10
8.425781
 20
0.000000
 30
0.0
 11
11.42525
 21
-1.73174
 31
0.0
  0
LINE
  8
0
 62
     0
 10
11.42525
 20
1.731748
 30
0.0
 11
8.425781
 21
0.000000
 31
0.0
  0
POLYLINE
  8
0
 62
     0
 66
     1
 10
0.0
 20
0.0
 30
0.0
 70
     1
  0
VERTEX
  8
0
 62
     0
 10
11.42525
 20
-1.73174
 30
0.0
  0
VERTEX
  8
0
 62
     0
 10
11.42525
 20
1.731748
 30
0.0
  0
VERTEX
  8
0
 62
     0
 10
8.201385
 20
1.731748
 30
0.0
  0
VERTEX
  8
0
 62
     0
 10
8.201385
 20
-1.73174
 30
0.0
  0
SEQEND
  8
0
 62
     0
  0
LINE
  8
0
 62
     0
 10
8.201385
 20
0.000000
 30
0.0
 11
1.5
 21
0.0
 31
0.0
  0
ENDBLK
  8
0
  0
BLOCK
  8
0
  2
0074
 70
     0
 10
0.0
 20
0.0
 30
0.0
  3
0074
  1

  0
SOLID
  8
0
 62
     0
 10
8.425781
 20
0.000000
 30
0.0
 11
11.42525
 21
1.731748
 31
0.0
 12
11.42525
 22
-1.73174
 32
0.0
 13
11.42525
 23
-1.73174
 33
0.0
  0
POLYLINE
  8
0
 62
     0
 66
     1
 10
0.0
 20
0.0
 30
0.0
 70
     1
  0
VERTEX
  8
0
 62
     0
 10
11.42525
 20
-1.73174
 30
0.0
  0
VERTEX
  8
0
 62
     0
 10
11.42525
 20
1.731748
 30
0.0
  0
VERTEX
  8
0
 62
     0
 10
8.201385
 20
1.731748
 30
0.0
  0
VERTEX
  8
0
 62
     0
 10
8.201385
 20
-1.73174
 30
0.0
  0
SEQEND
  8
0
 62
     0
  0
LINE
  8
0
 62
     0
 10
8.201385
 20
0.000000
 30
0.0
 11
1.5
 21
0.0
 31
0.0
  0
ENDBLK
  8
0
  0
BLOCK
  8
0
  2
0075
 70
     0
 10
0.0
 20
0.0
 30
0.0
  3
0075
  1

  0
SOLID
  8
0
 62
     0
 10
1.5
 20
0.0
 30
0.0
 11
4.499475
 21
1.731748
 31
0.0
 12
4.499475
 22
-1.73174
 32
0.0
 13
4.499475
 23
-1.73174
 33
0.0
  0
ENDBLK
  8
0
  0
BLOCK
  8
0
  2
0076
 70
     0
 10
0.0
 20
0.0
 30
0.0
  3
0076
  1

  0
LINE
  8
0
 62
     0
 10
7.442871
 20
0.0
 30
0.0
 11
11.42578
 21
0.0
 31
0.0
  0
LINE
  8
0
 62
     0
 10
5.713623
 20
-0.83144
 30
0.0
 11
6.373306
 21
0.690093
 31
0.0
  0
LINE
  8
0
 62
     0
 10
5.713623
 20
-0.83144
 30
0.0
 11
5.053939
 21
0.690093
 31
0.0
  0
SOLID
  8
0
 62
     0
 10
11.42578
 20
0.0
 30
0.0
 11
9.375
 21
0.756211
 31
0.0
 12
9.375
 22
-0.75621
 32
0.0
 13
9.375
 23
-0.75621
 33
0.0
  0
CIRCLE
  8
0
 62
     0
 10
5.713623
 20
0.0
 30
0.0
 40
1.729248
  0
LINE
  8
0
 62
     0
 10
1.5
 20
0.0
 30
0.0
 11
3.984375
 21
0.0
 31
0.0
  0
ENDBLK
  8
0
  0
BLOCK
  8
0
  2
0077
 70
     0
 10
0.0
 20
0.0
 30
0.0
  3
0077
  1

  0
LINE
  8
0
 62
     0
 10
4.520022
 20
1.009217
 30
0.0
 11
4.611348
 21
1.785175
 31
0.0
  0
ARC
  8
0
 62
     0
 10
5.421441
 20
0.903125
 30
0.0
 40
0.907641
 50
173.2874
 51
330.3742
  0
ARC
  8
0
 62
     0
 10
3.709929
 20
1.891267
 30
0.0
 40
0.907641
 50
353.2874
 51
149.6257
  0
LINE
  8
0
 62
     0
 10
6.566237
 20
0.249023
 30
0.0
 11
2.667854
 21
2.499755
 31
0.0
  0
POLYLINE
  8
0
 62
     0
 66
     1
 10
0.0
 20
0.0
 30
0.0
 70
     1
 40
0.498046
 41
0.498046
  0
VERTEX
  8
0
 62
     0
 10
1.749023
 20
0.0
 30
0.0
 42
1.0
  0
VERTEX
  8
0
 62
     0
 10
2.247070
 20
0.0
 30
0.0
 42
1.0
  0
SEQEND
  8
0
 62
     0
  0
POLYLINE
  8
0
 62
     0
 66
     1
 10
0.0
 20
0.0
 30
0.0
 70
     1
 40
0.498046
 41
0.498046
  0
VERTEX
  8
0
 62
     0
 10
6.748535
 20
0.0
 30
0.0
 42
1.0
  0
VERTEX
  8
0
 62
     0
 10
7.246582
 20
0.0
 30
0.0
 42
1.0
  0
SEQEND
  8
0
 62
     0
  0
ENDBLK
  8
0
  0
BLOCK
  8
0
  2
0078
 70
     0
 10
0.0
 20
0.0
 30
0.0
  3
0078
  1

  0
LINE
  8
0
 62
     0
 10
2.549662
 20
0.676444
 30
0.0
 11
2.096447
 21
0.676444
 31
0.0
  0
LINE
  8
0
 62
     0
 10
3.450426
 20
0.676444
 30
0.0
 11
3.892310
 21
0.676444
 31
0.0
  0
LINE
  8
0
 62
     0
 10
4.124583
 20
0.455678
 30
0.0
 11
4.124583
 21
0.229252
 31
0.0
  0
LINE
  8
0
 62
     0
 10
4.124583
 20
0.229252
 30
0.0
 11
3.903641
 21
0.008487
 31
0.0
  0
LINE
  8
0
 62
     0
 10
4.124583
 20
-0.22359
 30
0.0
 11
4.124583
 21
-0.45002
 31
0.0
  0
LINE
  8
0
 62
     0
 10
4.124583
 20
-0.45002
 30
0.0
 11
3.903641
 21
-0.67645
 31
0.0
  0
LINE
  8
0
 62
     0
 10
3.903641
 20
0.008487
 30
0.0
 11
4.124583
 21
-0.22359
 31
0.0
  0
LINE
  8
0
 62
     0
 10
3.450426
 20
-0.67645
 30
0.0
 11
3.218154
 21
-0.44436
 31
0.0
  0
LINE
  8
0
 62
     0
 10
2.555327
 20
-0.67645
 30
0.0
 11
2.770604
 21
-0.45002
 31
0.0
  0
LINE
  8
0
 62
     0
 10
1.875505
 20
-0.45002
 30
0.0
 11
2.102112
 21
-0.67645
 31
0.0
  0
LINE
  8
0
 62
     0
 10
1.875505
 20
0.444357
 30
0.0
 11
1.875505
 21
-0.45002
 31
0.0
  0
LINE
  8
0
 62
     0
 10
2.102112
 20
-0.67645
 30
0.0
 11
2.555327
 21
-0.67645
 31
0.0
  0
LINE
  8
0
 62
     0
 10
3.903641
 20
-0.67645
 30
0.0
 11
3.450426
 21
-0.67645
 31
0.0
  0
LINE
  8
0
 62
     0
 10
3.903641
 20
0.008487
 30
0.0
 11
3.665703
 21
0.008487
 31
0.0
  0
LINE
  8
0
 62
     0
 10
3.892310
 20
0.676444
 30
0.0
 11
4.124583
 21
0.455678
 31
0.0
  0
LINE
  8
0
 62
     0
 10
2.776269
 20
0.444357
 30
0.0
 11
2.549662
 21
0.676444
 31
0.0
  0
LINE
  8
0
 62
     0
 10
2.096447
 20
0.676444
 30
0.0
 11
1.875505
 21
0.444357
 31
0.0
  0
LINE
  8
0
 62
     0
 10
3.223819
 20
0.450018
 30
0.0
 11
3.450426
 21
0.676444
 31
0.0
  0
POLYLINE
  8
0
 62
     0
 66
     1
 10
0.0
 20
0.0
 30
0.0
 70
     1
  0
VERTEX
  8
0
 62
     0
 10
1.5
 20
-1.5
 30
0.0
  0
VERTEX
  8
0
 62
     0
 10
4.5
 20
-1.5
 30
0.0
  0
VERTEX
  8
0
 62
     0
 10
4.5
 20
1.5
 30
0.0
  0
VERTEX
  8
0
 62
     0
 10
1.5
 20
1.5
 30
0.0
  0
SEQEND
  8
0
 62
     0
  0
ENDBLK
  8
0
  0
BLOCK
  8
0
  2
0079
 70
     0
 10
0.0
 20
0.0
 30
0.0
  3
0079
  1

  0
POLYLINE
  8
0
 62
     0
 66
     1
 10
0.0
 20
0.0
 30
0.0
 70
     1
 40
0.498046
 41
0.498046
  0
VERTEX
  8
0
 62
     0
 10
6.748535
 20
0.0
 30
0.0
 42
1.0
  0
VERTEX
  8
0
 62
     0
 10
7.246582
 20
0.0
 30
0.0
 42
1.0
  0
SEQEND
  8
0
 62
     0
  0
POLYLINE
  8
0
 62
     0
 66
     1
 10
0.0
 20
0.0
 30
0.0
 70
     1
 40
0.498046
 41
0.498046
  0
VERTEX
  8
0
 62
     0
 10
1.749023
 20
0.0
 30
0.0
 42
1.0
  0
VERTEX
  8
0
 62
     0
 10
2.247070
 20
0.0
 30
0.0
 42
1.0
  0
SEQEND
  8
0
 62
     0
  0
LINE
  8
0
 62
     0
 10
6.566237
 20
0.249023
 30
0.0
 11
2.667854
 21
2.499755
 31
0.0
  0
ENDBLK
  8
0
  0
BLOCK
  8
0
  2
007A
 70
     0
 10
0.0
 20
0.0
 30
0.0
  3
007A
  1

  0
POLYLINE
  8
0
 62
     0
 66
     1
 10
0.0
 20
0.0
 30
0.0
 70
     1
  0
VERTEX
  8
0
 62
     0
 10
1.5
 20
-1.5
 30
0.0
  0
VERTEX
  8
0
 62
     0
 10
4.5
 20
-1.5
 30
0.0
  0
VERTEX
  8
0
 62
     0
 10
4.5
 20
1.5
 30
0.0
  0
VERTEX
  8
0
 62
     0
 10
1.5
 20
1.5
 30
0.0
  0
SEQEND
  8
0
 62
     0
  0
LINE
  8
0
 62
     0
 10
4.124583
 20
0.455678
 30
0.0
 11
4.124583
 21
0.229252
 31
0.0
  0
LINE
  8
0
 62
     0
 10
4.124583
 20
0.229252
 30
0.0
 11
3.903641
 21
0.008487
 31
0.0
  0
LINE
  8
0
 62
     0
 10
4.124583
 20
-0.22359
 30
0.0
 11
4.124583
 21
-0.45002
 31
0.0
  0
LINE
  8
0
 62
     0
 10
4.124583
 20
-0.45002
 30
0.0
 11
3.903641
 21
-0.67645
 31
0.0
  0
LINE
  8
0
 62
     0
 10
3.903641
 20
0.008487
 30
0.0
 11
4.124583
 21
-0.22359
 31
0.0
  0
LINE
  8
0
 62
     0
 10
3.892310
 20
0.676444
 30
0.0
 11
4.124583
 21
0.455678
 31
0.0
  0
LINE
  8
0
 62
     0
 10
2.549662
 20
0.676444
 30
0.0
 11
2.096447
 21
0.676444
 31
0.0
  0
LINE
  8
0
 62
     0
 10
3.450426
 20
-0.67645
 30
0.0
 11
3.218154
 21
-0.44436
 31
0.0
  0
LINE
  8
0
 62
     0
 10
2.555327
 20
-0.67645
 30
0.0
 11
2.770604
 21
-0.45002
 31
0.0
  0
LINE
  8
0
 62
     0
 10
1.875505
 20
-0.45002
 30
0.0
 11
2.102112
 21
-0.67645
 31
0.0
  0
LINE
  8
0
 62
     0
 10
2.102112
 20
-0.67645
 30
0.0
 11
2.555327
 21
-0.67645
 31
0.0
  0
LINE
  8
0
 62
     0
 10
2.776269
 20
0.444357
 30
0.0
 11
2.549662
 21
0.676444
 31
0.0
  0
LINE
  8
0
 62
     0
 10
2.096447
 20
0.676444
 30
0.0
 11
1.875505
 21
0.444357
 31
0.0
  0
LINE
  8
0
 62
     0
 10
3.223819
 20
0.450018
 30
0.0
 11
3.450426
 21
0.676444
 31
0.0
  0
LINE
  8
0
 62
     0
 10
3.450426
 20
0.676444
 30
0.0
 11
3.892310
 21
0.676444
 31
0.0
  0
LINE
  8
0
 62
     0
 10
3.903641
 20
-0.67645
 30
0.0
 11
3.450426
 21
-0.67645
 31
0.0
  0
LINE
  8
0
 62
     0
 10
3.903641
 20
0.008487
 30
0.0
 11
3.665703
 21
0.008487
 31
0.0
  0
LINE
  8
0
 62
     0
 10
2.770604
 20
-0.45002
 30
0.0
 11
1.875505
 21
0.444357
 31
0.0
  0
ENDBLK
  8
0
  0
BLOCK
  8
0
  2
007B
 70
     0
 10
0.0
 20
0.0
 30
0.0
  3
007B
  1

  0
LINE
  8
0
 62
     0
 10
1.875505
 20
-0.00113
 30
0.0
 11
2.538112
 21
0.0
 31
0.0
  0
LINE
  8
0
 62
     0
 10
2.776269
 20
0.227725
 30
0.0
 11
2.537478
 21
-0.00060
 31
0.0
  0
LINE
  8
0
 62
     0
 10
2.776269
 20
0.444357
 30
0.0
 11
2.776269
 21
0.227725
 31
0.0
  0
LINE
  8
0
 62
     0
 10
3.903641
 20
0.008487
 30
0.0
 11
3.665703
 21
0.008487
 31
0.0
  0
LINE
  8
0
 62
     0
 10
3.903641
 20
-0.67645
 30
0.0
 11
3.450426
 21
-0.67645
 31
0.0
  0
LINE
  8
0
 62
     0
 10
3.450426
 20
0.676444
 30
0.0
 11
3.892310
 21
0.676444
 31
0.0
  0
LINE
  8
0
 62
     0
 10
3.223819
 20
0.450018
 30
0.0
 11
3.450426
 21
0.676444
 31
0.0
  0
LINE
  8
0
 62
     0
 10
2.776269
 20
0.444357
 30
0.0
 11
2.549662
 21
0.676444
 31
0.0
  0
LINE
  8
0
 62
     0
 10
2.183649
 20
-0.00060
 30
0.0
 11
2.861799
 21
-0.67645
 31
0.0
  0
LINE
  8
0
 62
     0
 10
1.875505
 20
0.676444
 30
0.0
 11
1.875505
 21
-0.67645
 31
0.0
  0
LINE
  8
0
 62
     0
 10
3.450426
 20
-0.67645
 30
0.0
 11
3.218154
 21
-0.44436
 31
0.0
  0
LINE
  8
0
 62
     0
 10
2.549662
 20
0.676444
 30
0.0
 11
1.875505
 21
0.676444
 31
0.0
  0
LINE
  8
0
 62
     0
 10
3.892310
 20
0.676444
 30
0.0
 11
4.124583
 21
0.455678
 31
0.0
  0
LINE
  8
0
 62
     0
 10
3.903641
 20
0.008487
 30
0.0
 11
4.124583
 21
-0.22359
 31
0.0
  0
LINE
  8
0
 62
     0
 10
4.124583
 20
-0.45002
 30
0.0
 11
3.903641
 21
-0.67645
 31
0.0
  0
LINE
  8
0
 62
     0
 10
4.124583
 20
-0.22359
 30
0.0
 11
4.124583
 21
-0.45002
 31
0.0
  0
LINE
  8
0
 62
     0
 10
4.124583
 20
0.229252
 30
0.0
 11
3.903641
 21
0.008487
 31
0.0
  0
LINE
  8
0
 62
     0
 10
4.124583
 20
0.455678
 30
0.0
 11
4.124583
 21
0.229252
 31
0.0
  0
POLYLINE
  8
0
 62
     0
 66
     1
 10
0.0
 20
0.0
 30
0.0
 70
     1
  0
VERTEX
  8
0
 62
     0
 10
1.5
 20
-1.5
 30
0.0
  0
VERTEX
  8
0
 62
     0
 10
4.5
 20
-1.5
 30
0.0
  0
VERTEX
  8
0
 62
     0
 10
4.5
 20
1.5
 30
0.0
  0
VERTEX
  8
0
 62
     0
 10
1.5
 20
1.5
 30
0.0
  0
SEQEND
  8
0
 62
     0
  0
ENDBLK
  8
0
  0
BLOCK
  8
0
  2
007C
 70
     0
 10
0.0
 20
0.0
 30
0.0
  3
007C
  1

  0
LINE
  8
0
 62
     0
 10
8.201385
 20
-1.73174
 30
0.0
 11
8.201385
 21
1.731748
 31
0.0
  0
ARC
  8
0
 62
     0
 10
10.76698
 20
0.000000
 30
0.0
 40
1.731748
 50
90.0
 51
270.0
  0
LINE
  8
0
 62
     0
 10
8.201385
 20
0.000000
 30
0.0
 11
1.5
 21
0.0
 31
0.0
  0
ENDBLK
  8
0
  0
BLOCK
  8
0
  2
007D
 70
     0
 10
0.0
 20
0.0
 30
0.0
  3
007D
  1

  0
LINE
  8
0
 62
     0
 10
5.341612
 20
0.149766
 30
0.0
 11
2.997066
 21
1.503390
 31
0.0
  0
POLYLINE
  8
0
 62
     0
 66
     1
 10
0.0
 20
0.0
 30
0.0
 70
     1
 40
0.299532
 41
0.299532
  0
VERTEX
  8
0
 62
     0
 10
2.444467
 20
0.0
 30
0.0
 42
1.0
  0
VERTEX
  8
0
 62
     0
 10
2.744000
 20
0.0
 30
0.0
 42
1.0
  0
SEQEND
  8
0
 62
     0
  0
POLYLINE
  8
0
 62
     0
 66
     1
 10
0.0
 20
0.0
 30
0.0
 70
     1
 40
0.299532
 41
0.299532
  0
VERTEX
  8
0
 62
     0
 10
5.451249
 20
0.0
 30
0.0
 42
1.0
  0
VERTEX
  8
0
 62
     0
 10
5.750782
 20
0.0
 30
0.0
 42
1.0
  0
SEQEND
  8
0
 62
     0
  0
POLYLINE
  8
0
 62
     0
 66
     1
 10
0.0
 20
0.0
 30
0.0
 70
     1
  0
VERTEX
  8
0
 62
     0
 10
1.5
 20
1.801757
 30
0.0
  0
VERTEX
  8
0
 62
     0
 10
6.591796
 20
1.801757
 30
0.0
  0
VERTEX
  8
0
 62
     0
 10
6.591796
 20
-1.80175
 30
0.0
  0
VERTEX
  8
0
 62
     0
 10
1.5
 20
-1.80175
 30
0.0
  0
SEQEND
  8
0
 62
     0
  0
ENDBLK
  8
0
  0
BLOCK
  8
0
  2
007E
 70
     0
 10
0.0
 20
0.0
 30
0.0
  3
007E
  1

  0
LINE
  8
0
 62
     0
 10
3.803096
 20
0.001817
 30
0.0
 11
3.551019
 21
0.001817
 31
0.0
  0
LINE
  8
0
 62
     0
 10
3.803096
 20
-0.74974
 30
0.0
 11
3.803096
 21
0.001817
 31
0.0
  0
LINE
  8
0
 62
     0
 10
3.042799
 20
-0.74974
 30
0.0
 11
3.803096
 21
-0.74974
 31
0.0
  0
LINE
  8
0
 62
     0
 10
2.802919
 20
-0.50193
 30
0.0
 11
3.042799
 21
-0.74974
 31
0.0
  0
LINE
  8
0
 62
     0
 10
2.802919
 20
0.497442
 30
0.0
 11
2.802919
 21
-0.50193
 31
0.0
  0
LINE
  8
0
 62
     0
 10
3.042799
 20
0.749317
 30
0.0
 11
2.802919
 21
0.497442
 31
0.0
  0
LINE
  8
0
 62
     0
 10
3.803096
 20
0.749317
 30
0.0
 11
3.042799
 21
0.749317
 31
0.0
  0
CIRCLE
  8
0
 62
     0
 10
3.301757
 20
0.0
 30
0.0
 40
1.801757
  0
ENDBLK
  8
0
  0
BLOCK
  8
0
  2
00B9
 70
     0
 10
0.0
 20
0.0
 30
0.0
  3
00B9
  1

  0
SOLID
  8
0
 62
     0
 10
1.113281
 20
-1.5
 30
0.0
 11
-1.11328
 21
1.5
 31
0.0
 12
1.113281
 22
1.5
 32
0.0
 13
1.113281
 23
1.5
 33
0.0
  0
POLYLINE
  8
0
 62
     0
 66
     1
 10
0.0
 20
0.0
 30
0.0
 70
     1
  0
VERTEX
  8
0
 62
     0
 10
-1.11328
 20
1.5
 30
0.0
  0
VERTEX
  8
0
 62
     0
 10
-1.11328
 20
-1.5
 30
0.0
  0
VERTEX
  8
0
 62
     0
 10
1.113281
 20
-1.5
 30
0.0
  0
VERTEX
  8
0
 62
     0
 10
1.113281
 20
1.5
 30
0.0
  0
SEQEND
  8
0
 62
     0
  0
ENDBLK
  8
0
  0
BLOCK
  8
0
  2
00BA
 70
     0
 10
0.0
 20
0.0
 30
0.0
  3
00BA
  1

  0
POLYLINE
  8
0
 62
     0
 66
     1
 10
0.0
 20
0.0
 30
0.0
 40
0.946289
 41
0.946289
  0
VERTEX
  8
0
 62
     0
 10
0.0
 20
-1.02685
 30
0.0
 42
0.414213
  0
VERTEX
  8
0
 62
     0
 10
1.026855
 20
0.0
 30
0.0
 42
0.414213
  0
VERTEX
  8
0
 62
     0
 10
-0.00000
 20
1.026855
 30
0.0
 42
0.414213
  0
SEQEND
  8
0
 62
     0
  0
CIRCLE
  8
0
 62
     0
 10
0.000000
 20
0.0
 30
0.0
 40
0.553710
  0
CIRCLE
  8
0
 62
     0
 10
0.000000
 20
0.0
 30
0.0
 40
1.5
  0
ENDBLK
  8
0
  0
BLOCK
  8
0
  2
00BB
 70
     0
 10
0.0
 20
0.0
 30
0.0
  3
00BB
  1

  0
LINE
  8
0
 62
     0
 10
0.0
 20
0.0
 30
0.0
 11
0.0
 21
0.0
 31
0.0
  0
POLYLINE
  8
0
 62
     0
 66
     1
 10
0.0
 20
0.0
 30
0.0
 40
1.5
 41
1.5
  0
VERTEX
  8
0
 62
     0
 10
0.000000
 20
-0.75
 30
0.0
 42
0.414213
  0
VERTEX
  8
0
 62
     0
 10
0.750000
 20
0.0
 30
0.0
 42
0.414213
  0
VERTEX
  8
0
 62
     0
 10
0.000000
 20
0.75
 30
0.0
 42
0.414213
  0
SEQEND
  8
0
 62
     0
  0
CIRCLE
  8
0
 62
     0
 10
0.000000
 20
0.0
 30
0.0
 40
1.5
  0
ENDBLK
  8
0
  0
BLOCK
  8
0
  2
00BC
 70
     0
 10
0.0
 20
0.0
 30
0.0
  3
00BC
  1

  0
POLYLINE
  8
0
 62
     0
 66
     1
 10
0.0
 20
0.0
 30
0.0
 40
1.5
 41
1.5
  0
VERTEX
  8
0
 62
     0
 10
-0.74999
 20
0.000000
 30
0.0
 42
0.414213
  0
VERTEX
  8
0
 62
     0
 10
0.000000
 20
-0.75
 30
0.0
  0
SEQEND
  8
0
 62
     0
  0
POLYLINE
  8
0
 62
     0
 66
     1
 10
0.0
 20
0.0
 30
0.0
 40
1.5
 41
1.5
  0
VERTEX
  8
0
 62
     0
 10
0.750000
 20
0.0
 30
0.0
 42
0.414213
  0
VERTEX
  8
0
 62
     0
 10
0.000000
 20
0.75
 30
0.0
  0
SEQEND
  8
0
 62
     0
  0
CIRCLE
  8
0
 62
     0
 10
0.000000
 20
0.0
 30
0.0
 40
1.5
  0
ENDBLK
  8
0
  0
BLOCK
  8
0
  2
00BD
 70
     0
 10
0.0
 20
0.0
 30
0.0
  3
00BD
  1

  0
POLYLINE
  8
0
 62
     0
 66
     1
 10
0.0
 20
0.0
 30
0.0
 70
     1
 40
0.686163
 41
0.686163
  0
VERTEX
  8
0
 62
     0
 10
-0.34308
 20
0.0
 30
0.0
 42
1.0
  0
VERTEX
  8
0
 62
     0
 10
0.343081
 20
0.0
 30
0.0
 42
1.0
  0
SEQEND
  8
0
 62
     0
  0
CIRCLE
  8
0
 62
     0
 10
0.000000
 20
0.0
 30
0.0
 40
1.5
  0
SOLID
  8
0
 62
     0
 10
1.500000
 20
-1.52231
 30
0.0
 11
3.018618
 21
-1.52231
 31
0.0
 12
1.500000
 22
1.522316
 32
0.0
 13
3.018618
 23
1.522316
 33
0.0
  0
ENDBLK
  8
0
  0
BLOCK
  8
0
  2
00BE
 70
     0
 10
0.0
 20
0.0
 30
0.0
  3
00BE
  1

  0
POLYLINE
  8
0
 62
     0
 66
     1
 10
0.0
 20
0.0
 30
0.0
 40
0.946289
 41
0.946289
  0
VERTEX
  8
0
 62
     0
 10
-1.02685
 20
0.000000
 30
0.0
 42
0.414213
  0
VERTEX
  8
0
 62
     0
 10
0.000000
 20
-1.02685
 30
0.0
  0
SEQEND
  8
0
 62
     0
  0
CIRCLE
  8
0
 62
     0
 10
0.000000
 20
0.0
 30
0.0
 40
1.5
  0
CIRCLE
  8
0
 62
     0
 10
0.000000
 20
0.0
 30
0.0
 40
0.553710
  0
POLYLINE
  8
0
 62
     0
 66
     1
 10
0.0
 20
0.0
 30
0.0
 40
0.946289
 41
0.946289
  0
VERTEX
  8
0
 62
     0
 10
1.026855
 20
0.0
 30
0.0
 42
0.414213
  0
VERTEX
  8
0
 62
     0
 10
-0.00000
 20
1.026855
 30
0.0
  0
SEQEND
  8
0
 62
     0
  0
ENDBLK
  8
0
  0
BLOCK
  8
0
  2
00BF
 70
     0
 10
0.0
 20
0.0
 30
0.0
  3
00BF
  1

  0
SOLID
  8
0
 62
     0
 10
-0.54418
 20
-1.5
 30
0.0
 11
1.121337
 21
-0.92285
 31
0.0
 12
0.544189
 22
-1.5
 32
0.0
 13
0.544189
 23
-1.5
 33
0.0
  0
SOLID
  8
0
 62
     0
 10
-1.12133
 20
-0.92285
 30
0.0
 11
1.121337
 21
0.922851
 31
0.0
 12
-0.54418
 22
-1.5
 32
0.0
 13
1.121337
 23
-0.92285
 33
0.0
  0
POLYLINE
  8
0
 62
     0
 66
     1
 10
0.0
 20
0.0
 30
0.0
 70
     1
  0
VERTEX
  8
0
 62
     0
 10
-1.12133
 20
0.922851
 30
0.0
  0
VERTEX
  8
0
 62
     0
 10
-0.54418
 20
1.5
 30
0.0
  0
VERTEX
  8
0
 62
     0
 10
0.544189
 20
1.5
 30
0.0
  0
VERTEX
  8
0
 62
     0
 10
1.121337
 20
0.922851
 30
0.0
  0
VERTEX
  8
0
 62
     0
 10
1.121337
 20
-0.92285
 30
0.0
  0
VERTEX
  8
0
 62
     0
 10
0.544189
 20
-1.5
 30
0.0
  0
VERTEX
  8
0
 62
     0
 10
-0.54418
 20
-1.5
 30
0.0
  0
VERTEX
  8
0
 62
     0
 10
-1.12133
 20
-0.92285
 30
0.0
  0
SEQEND
  8
0
 62
     0
  0
ENDBLK
  8
0
  0
BLOCK
  8
0
  2
00C0
 70
     0
 10
0.0
 20
0.0
 30
0.0
  3
00C0
  1

  0
SOLID
  8
0
 62
     0
 10
-1.31835
 20
-1.31835
 30
0.0
 11
0.0
 21
0.0
 31
0.0
 12
1.318359
 22
-1.31835
 32
0.0
 13
1.318359
 23
-1.31835
 33
0.0
  0
SOLID
  8
0
 62
     0
 10
-1.31835
 20
1.318359
 30
0.0
 11
0.0
 21
0.0
 31
0.0
 12
1.318359
 22
1.318359
 32
0.0
 13
1.318359
 23
1.318359
 33
0.0
  0
POLYLINE
  8
0
 62
     0
 66
     1
 10
0.0
 20
0.0
 30
0.0
 70
     1
  0
VERTEX
  8
0
 62
     0
 10
-1.31835
 20
-1.31835
 30
0.0
  0
VERTEX
  8
0
 62
     0
 10
1.318359
 20
-1.31835
 30
0.0
  0
VERTEX
  8
0
 62
     0
 10
1.318359
 20
1.318359
 30
0.0
  0
VERTEX
  8
0
 62
     0
 10
-1.31835
 20
1.318359
 30
0.0
  0
SEQEND
  8
0
 62
     0
  0
ENDBLK
  8
0
  0
BLOCK
  8
0
  2
00C1
 70
     0
 10
0.0
 20
0.0
 30
0.0
  3
00C1
  1

  0
CIRCLE
  8
0
 62
     0
 10
0.0
 20
0.0
 30
0.0
 40
1.5
  0
ENDBLK
  8
0
  0
BLOCK
  8
0
  2
00C2
 70
     0
 10
0.0
 20
0.0
 30
0.0
  3
00C2
  1

  0
SOLID
  8
0
 62
     0
 10
-1.5
 20
0.0
 30
0.0
 11
0.0
 21
1.5
 31
0.0
 12
0.0
 22
-1.5
 32
0.0
 13
1.5
 23
0.0
 33
0.0
  0
CIRCLE
  8
0
 62
     0
 10
0.0
 20
0.0
 30
0.0
 40
1.5
  0
ENDBLK
  8
0
  0
BLOCK
  8
0
  2
00C3
 70
     0
 10
0.0
 20
0.0
 30
0.0
  3
00C3
  1

  0
SOLID
  8
0
 62
     0
 10
-0.65059
 20
-0.65059
 30
0.0
 11
0.650591
 21
-0.65059
 31
0.0
 12
-0.65059
 22
0.650591
 32
0.0
 13
0.650591
 23
0.650591
 33
0.0
  0
POLYLINE
  8
0
 62
     0
 66
     1
 10
0.0
 20
0.0
 30
0.0
 70
     1
  0
VERTEX
  8
0
 62
     0
 10
-1.31835
 20
-1.31835
 30
0.0
  0
VERTEX
  8
0
 62
     0
 10
1.318359
 20
-1.31835
 30
0.0
  0
VERTEX
  8
0
 62
     0
 10
1.318359
 20
1.318359
 30
0.0
  0
VERTEX
  8
0
 62
     0
 10
-1.31835
 20
1.318359
 30
0.0
  0
SEQEND
  8
0
 62
     0
  0
ENDBLK
  8
0
  0
BLOCK
  8
0
  2
00C4
 70
     0
 10
0.0
 20
0.0
 30
0.0
  3
00C4
  1

  0
SOLID
  8
0
 62
     0
 10
-0.38085
 20
0.366210
 30
0.0
 11
0.0
 21
0.366210
 31
0.0
 12
-0.38085
 22
-0.36621
 32
0.0
 13
-0.00000
 23
-0.36621
 33
0.0
  0
SOLID
  8
0
 62
     0
 10
-1.11328
 20
-1.5
 30
0.0
 11
-0.38085
 21
-1.5
 31
0.0
 12
-1.11328
 22
1.5
 32
0.0
 13
-0.38085
 23
1.5
 33
0.0
  0
POLYLINE
  8
0
 62
     0
 66
     1
 10
0.0
 20
0.0
 30
0.0
 70
     1
  0
VERTEX
  8
0
 62
     0
 10
-0.38085
 20
-1.5
 30
0.0
  0
VERTEX
  8
0
 62
     0
 10
-1.11328
 20
-1.5
 30
0.0
  0
VERTEX
  8
0
 62
     0
 10
-1.11328
 20
1.5
 30
0.0
  0
VERTEX
  8
0
 62
     0
 10
-0.38085
 20
1.5
 30
0.0
  0
VERTEX
  8
0
 62
     0
 10
-0.38085
 20
0.366210
 30
0.0
  0
VERTEX
  8
0
 62
     0
 10
0.380859
 20
0.366210
 30
0.0
  0
VERTEX
  8
0
 62
     0
 10
0.380859
 20
1.5
 30
0.0
  0
VERTEX
  8
0
 62
     0
 10
1.113281
 20
1.5
 30
0.0
  0
VERTEX
  8
0
 62
     0
 10
1.113281
 20
-1.5
 30
0.0
  0
VERTEX
  8
0
 62
     0
 10
0.380859
 20
-1.5
 30
0.0
  0
VERTEX
  8
0
 62
     0
 10
0.380859
 20
-0.36621
 30
0.0
  0
VERTEX
  8
0
 62
     0
 10
-0.38085
 20
-0.36621
 30
0.0
  0
SEQEND
  8
0
 62
     0
  0
ENDBLK
  8
0
  0
BLOCK
  8
0
  2
00C5
 70
     0
 10
0.0
 20
0.0
 30
0.0
  3
00C5
  1

  0
SOLID
  8
0
 62
     0
 10
-1.29903
 20
-0.74999
 30
0.0
 11
-0.00000
 21
-1.5
 31
0.0
 12
1.299038
 22
0.749999
 32
0.0
 13
1.299038
 23
-0.75000
 33
0.0
  0
POLYLINE
  8
0
 62
     0
 66
     1
 10
0.0
 20
0.0
 30
0.0
 70
     1
  0
VERTEX
  8
0
 62
     0
 10
0.000000
 20
1.5
 30
0.0
  0
VERTEX
  8
0
 62
     0
 10
-1.29903
 20
0.750000
 30
0.0
  0
VERTEX
  8
0
 62
     0
 10
-1.29903
 20
-0.74999
 30
0.0
  0
VERTEX
  8
0
 62
     0
 10
-0.00000
 20
-1.5
 30
0.0
  0
VERTEX
  8
0
 62
     0
 10
1.299038
 20
-0.75000
 30
0.0
  0
VERTEX
  8
0
 62
     0
 10
1.299038
 20
0.749999
 30
0.0
  0
SEQEND
  8
0
 62
     0
  0
ENDBLK
  8
0
  0
BLOCK
  8
0
  2
00C8
 70
     0
 10
0.0
 20
0.0
 30
0.0
  3
00C8
  1

  0
POLYLINE
  8
0
 62
     0
 66
     1
 10
0.0
 20
0.0
 30
0.0
 70
     1
  0
VERTEX
  8
0
 62
     0
 10
14.0
 20
3.496585
 30
0.0
  0
VERTEX
  8
0
 62
     0
 10
0.0
 20
3.496585
 30
0.0
  0
VERTEX
  8
0
 62
     0
 10
0.0
 20
-3.49658
 30
0.0
  0
VERTEX
  8
0
 62
     0
 10
14.0
 20
-3.49658
 30
0.0
  0
SEQEND
  8
0
 62
     0
  0
LINE
  8
0
 62
     0
 10
0.0
 20
0.0
 30
0.0
 11
14.0
 21
0.0
 31
0.0
  0
ENDBLK
  8
0
  0
BLOCK
  8
0
  2
00C9
 70
     0
 10
0.0
 20
0.0
 30
0.0
  3
00C9
  1

  0
POLYLINE
  8
0
 62
     0
 66
     1
 10
0.0
 20
0.0
 30
0.0
  0
VERTEX
  8
0
 62
     0
 10
-1.22070
 20
3.046875
 30
0.0
  0
VERTEX
  8
0
 62
     0
 10
-1.22070
 20
-3.04687
 30
0.0
  0
VERTEX
  8
0
 62
     0
 10
1.220703
 20
-3.04687
 30
0.0
  0
VERTEX
  8
0
 62
     0
 10
1.220703
 20
3.046875
 30
0.0
  0
SEQEND
  8
0
 62
     0
  0
LINE
  8
0
 62
     0
 10
0.0
 20
0.816886
 30
0.0
 11
0.0
 21
3.046875
 31
0.0
  0
SOLID
  8
0
 62
     0
 10
-0.51358
 20
0.816886
 30
0.0
 11
0.0
 21
-1.03440
 31
0.0
 12
0.513580
 22
0.816886
 32
0.0
 13
0.513580
 23
0.816886
 33
0.0
  0
ENDBLK
  8
0
  0
BLOCK
  8
0
  2
00CA
 70
     0
 10
0.0
 20
0.0
 30
0.0
  3
00CA
  1

  0
POLYLINE
  8
0
 62
     0
 66
     1
 10
0.0
 20
0.0
 30
0.0
  0
VERTEX
  8
0
 62
     0
 10
-2.44140
 20
3.046875
 30
0.0
  0
VERTEX
  8
0
 62
     0
 10
-2.44140
 20
-3.04687
 30
0.0
  0
VERTEX
  8
0
 62
     0
 10
2.441406
 20
-3.04687
 30
0.0
  0
VERTEX
  8
0
 62
     0
 10
2.441406
 20
3.046875
 30
0.0
  0
SEQEND
  8
0
 62
     0
  0
LINE
  8
0
 62
     0
 10
0.0
 20
0.816886
 30
0.0
 11
0.0
 21
3.046875
 31
0.0
  0
SOLID
  8
0
 62
     0
 10
-0.51358
 20
0.816886
 30
0.0
 11
0.0
 21
-1.03440
 31
0.0
 12
0.513580
 22
0.816886
 32
0.0
 13
0.513580
 23
0.816886
 33
0.0
  0
ENDBLK
  8
0
  0
BLOCK
  8
0
  2
00CB
 70
     0
 10
0.0
 20
0.0
 30
0.0
  3
00CB
  1

  0
POLYLINE
  8
0
 62
     0
 66
     1
 10
0.0
 20
0.0
 30
0.0
  0
VERTEX
  8
0
 62
     0
 10
-3.66210
 20
3.046875
 30
0.0
  0
VERTEX
  8
0
 62
     0
 10
-3.66210
 20
-3.04687
 30
0.0
  0
VERTEX
  8
0
 62
     0
 10
3.662109
 20
-3.04687
 30
0.0
  0
VERTEX
  8
0
 62
     0
 10
3.662109
 20
3.046874
 30
0.0
  0
SEQEND
  8
0
 62
     0
  0
LINE
  8
0
 62
     0
 10
0.0
 20
0.816886
 30
0.0
 11
0.0
 21
3.046875
 31
0.0
  0
SOLID
  8
0
 62
     0
 10
-0.51358
 20
0.816886
 30
0.0
 11
0.0
 21
-1.03440
 31
0.0
 12
0.513580
 22
0.816886
 32
0.0
 13
0.513580
 23
0.816886
 33
0.0
  0
ENDBLK
  8
0
  0
BLOCK
  8
0
  2
00CC
 70
     0
 10
0.0
 20
0.0
 30
0.0
  3
00CC
  1

  0
POLYLINE
  8
0
 62
     0
 66
     1
 10
0.0
 20
0.0
 30
0.0
  0
VERTEX
  8
0
 62
     0
 10
-4.88281
 20
3.046875
 30
0.0
  0
VERTEX
  8
0
 62
     0
 10
-4.88281
 20
-3.04687
 30
0.0
  0
VERTEX
  8
0
 62
     0
 10
4.882812
 20
-3.04687
 30
0.0
  0
VERTEX
  8
0
 62
     0
 10
4.882812
 20
3.046874
 30
0.0
  0
SEQEND
  8
0
 62
     0
  0
LINE
  8
0
 62
     0
 10
0.0
 20
0.816886
 30
0.0
 11
0.0
 21
3.046875
 31
0.0
  0
SOLID
  8
0
 62
     0
 10
-0.51358
 20
0.816886
 30
0.0
 11
0.0
 21
-1.03440
 31
0.0
 12
0.513580
 22
0.816886
 32
0.0
 13
0.513580
 23
0.816886
 33
0.0
  0
ENDBLK
  8
0
  0
BLOCK
  8
0
  2
00CD
 70
     0
 10
0.0
 20
0.0
 30
0.0
  3
00CD
  1

  0
ARC
  8
0
 62
     0
 10
0.000000
 20
1.635897
 30
0.0
 40
3.364102
 50
45.92803
 51
134.0719
  0
ARC
  8
0
 62
     0
 10
-1.41672
 20
0.817948
 30
0.0
 40
3.364102
 50
105.9280
 51
194.0719
  0
ARC
  8
0
 62
     0
 10
-1.41672
 20
-0.81794
 30
0.0
 40
3.364102
 50
165.9280
 51
254.0719
  0
ARC
  8
0
 62
     0
 10
-0.00000
 20
-1.63589
 30
0.0
 40
3.364102
 50
225.9280
 51
314.0719
  0
ARC
  8
0
 62
     0
 10
1.416729
 20
-0.81794
 30
0.0
 40
3.364102
 50
285.9280
 51
14.07196
  0
ARC
  8
0
 62
     0
 10
1.416729
 20
0.817948
 30
0.0
 40
3.364102
 50
345.9280
 51
74.07196
  0
TEXT
  8
0
 62
     0
 10
-4.21136
 20
-1.14855
 30
0.0
 40
2.297110
  1
PODA
 72
     4
 11
0.0
 21
0.0
 31
0.0
  0
ENDBLK
  8
0
  0
BLOCK
  8
0
  2
00CE
 70
     0
 10
0.0
 20
0.0
 30
0.0
  3
00CE
  1

  0
ARC
  8
0
 62
     0
 10
0.000000
 20
1.635897
 30
0.0
 40
3.364102
 50
45.92803
 51
134.0719
  0
ARC
  8
0
 62
     0
 10
-1.41672
 20
0.817948
 30
0.0
 40
3.364102
 50
105.9280
 51
194.0719
  0
ARC
  8
0
 62
     0
 10
-1.41672
 20
-0.81794
 30
0.0
 40
3.364102
 50
165.9280
 51
254.0719
  0
ARC
  8
0
 62
     0
 10
-0.00000
 20
-1.63589
 30
0.0
 40
3.364102
 50
225.9280
 51
314.0719
  0
ARC
  8
0
 62
     0
 10
1.416729
 20
-0.81794
 30
0.0
 40
3.364102
 50
285.9280
 51
14.07196
  0
ARC
  8
0
 62
     0
 10
1.416729
 20
0.817948
 30
0.0
 40
3.364102
 50
345.9280
 51
74.07196
  0
TEXT
  8
0
 62
     0
 10
-4.14503
 20
-0.69083
 30
0.0
 40
1.381679
  1
ÁRVORE
 72
     4
 11
0.0
 21
0.0
 31
0.0
  0
ENDBLK
  8
0
  0
BLOCK
  8
0
  2
00CF
 70
     0
 10
0.0
 20
0.0
 30
0.0
  3
00CF
  1

  0
POLYLINE
  8
0
 62
     0
 66
     1
 10
0.0
 20
0.0
 30
0.0
 70
     1
  0
VERTEX
  8
0
 62
     0
 10
-4.85039
 20
0.042786
 30
0.0
  0
VERTEX
  8
0
 62
     0
 10
-4.57092
 20
2.152592
 30
0.0
  0
VERTEX
  8
0
 62
     0
 10
-3.63940
 20
3.921094
 30
0.0
  0
VERTEX
  8
0
 62
     0
 10
-2.24209
 20
4.231358
 30
0.0
  0
VERTEX
  8
0
 62
     0
 10
-0.90688
 20
3.114412
 30
0.0
  0
VERTEX
  8
0
 62
     0
 10
0.304110
 20
4.014176
 30
0.0
  0
VERTEX
  8
0
 62
     0
 10
3.067680
 20
2.276690
 30
0.0
  0
VERTEX
  8
0
 62
     0
 10
3.906079
 20
1.997454
 30
0.0
  0
VERTEX
  8
0
 62
     0
 10
5.023922
 20
0.632287
 30
0.0
  0
VERTEX
  8
0
 62
     0
 10
4.371842
 20
-1.01210
 30
0.0
  0
VERTEX
  8
0
 62
     0
 10
3.347146
 20
-1.69468
 30
0.0
  0
VERTEX
  8
0
 62
     0
 10
4.340792
 20
-2.78061
 30
0.0
  0
VERTEX
  8
0
 62
     0
 10
4.030277
 20
-4.05270
 30
0.0
  0
VERTEX
  8
0
 62
     0
 10
1.639321
 20
-3.46320
 30
0.0
  0
VERTEX
  8
0
 62
     0
 10
0.304110
 20
-4.17681
 30
0.0
  0
VERTEX
  8
0
 62
     0
 10
-1.59001
 20
-4.51809
 30
0.0
  0
VERTEX
  8
0
 62
     0
 10
-3.14256
 20
-2.90472
 30
0.0
  0
VERTEX
  8
0
 62
     0
 10
-4.81934
 20
-3.77346
 30
0.0
  0
VERTEX
  8
0
 62
     0
 10
-5.37825
 20
-1.72571
 30
0.0
  0
SEQEND
  8
0
 62
     0
  0
TEXT
  8
0
 62
     0
 10
-3.22391
 20
-0.69083
 30
0.0
 40
1.381679
  1
ROCHA
 72
     4
 11
0.0
 21
0.0
 31
0.0
  0
ENDBLK
  8
0
  0
BLOCK
  8
0
  2
00D1
 70
     0
 10
0.0
 20
0.0
 30
0.0
  3
00D1
  1

  0
POLYLINE
  8
0
 62
     0
 66
     1
 10
0.0
 20
0.0
 30
0.0
 40
1.141113
 41
1.141113
  0
VERTEX
  8
0
 62
     0
 10
4.005615
 20
0.0
 30
0.0
 42
0.414213
  0
VERTEX
  8
0
 62
     0
 10
4.576171
 20
-0.57055
 30
0.0
  0
SEQEND
  8
0
 62
     0
  0
POLYLINE
  8
0
 62
     0
 66
     1
 10
0.0
 20
0.0
 30
0.0
 40
1.141113
 41
1.141113
  0
VERTEX
  8
0
 62
     0
 10
5.146728
 20
0.0
 30
0.0
 42
0.414213
  0
VERTEX
  8
0
 62
     0
 10
4.576171
 20
0.570556
 30
0.0
 42
0.414213
  0
SEQEND
  8
0
 62
     0
  0
LINE
  8
0
 62
     0
 10
1.5
 20
0.0
 30
0.0
 11
3.435058
 21
0.0
 31
0.0
  0
CIRCLE
  8
0
 62
     0
 10
4.576171
 20
0.0
 30
0.0
 40
1.141113
  0
ENDBLK
  8
0
  0
BLOCK
  8
0
  2
00D2
 70
     0
 10
0.0
 20
0.0
 30
0.0
  3
00D2
  1

  0
TEXT
  8
0
 62
     0
 10
4.242600
 20
-0.50035
 30
0.0
 40
1.000712
  1
M
 72
     4
 11
4.576171
 21
0.0
 31
0.0
  0
INSERT
  8
0
 62
     0
  6
CONTINUOUS
  2
*U83
 10
0.0
 20
0.0
 30
0.0
1001
ACAD
1002
{
1000
R14_HATCH_DATA
1000
3C2
1011
1.0
1021
0.0
1031
0.0
1021
0.0
1031
0.0
1011
0.0
1021
0.0
1031
0.0
1021
1.0
1031
0.0
1011
0.0
1021
0.0
1031
0.0
1021
0.0
1031
1.0
1040
0.0
1010
0.0
1020
0.0
1030
1.0
1000
SOLID
1070
     1
1070
     0
1071
        1
1071
        7
1070
     1
1070
     1
1071
        2
1040
5.4483019
1040
-0.735886
1040
0.0
1040
3.7040418
1040
-0.735886
1040
0.4646404
1071
        0
1070
     0
1070
     1
1040
0.0093082
1071
        1
1040
4.5855553
1040
-0.931360
1040
0.0
1002
}
  0
LINE
  8
0
 62
     0
 10
1.5
 20
0.0
 30
0.0
 11
3.4350585
 21
0.0
 31
0.0
  0
CIRCLE
  8
0
 62
     0
 10
4.5761718
 20
0.0
 30
0.0
 40
1.1411132
  0
ENDBLK
  8
0
  0
BLOCK
  8
0
  2
00D3
 70
     0
 10
0.0
 20
0.0
 30
0.0
  3
00D3
  1

  0
INSERT
  8
0
 62
     0
  6
CONTINUOUS
  2
*U84
 10
0.0
 20
0.0
 30
0.0
1001
ACAD
1002
{
1000
R14_HATCH_DATA
1000
3D2
1011
1.0
1021
0.0
1031
0.0
1021
0.0
1031
0.0
1011
0.0
1021
0.0
1031
0.0
1021
1.0
1031
0.0
1011
0.0
1021
0.0
1031
0.0
1021
0.0
1031
1.0
1040
0.0
1010
0.0
1020
0.0
1030
1.0
1000
SOLID
1070
     1
1070
     0
1071
        2
1071
        7
1070
     1
1070
     1
1071
        3
1040
5.16297619
1040
0.0
1040
0.0
1040
5.71728515
1040
0.0
1040
-0.2635273
1040
5.16297619
1040
-0.9786726
1040
0.0
1071
        0
1071
        7
1070
     1
1070
     1
1071
        3
1040
5.16297619
1040
0.97867267
1040
-0.2635273
1040
5.71728515
1040
0.0
1040
0.0
1040
5.16297619
1040
0.0
1040
0.0
1071
        0
1070
     0
1070
     1
1040
0.00930821
1071
        2
1040
5.40517478
1040
-0.4473332
1040
0.0
1040
5.29339035
1040
0.24147598
1040
0.0
1002
}
  0
INSERT
  8
0
 62
     0
  6
CONTINUOUS
  2
*U85
 10
0.0
 20
0.0
 30
0.0
1001
ACAD
1002
{
1000
R14_HATCH_DATA
1000
3D3
1011
1.0
1021
0.0
1031
0.0
1021
0.0
1031
0.0
1011
0.0
1021
0.0
1031
0.0
1021
1.0
1031
0.0
1011
0.0
1021
0.0
1031
0.0
1021
0.0
1031
1.0
1040
0.0
1010
0.0
1020
0.0
1030
1.0
1000
SOLID
1070
     1
1070
     1
1071
        2
1071
        7
1070
     1
1070
     1
1071
        3
1040
3.98936755
1040
0.0
1040
0.0
1040
3.43505859
1040
0.0
1040
0.26352735
1040
3.98936755
1040
-0.9786726
1040
0.0
1071
        2
1005
4C
1005
3D5
1071
        7
1070
     1
1070
     1
1071
        3
1040
3.98936755
1040
0.97867267
1040
0.26352735
1040
3.43505859
1040
0.0
1040
0.0
1040
3.98936755
1040
0.0
1040
0.0
1071
        2
1005
3D5
1005
4C
1070
     0
1070
     1
1040
0.00930821
1071
        2
1040
3.74716896
1040
-0.4473332
1040
0.0
1040
3.85895339
1040
0.24147598
1040
0.0
1002
}
  0
LINE
  8
0
 62
     0
 10
1.5
 20
0.0
 30
0.0
 11
5.71728515
 21
0.0
 31
0.0
  0
CIRCLE
  8
0
 62
     0
 10
4.57617187
 20
0.0
 30
0.0
 40
1.14111328
  0
ENDBLK
  8
0
  0
BLOCK
  8
0
  2
00D4
 70
     0
 10
0.0
 20
0.0
 30
0.0
  3
00D4
  1

  0
POLYLINE
  8
0
 62
     0
 66
     1
 10
0.0
 20
0.0
 30
0.0
 70
     1
 40
1.14111328
 41
1.14111328
  0
VERTEX
  8
0
 62
     0
 10
4.00561523
 20
0.0
 30
0.0
 42
1.0
  0
VERTEX
  8
0
 62
     0
 10
5.14672851
 20
0.0
 30
0.0
 42
1.0
  0
SEQEND
  8
0
 62
     0
  0
LINE
  8
0
 62
     0
 10
1.5
 20
0.0
 30
0.0
 11
3.43505859
 21
0.0
 31
0.0
  0
CIRCLE
  8
0
 62
     0
 10
4.57617187
 20
0.0
 30
0.0
 40
1.14111328
  0
ENDBLK
  8
0
  0
BLOCK
  8
0
  2
00D5
 70
     0
 10
0.0
 20
0.0
 30
0.0
  3
00D5
  1

  0
CIRCLE
  8
0
 62
     0
 10
4.57617187
 20
0.0
 30
0.0
 40
1.14111328
  0
LINE
  8
0
 62
     0
 10
1.5
 20
0.0
 30
0.0
 11
3.43505859
 21
0.0
 31
0.0
  0
INSERT
  8
0
 62
     0
  6
CONTINUOUS
  2
*U86
 10
0.0
 20
0.0
 30
0.0
1001
ACAD
1002
{
1000
R14_HATCH_DATA
1000
3E7
1011
1.0
1021
0.0
1031
0.0
1021
0.0
1031
0.0
1011
0.0
1021
0.0
1031
0.0
1021
1.0
1031
0.0
1011
0.0
1021
0.0
1031
0.0
1021
0.0
1031
1.0
1040
0.0
1010
0.0
1020
0.0
1030
1.0
1000
SOLID
1070
     1
1070
     0
1071
        1
1071
        7
1070
     1
1070
     1
1071
        2
1040
5.44830190
1040
0.73588635
1040
0.0
1040
3.70404184
1040
0.73588635
1040
-0.4646404
1071
        0
1070
     0
1070
     1
1040
0.00930821
1071
        1
1040
4.58555532
1040
0.93136023
1040
0.0
1002
}
  0
TEXT
  8
0
 62
     0
 10
4.24260099
 20
0.50035631
 30
0.0
 40
1.00071263
  1
M
 50
180.0
 71
     2
 72
     4
 11
4.57617187
 21
0.0
 31
0.0
  0
ENDBLK
  8
0
  0
BLOCK
  8
0
  2
00D7
 70
     0
 10
0.0
 20
0.0
 30
0.0
  3
00D7
  1

  0
LINE
  8
0
 62
     0
 10
5.77636718
 20
-1.25
 30
0.0
 11
7.99804687
 21
0.0
 31
0.0
  0
LINE
  8
0
 62
     0
 10
5.77636718
 20
1.25
 30
0.0
 11
7.99804687
 21
0.0
 31
0.0
  0
LINE
  8
0
 62
     0
 10
0.0
 20
0.0
 30
0.0
 11
7.99804687
 21
0.0
 31
0.0
  0
ENDBLK
  8
0
  0
BLOCK
  8
0
  2
00D8
 70
     0
 10
0.0
 20
0.0
 30
0.0
  3
00D8
  1

  0
SOLID
  8
0
 62
     0
 10
4.72970189
 20
2.53520362
 30
0.0
 11
5.48914018
 21
3.21979815
 31
0.0
 12
6.05410431
 22
1.82953949
 32
0.0
 13
6.05410431
 23
1.82953949
 33
0.0
  0
ARC
  8
0
 62
     0
 10
3.57371794
 20
1.48975861
 30
0.0
 40
2.06983243
 50
40.9629220
 51
179.743536
  0
ENDBLK
  8
0
  0
BLOCK
  8
0
  2
00D9
 70
     0
 10
0.0
 20
0.0
 30
0.0
  3
00D9
  1

  0
SOLID
  8
0
 62
     0
 10
4.72970189
 20
-2.5352036
 30
0.0
 11
5.48914018
 21
-3.2197981
 31
0.0
 12
6.05410431
 22
-1.8295394
 32
0.0
 13
6.05410431
 23
-1.8295394
 33
0.0
  0
ARC
  8
0
 62
     0
 10
3.57371794
 20
-1.4897586
 30
0.0
 40
2.06983243
 50
180.256463
 51
319.037077
  0
ENDBLK
  8
0
  0
BLOCK
  8
0
  2
00DA
 70
     0
 10
0.0
 20
0.0
 30
0.0
  3
00DA
  1

  0
LINE
  8
0
 62
     0
 10
-0.0000000
 20
1.00097656
 30
0.0
 11
0.00000000
 21
-1.0009765
 31
0.0
  0
LINE
  8
0
 62
     0
 10
-3.0004882
 20
0.0
 30
0.0
 11
3.00048828
 21
0.0
 31
0.0
  0
ENDBLK
  8
0
  0
BLOCK
  8
0
  2
00DB
 70
     0
 10
0.0
 20
0.0
 30
0.0
  3
00DB
  1

  0
LINE
  8
0
 62
     0
 10
0.62801489
 20
0.0
 30
0.0
 11
3.62850317
 21
0.0
 31
0.0
  0
CIRCLE
  8
0
 62
     0
 10
0.0
 20
0.0
 30
0.0
 40
1.54864000
  0
LINE
  8
0
 62
     0
 10
-0.6280148
 20
1.00097656
 30
0.0
 11
-0.6280148
 21
-1.0009765
 31
0.0
  0
LINE
  8
0
 62
     0
 10
0.62801489
 20
1.00097656
 30
0.0
 11
0.62801489
 21
-1.0009765
 31
0.0
  0
LINE
  8
0
 62
     0
 10
-3.6285031
 20
0.0
 30
0.0
 11
-0.6280148
 21
0.0
 31
0.0
  0
ENDBLK
  8
0
  0
BLOCK
  8
0
  2
00DD
 70
     0
 10
0.0
 20
0.0
 30
0.0
  3
00DD
  1

  0
LINE
  8
0
 62
     0
 10
-1.7700195
 20
1.45996093
 30
0.0
 11
1.77001953
 21
-1.4599609
 31
0.0
  0
LINE
  8
0
 62
     0
 10
-1.7700195
 20
-1.4599609
 30
0.0
 11
1.77001953
 21
1.45996093
 31
0.0
  0
ENDBLK
  8
0
  0
BLOCK
  8
0
  2
00DE
 70
     0
 10
0.0
 20
0.0
 30
0.0
  3
00DE
  1

  0
SOLID
  8
0
 62
     0
 10
0.0
 20
0.0
 30
0.0
 11
2.05078125
 21
-0.6958007
 31
0.0
 12
2.05078125
 22
0.69580078
 32
0.0
 13
2.05078125
 23
0.69580078
 33
0.0
  0
ENDBLK
  8
0
  0
BLOCK
  8
0
  2
00E4
 70
     0
 10
0.0
 20
0.0
 30
0.0
  3
00E4
  1

  0
SOLID
  8
0
 62
     0
 10
4.50585937
 20
-0.7016601
 30
0.0
 11
4.50585937
 21
0.70166015
 31
0.0
 12
6.55664062
 22
0.0
 32
0.0
 13
6.55664062
 23
0.0
 33
0.0
  0
LINE
  8
0
 62
     0
 10
3.74764165
 20
0.0
 30
0.0
 11
4.50585937
 21
0.0
 31
0.0
  0
LINE
  8
0
 62
     0
 10
2.74568853
 20
0.0
 30
0.0
 11
3.26017084
 21
0.0
 31
0.0
  0
LINE
  8
0
 62
     0
 10
1.5
 20
0.0
 30
0.0
 11
2.25821771
 21
0.0
 31
0.0
  0
ENDBLK
  8
0
  0
BLOCK
  8
0
  2
00E5
 70
     0
 10
0.0
 20
0.0
 30
0.0
  3
00E5
  1

  0
CIRCLE
  8
0
 62
     0
 10
5.71351636
 20
0.0
 30
0.0
 40
2.11640816
  0
LINE
  8
0
 62
     0
 10
4.78417968
 20
-1.5
 30
0.0
 11
4.78417968
 21
1.5
 31
0.0
  0
LINE
  8
0
 62
     0
 10
5.51660156
 20
-0.6650390
 30
0.0
 11
5.51660156
 21
0.66503906
 31
0.0
  0
LINE
  8
0
 62
     0
 10
6.24902343
 20
-1.5
 30
0.0
 11
6.24902343
 21
1.5
 31
0.0
  0
LINE
  8
0
 62
     0
 10
6.98144531
 20
-0.6650390
 30
0.0
 11
6.98144531
 21
0.66503906
 31
0.0
  0
LINE
  8
0
 62
     0
 10
1.49999999
 20
0.0
 30
0.0
 11
4.78417968
 21
0.0
 31
0.0
  0
ENDBLK
  8
0
  0
BLOCK
  8
0
  2
003A
 70
     0
 10
0.0
 20
0.0
 30
0.0
  3
003A
  1

  0
LINE
  8
0
 62
     0
 10
1.5
 20
0.0
 30
0.0
 11
5.25878906
 21
0.0
 31
0.0
  0
LINE
  8
0
 62
     0
 10
7.45605468
 20
-0.2314080
 30
0.0
 11
7.45605468
 21
0.23140809
 31
0.0
  0
LINE
  8
0
 62
     0
 10
6.72363281
 20
-0.6542720
 30
0.0
 11
6.72363281
 21
0.65427206
 31
0.0
  0
LINE
  8
0
 62
     0
 10
5.99121093
 20
-1.0771360
 30
0.0
 11
5.99121093
 21
1.07713603
 31
0.0
  0
LINE
  8
0
 62
     0
 10
5.25878906
 20
-1.5
 30
0.0
 11
5.25878906
 21
1.5
 31
0.0
  0
ENDBLK
  8
0
  0
BLOCK
  8
0
  2
00E6
 70
     0
 10
0.0
 20
0.0
 30
0.0
  3
00E6
  1

  0
CIRCLE
  8
0
 62
     0
 10
6.12068632
 20
0.0
 30
0.0
 40
2.11640816
  0
LINE
  8
0
 62
     0
 10
1.5
 20
0.0
 30
0.0
 11
5.25878906
 21
0.0
 31
0.0
  0
LINE
  8
0
 62
     0
 10
7.45605468
 20
-0.2314080
 30
0.0
 11
7.45605468
 21
0.23140809
 31
0.0
  0
LINE
  8
0
 62
     0
 10
6.72363281
 20
-0.6542720
 30
0.0
 11
6.72363281
 21
0.65427206
 31
0.0
  0
LINE
  8
0
 62
     0
 10
5.99121093
 20
-1.0771360
 30
0.0
 11
5.99121093
 21
1.07713603
 31
0.0
  0
LINE
  8
0
 62
     0
 10
5.25878906
 20
-1.5
 30
0.0
 11
5.25878906
 21
1.5
 31
0.0
  0
ENDBLK
  8
0
  0
BLOCK
  8
0
  2
00E9
 70
     0
 10
0.0
 20
0.0
 30
0.0
  3
00E9
  1

  0
ARC
  8
0
 62
     0
 10
0.00000000
 20
0.32803883
 30
0.0
 40
0.67458740
 50
45.9280395
 51
134.071960
  0
ARC
  8
0
 62
     0
 10
-0.2840899
 20
0.16401941
 30
0.0
 40
0.67458740
 50
105.928039
 51
194.071960
  0
ARC
  8
0
 62
     0
 10
-0.2840899
 20
-0.1640194
 30
0.0
 40
0.67458740
 50
165.928039
 51
254.071960
  0
ARC
  8
0
 62
     0
 10
-0.0000000
 20
-0.3280388
 30
0.0
 40
0.67458740
 50
225.928039
 51
314.071960
  0
ARC
  8
0
 62
     0
 10
0.28408996
 20
-0.1640194
 30
0.0
 40
0.67458740
 50
285.928039
 51
14.0719604
  0
ARC
  8
0
 62
     0
 10
0.28408996
 20
0.16401941
 30
0.0
 40
0.67458740
 50
345.928039
 51
74.0719604
  0
ENDBLK
  8
0
  0
BLOCK
  8
0
  2
00E8
 70
     0
 10
0.0
 20
0.0
 30
0.0
  3
00E8
  1

  0
INSERT
  8
0
 62
     0
  6
CONTINUOUS
  2
*U87
 10
0.0
 20
0.0
 30
0.0
1001
ACAD
1002
{
1000
R14_HATCH_DATA
1000
4B3
1011
1.0
1021
0.0
1031
0.0
1021
0.0
1031
0.0
1011
0.0
1021
0.0
1031
0.0
1021
1.0
1031
0.0
1011
0.0
1021
0.0
1031
0.0
1021
0.0
1031
1.0
1040
0.0
1010
0.0
1020
0.0
1030
1.0
1000
SOLID
1070
     1
1070
     1
1071
        4
1071
        7
1070
     1
1070
     1
1071
        4
1040
0.46921687
1040
0.81270747
1040
0.19470617
1040
0.0
1040
1.00262623
1040
0.0
1040
0.0
1040
0.0
1040
0.0
1040
0.93843375
1040
0.0
1040
0.40475689
1071
        1
1005
4C
1071
        7
1070
     1
1070
     1
1071
        4
1040
0.0
1040
1.00262623
1040
0.19470617
1040
-0.4692168
1040
0.81270747
1040
0.40475689
1040
-0.9384337
1040
0.0
1040
0.0
1040
0.0
1040
0.0
1040
0.0
1071
        1
1005
4C
1071
        7
1070
     1
1070
     1
1071
        4
1040
0.0
1040
0.0
1040
0.0
1040
-0.9384337
1040
0.0
1040
0.40475689
1040
-0.4692168
1040
-0.8127074
1040
0.19470617
1040
0.0
1040
-1.0026262
1040
0.0
1071
        2
1005
4C
1005
4B
1071
        7
1070
     1
1070
     1
1071
        4
1040
0.93843375
1040
0.0
1040
0.0
1040
0.0
1040
0.0
1040
0.0
1040
0.0
1040
-1.0026262
1040
0.19470617
1040
0.46921687
1040
-0.8127074
1040
0.40475689
1071
        2
1005
4C
1005
4B
1070
     0
1070
     1
1040
0.01003851
1071
        4
1040
0.31988691
1040
0.57989601
1040
0.0
1040
-0.3029809
1040
0.45943457
1040
0.0
1040
-0.3632584
1040
-0.2432623
1040
0.0
1040
0.33997942
1040
-0.4239544
1040
0.0
1002
}
  0
ENDBLK
  8
0
  0
BLOCK
  8
0
  2
00EA
 70
     0
 10
0.0
 20
0.0
 30
0.0
  3
00EA
  1

  0
LINE
  8
0
 62
     0
 10
1.5
 20
-1.0195312
 30
0.0
 11
-1.5
 21
1.01953125
 31
0.0
  0
LINE
  8
0
 62
     0
 10
-1.5
 20
-1.0195312
 30
0.0
 11
1.5
 21
1.01953125
 31
0.0
  0
ENDBLK
  8
0
  0
BLOCK
  8
0
  2
00EB
 70
     0
 10
0.0
 20
0.0
 30
0.0
  3
00EB
  1

  0
LINE
  8
0
 62
     0
 10
-1.5
 20
1.5
 30
0.0
 11
1.5
 21
-1.5
 31
0.0
  0
LINE
  8
0
 62
     0
 10
-1.5
 20
-1.5
 30
0.0
 11
1.5
 21
1.5
 31
0.0
  0
ENDBLK
  8
0
  0
BLOCK
  8
0
  2
00F1
 70
     0
 10
0.0
 20
0.0
 30
0.0
  3
00F1
  1

  0
CIRCLE
  8
0
 62
     0
 10
-1.0820498
 20
1.02258584
 30
0.0
 40
0.08355759
  0
LINE
  8
0
 62
     0
 10
0.07675046
 20
0.75320737
 30
0.0
 11
0.07675046
 21
-0.2114740
 31
0.0
  0
ARC
  8
0
 62
     0
 10
-0.0825294
 20
0.75320737
 30
0.0
 40
0.15927991
 50
0.0
 51
59.3244973
  0
ARC
  8
0
 62
     0
 10
-0.4521506
 20
0.13008752
 30
0.0
 40
0.88377850
 50
59.3244973
 51
135.457815
  0
LINE
  8
0
 62
     0
 10
-0.1409436
 20
-0.5136436
 30
0.0
 11
-0.1409436
 21
-0.0074212
 31
0.0
  0
ARC
  8
0
 62
     0
 10
-0.0825294
 20
-0.2114740
 30
0.0
 40
0.15927991
 50
288.459265
 51
59.3244973
  0
ARC
  8
0
 62
     0
 10
0.01833625
 20
-0.5136436
 30
0.0
 40
0.15927991
 50
108.459265
 51
239.681397
  0
ARC
  8
0
 62
     0
 10
-0.4521506
 20
-0.8345939
 30
0.0
 40
0.88377850
 50
59.3244973
 51
135.457815
  0
ARC
  8
0
 62
     0
 10
0.38406888
 20
1.07644791
 30
0.0
 40
0.88377850
 50
249.651319
 51
322.163942
  0
LINE
  8
0
 62
     0
 10
1.08204986
 20
0.53433446
 30
0.0
 11
1.08204986
 21
-0.4303469
 31
0.0
  0
ARC
  8
0
 62
     0
 10
0.38406888
 20
0.11176645
 30
0.0
 40
0.88377850
 50
239.681397
 51
322.163942
  0
LINE
  8
0
 62
     0
 10
-1.0820498
 20
-1.1342346
 30
0.0
 11
-1.0820498
 21
0.93902824
 31
0.0
  0
ENDBLK
  8
0
  0
BLOCK
  8
0
  2
*U83
 70
     1
 10
0.0
 20
0.0
 30
0.0
  3
*U83
  1

  0
SOLID
  8
0
 62
     0
  6
CONTINUOUS
 10
4.57617187
 20
-0.8709619
 30
0.0
 11
5.44830190
 21
-0.7358863
 31
0.0
 12
3.70404184
 22
-0.7358863
 32
0.0
 13
3.70404184
 23
-0.7358863
 33
0.0
210
0.0
220
0.0
230
1.0
  0
SOLID
  8
0
 62
     0
  6
CONTINUOUS
 10
4.57617187
 20
-0.8709619
 30
0.0
 11
3.70404184
 21
-0.7358863
 31
0.0
 12
4.57617187
 22
-1.1411132
 32
0.0
 13
4.57617187
 23
-1.1411132
 33
0.0
210
0.0
220
0.0
230
1.0
  0
SOLID
  8
0
 62
     0
  6
CONTINUOUS
 10
4.57617187
 20
-0.8709619
 30
0.0
 11
4.57617187
 21
-1.1411132
 31
0.0
 12
5.44830190
 22
-0.7358863
 32
0.0
 13
5.44830190
 23
-0.7358863
 33
0.0
210
0.0
220
0.0
230
1.0
  0
ENDBLK
  8
0
  0
BLOCK
  8
0
  2
*U84
 70
     1
 10
0.0
 20
0.0
 30
0.0
  3
*U84
  1

  0
SOLID
  8
0
 62
     0
  6
CONTINUOUS
 10
-5.1629761
 20
0.0
 30
0.0
 11
-5.7172851
 21
0.00000000
 31
0.0
 12
-5.1629761
 22
-0.9786726
 32
0.0
 13
-5.1629761
 23
-0.9786726
 33
0.0
210
0.0
220
0.0
230
-1.0
  0
SOLID
  8
0
 62
     0
  6
CONTINUOUS
 10
-5.5690841
 20
-0.5623741
 30
0.0
 11
-5.1629761
 21
-0.9786726
 31
0.0
 12
-5.7172851
 22
0.00000000
 32
0.0
 13
-5.7172851
 23
0.00000000
 33
0.0
210
0.0
220
0.0
230
-1.0
  0
SOLID
  8
0
 62
     0
  6
CONTINUOUS
 10
-5.1629761
 20
0.97867267
 30
0.0
 11
-5.5690841
 21
0.56237412
 31
0.0
 12
-5.1629761
 22
0.0
 32
0.0
 13
-5.1629761
 23
0.0
 33
0.0
210
0.0
220
0.0
230
-1.0
  0
SOLID
  8
0
 62
     0
  6
CONTINUOUS
 10
-5.7172851
 20
0.0
 30
0.0
 11
-5.1629761
 21
0.0
 31
0.0
 12
-5.5690841
 22
0.56237412
 32
0.0
 13
-5.5690841
 23
0.56237412
 33
0.0
210
0.0
220
0.0
230
-1.0
  0
ENDBLK
  8
0
  0
BLOCK
  8
0
  2
*U85
 70
     1
 10
0.0
 20
0.0
 30
0.0
  3
*U85
  1

  0
SOLID
  8
0
 62
     0
  6
CONTINUOUS
 10
3.98936755
 20
0.0
 30
0.0
 11
3.43505859
 21
0.00000000
 31
0.0
 12
3.98936755
 22
-0.9786726
 32
0.0
 13
3.98936755
 23
-0.9786726
 33
0.0
  0
SOLID
  8
0
 62
     0
  6
CONTINUOUS
 10
3.58325956
 20
-0.5623741
 30
0.0
 11
3.98936755
 21
-0.9786726
 31
0.0
 12
3.43505859
 22
0.00000000
 32
0.0
 13
3.43505859
 23
0.00000000
 33
0.0
210
0.0
220
0.0
230
1.0
  0
SOLID
  8
0
 62
     0
  6
CONTINUOUS
 10
3.98936755
 20
0.97867267
 30
0.0
 11
3.58325956
 21
0.56237412
 31
0.0
 12
3.98936755
 22
0.0
 32
0.0
 13
3.98936755
 23
0.0
 33
0.0
210
0.0
220
0.0
230
1.0
  0
SOLID
  8
0
 62
     0
  6
CONTINUOUS
 10
3.43505859
 20
0.0
 30
0.0
 11
3.98936755
 21
0.0
 31
0.0
 12
3.58325956
 22
0.56237412
 32
0.0
 13
3.58325956
 23
0.56237412
 33
0.0
210
0.0
220
0.0
230
1.0
  0
ENDBLK
  8
0
  0
BLOCK
  8
0
  2
*U86
 70
     1
 10
0.0
 20
0.0
 30
0.0
  3
*U86
  1

  0
SOLID
  8
0
 62
     0
  6
CONTINUOUS
 10
-4.5761718
 20
0.87096199
 30
0.0
 11
-5.4483019
 21
0.73588635
 31
0.0
 12
-3.7040418
 22
0.73588635
 32
0.0
 13
-3.7040418
 23
0.73588635
 33
0.0
210
0.0
220
0.0
230
-1.0
  0
SOLID
  8
0
 62
     0
  6
CONTINUOUS
 10
-4.5761718
 20
0.87096199
 30
0.0
 11
-3.7040418
 21
0.73588635
 31
0.0
 12
-4.5761718
 22
1.14111328
 32
0.0
 13
-4.5761718
 23
1.14111328
 33
0.0
210
0.0
220
0.0
230
-1.0
  0
SOLID
  8
0
 62
     0
  6
CONTINUOUS
 10
-4.5761718
 20
0.87096199
 30
0.0
 11
-4.5761718
 21
1.14111328
 31
0.0
 12
-5.4483019
 22
0.73588635
 32
0.0
 13
-5.4483019
 23
0.73588635
 33
0.0
210
0.0
220
0.0
230
-1.0
  0
ENDBLK
  8
0
  0
BLOCK
  8
0
  2
*U87
 70
     1
 10
0.0
 20
0.0
 30
0.0
  3
*U87
  1

  0
SOLID
  8
0
 62
     0
  6
CONTINUOUS
 10
0.46921687
 20
0.81270747
 30
0.0
 11
0.25309761
 21
0.95334656
 31
0.0
 12
0.86829979
 22
0.50131311
 32
0.0
 13
0.86829979
 23
0.50131311
 33
0.0
210
0.0
220
0.0
230
1.0
  0
SOLID
  8
0
 62
     0
  6
CONTINUOUS
 10
0.0
 20
1.00262623
 30
0.0
 11
0.86829979
 21
0.50131311
 31
0.0
 12
0.25309761
 22
0.95334656
 32
0.0
 13
0.25309761
 23
0.95334656
 33
0.0
210
0.0
220
0.0
230
1.0
  0
SOLID
  8
0
 62
     0
  6
CONTINUOUS
 10
0.86829979
 20
0.50131311
 30
0.0
 11
0.0
 21
1.00262623
 31
0.0
 12
0.93843375
 22
0.00000000
 32
0.0
 13
0.93843375
 23
0.00000000
 33
0.0
210
0.0
220
0.0
230
1.0
  0
SOLID
  8
0
 62
     0
  6
CONTINUOUS
 10
0.0
 20
0.0
 30
0.0
 11
0.93843375
 21
0.00000000
 31
0.0
 12
0.0
 22
1.00262623
 32
0.0
 13
0.0
 23
1.00262623
 33
0.0
210
0.0
220
0.0
230
1.0
  0
SOLID
  8
0
 62
     0
  6
CONTINUOUS
 10
0.00000000
 20
1.00262623
 30
0.0
 11
-0.2530976
 21
0.95334656
 31
0.0
 12
0.0
 22
0.0
 32
0.0
 13
0.0
 23
0.0
 33
0.0
210
0.0
220
0.0
230
1.0
  0
SOLID
  8
0
 62
     0
  6
CONTINUOUS
 10
-0.4692168
 20
0.81270747
 30
0.0
 11
0.0
 21
0.0
 31
0.0
 12
-0.2530976
 22
0.95334656
 32
0.0
 13
-0.2530976
 23
0.95334656
 33
0.0
210
0.0
220
0.0
230
1.0
  0
SOLID
  8
0
 62
     0
  6
CONTINUOUS
 10
0.0
 20
0.0
 30
0.0
 11
-0.4692168
 21
0.81270747
 31
0.0
 12
-0.9384337
 22
0.0
 32
0.0
 13
-0.9384337
 23
0.0
 33
0.0
210
0.0
220
0.0
230
1.0
  0
SOLID
  8
0
 62
     0
  6
CONTINUOUS
 10
-0.8682997
 20
0.50131311
 30
0.0
 11
-0.9384337
 21
0.0
 31
0.0
 12
-0.4692168
 22
0.81270747
 32
0.0
 13
-0.4692168
 23
0.81270747
 33
0.0
  0
SOLID
  8
0
 62
     0
  6
CONTINUOUS
 10
0.0
 20
0.0
 30
0.0
 11
-0.9384337
 21
0.00000000
 31
0.0
 12
0.0
 22
-1.0026262
 32
0.0
 13
0.0
 23
-1.0026262
 33
0.0
  0
SOLID
  8
0
 62
     0
  6
CONTINUOUS
 10
-0.8682997
 20
-0.5013131
 30
0.0
 11
0.0
 21
-1.0026262
 31
0.0
 12
-0.9384337
 22
0.00000000
 32
0.0
 13
-0.9384337
 23
0.00000000
 33
0.0
210
0.0
220
0.0
230
1.0
  0
SOLID
  8
0
 62
     0
  6
CONTINUOUS
 10
0.0
 20
-1.0026262
 30
0.0
 11
-0.8682997
 21
-0.5013131
 31
0.0
 12
-0.2530976
 22
-0.9533465
 32
0.0
 13
-0.2530976
 23
-0.9533465
 33
0.0
210
0.0
220
0.0
230
1.0
  0
SOLID
  8
0
 62
     0
  6
CONTINUOUS
 10
-0.4692168
 20
-0.8127074
 30
0.0
 11
-0.2530976
 21
-0.9533465
 31
0.0
 12
-0.8682997
 22
-0.5013131
 32
0.0
 13
-0.8682997
 23
-0.5013131
 33
0.0
210
0.0
220
0.0
230
1.0
  0
SOLID
  8
0
 62
     0
  6
CONTINUOUS
 10
0.93843375
 20
0.0
 30
0.0
 11
0.0
 21
0.0
 31
0.0
 12
0.86829979
 22
-0.5013131
 32
0.0
 13
0.86829979
 23
-0.5013131
 33
0.0
210
0.0
220
0.0
230
1.0
  0
SOLID
  8
0
 62
     0
  6
CONTINUOUS
 10
-0.0000000
 20
-1.0026262
 30
0.0
 11
0.86829979
 21
-0.5013131
 31
0.0
 12
0.0
 22
0.0
 32
0.0
 13
0.0
 23
0.0
 33
0.0
210
0.0
220
0.0
230
1.0
  0
SOLID
  8
0
 62
     0
  6
CONTINUOUS
 10
0.86829979
 20
-0.5013131
 30
0.0
 11
-0.0000000
 21
-1.0026262
 31
0.0
 12
0.46921687
 22
-0.8127074
 32
0.0
 13
0.46921687
 23
-0.8127074
 33
0.0
210
0.0
220
0.0
230
1.0
  0
SOLID
  8
0
 62
     0
  6
CONTINUOUS
 10
0.25309761
 20
-0.9533465
 30
0.0
 11
0.46921687
 21
-0.8127074
 31
0.0
 12
-0.0000000
 22
-1.0026262
 32
0.0
 13
-0.0000000
 23
-1.0026262
 33
0.0
210
0.0
220
0.0
230
1.0
  0
ENDBLK
  8
0
  0
BLOCK
  8
0
  2
00FA
 70
     0
 10
0.0
 20
0.0
 30
0.0
  3
00FA
  1

  0
LINE
  8
0
 62
     0
 10
1.538
 20
1.464
 30
0.0
 11
2.563
 21
0.585
 31
0.0
  0
LINE
  8
0
 62
     0
 10
-1.53
 20
1.464
 30
0.0
 11
-0.51
 21
0.585
 31
0.0
  0
LINE
  8
0
 62
     0
 10
-2.56
 20
0.585
 30
0.0
 11
-1.53
 21
1.464
 31
0.0
  0
LINE
  8
0
 62
     0
 10
-2.56
 20
0.585
 30
0.0
 11
2.563
 21
0.585
 31
0.0
  0
LINE
  8
0
 62
     0
 10
2.563
 20
-1.46
 30
0.0
 11
2.563
 21
0.585
 31
0.0
  0
LINE
  8
0
 62
     0
 10
-0.51
 20
-1.46
 30
0.0
 11
-0.51
 21
0.585
 31
0.0
  0
LINE
  8
0
 62
     0
 10
-2.56
 20
-1.46
 30
0.0
 11
-2.56
 21
0.585
 31
0.0
  0
LINE
  8
0
 62
     0
 10
-1.53
 20
1.464
 30
0.0
 11
1.538
 21
1.464
 31
0.0
  0
LINE
  8
0
 62
     0
 10
-2.56
 20
-1.46
 30
0.0
 11
2.563
 21
-1.46
 31
0.0
  0
ENDBLK
  8
0
  0
BLOCK
  8
0
 62
     0
  2
0000
 70
     0
 10
0.0
 20
0.0
 30
0.0
  3
0000
  1

  0
POLYLINE
  8
0
 62
     0
 66
     1
 10
0.0
 20
0.0
 30
0.0
 70
     1
  0
VERTEX
  8
0
 62
     0
 10
-0.36521
 20
-2.04165
 30
0.0
  0
VERTEX
  8
0
 62
     0
 10
0.195055
 20
-2.04165
 30
0.0
  0
VERTEX
  8
0
 62
     0
 10
0.195055
 20
-1.48181
 30
0.0
  0
VERTEX
  8
0
 62
     0
 10
-0.36521
 20
-1.48181
 30
0.0
  0
SEQEND
  8
0
 62
     0
  0
POLYLINE
  8
0
 62
     0
 66
     1
 10
0.0
 20
0.0
 30
0.0
 70
     1
  0
VERTEX
  8
0
 62
     0
 10
-1.30145
 20
0.869297
 30
0.0
  0
VERTEX
  8
0
 62
     0
 10
-0.80753
 20
0.803001
 30
0.0
  0
VERTEX
  8
0
 62
     0
 10
-0.68958
 20
1.178680
 30
0.0
  0
VERTEX
  8
0
 62
     0
 10
-0.51265
 20
1.429133
 30
0.0
  0
VERTEX
  8
0
 62
     0
 10
-0.28412
 20
1.569092
 30
0.0
  0
VERTEX
  8
0
 62
     0
 10
-0.00399
 20
1.613289
 30
0.0
  0
VERTEX
  8
0
 62
     0
 10
0.276139
 20
1.561725
 30
0.0
  0
VERTEX
  8
0
 62
     0
 10
0.504669
 20
1.443865
 30
0.0
  0
VERTEX
  8
0
 62
     0
 10
0.688967
 20
1.222877
 30
0.0
  0
VERTEX
  8
0
 62
     0
 10
0.770059
 20
0.942960
 30
0.0
  0
VERTEX
  8
0
 62
     0
 10
0.740571
 20
0.699873
 30
0.0
  0
VERTEX
  8
0
 62
     0
 10
0.629992
 20
0.493618
 30
0.0
  0
VERTEX
  8
0
 62
     0
 10
0.025493
 20
-0.06621
 30
0.0
  0
VERTEX
  8
0
 62
     0
 10
-0.11457
 20
-0.25774
 30
0.0
  0
VERTEX
  8
0
 62
     0
 10
-0.21778
 20
-0.47136
 30
0.0
  0
VERTEX
  8
0
 62
     0
 10
-0.26201
 20
-0.71444
 30
0.0
  0
VERTEX
  8
0
 62
     0
 10
-0.27675
 20
-1.06066
 30
0.0
  0
VERTEX
  8
0
 62
     0
 10
0.202420
 20
-1.06066
 30
0.0
  0
VERTEX
  8
0
 62
     0
 10
0.202420
 20
-0.87650
 30
0.0
  0
VERTEX
  8
0
 62
     0
 10
0.239279
 20
-0.66288
 30
0.0
  0
VERTEX
  8
0
 62
     0
 10
0.305627
 20
-0.45662
 30
0.0
  0
VERTEX
  8
0
 62
     0
 10
0.489925
 20
-0.25037
 30
0.0
  0
VERTEX
  8
0
 62
     0
 10
0.733199
 20
-0.03675
 30
0.0
  0
VERTEX
  8
0
 62
     0
 10
0.961729
 20
0.191601
 30
0.0
  0
VERTEX
  8
0
 62
     0
 10
1.138655
 20
0.412589
 30
0.0
  0
VERTEX
  8
0
 62
     0
 10
1.256606
 20
0.699873
 30
0.0
  0
VERTEX
  8
0
 62
     0
 10
1.271350
 20
1.001890
 30
0.0
  0
VERTEX
  8
0
 62
     0
 10
1.212375
 20
1.281808
 30
0.0
  0
VERTEX
  8
0
 62
     0
 10
1.072308
 20
1.539627
 30
0.0
  0
VERTEX
  8
0
 62
     0
 10
0.858522
 20
1.753248
 30
0.0
  0
VERTEX
  8
0
 62
     0
 10
0.578388
 20
1.922672
 30
0.0
  0
VERTEX
  8
0
 62
     0
 10
0.224535
 20
2.003701
 30
0.0
  0
VERTEX
  8
0
 62
     0
 10
0.003377
 20
2.018434
 30
0.0
  0
VERTEX
  8
0
 62
     0
 10
-0.29887
 20
1.996335
 30
0.0
  0
VERTEX
  8
0
 62
     0
 10
-0.59374
 20
1.915306
 30
0.0
  0
VERTEX
  8
0
 62
     0
 10
-0.87388
 20
1.753248
 30
0.0
  0
VERTEX
  8
0
 62
     0
 10
-1.07292
 20
1.524894
 30
0.0
  0
VERTEX
  8
0
 62
     0
 10
-1.19824
 20
1.296540
 30
0.0
  0
VERTEX
  8
0
 62
     0
 10
-1.27196
 20
1.060820
 30
0.0
  0
SEQEND
  8
0
 62
     0
  0
ENDBLK
  8
0
 62
     0
  0
BLOCK
  8
0
 62
     0
  2
0072
 70
     0
 10
0.0
 20
0.0
 30
0.0
  3
0072
  1

  0
LINE
  8
0
 62
     0
 10
1.5
 20
-2.08171
 30
0.0
 11
2.999737
 21
-2.08171
 31
0.0
  0
LINE
  8
0
 62
     0
 10
1.5
 20
0.0
 30
0.0
 11
1.5
 21
-2.08171
 31
0.0
  0
LINE
  8
0
 62
     0
 10
2.999737
 20
-1.58171
 30
0.0
 11
2.999737
 21
-2.58171
 31
0.0
  0
POLYLINE
  8
0
 62
     0
 66
     1
 10
0.0
 20
0.0
 30
0.0
 70
     1
  0
VERTEX
  8
0
 62
     0
 10
1.5
 20
0.000000
 30
0.0
  0
VERTEX
  8
0
 62
     0
 10
4.499475
 20
-1.73174
 30
0.0
  0
VERTEX
  8
0
 62
     0
 10
4.499475
 20
1.731748
 30
0.0
  0
SEQEND
  8
0
 62
     0
  0
ENDBLK
  8
0
 62
     0
  0
BLOCK
  8
0
  2
003F
 70
     0
 10
0.0
 20
0.0
 30
0.0
  3
003F
  1

  0
ARC
  8
0
 62
     0
 10
1.4807
 20
1.6093
 30
0.0
 40
1.5956
 50
257.88
 51
281.77
  0
ARC
  8
0
 62
     0
 10
0.9698
 20
-1.163
 30
0.0
 40
1.2257
 50
81.739
 51
102.29
  0
ARC
  8
0
 62
     0
 10
0.5801
 20
0.6234
 30
0.0
 40
0.6034
 50
255.71
 51
282.29
  0
LINE
  8
0
 62
     0
 10
0.3535
 20
-0.353
 30
0.0
 11
-0.353
 21
0.3535
 31
0.0
  0
LINE
  8
0
 62
     0
 10
-0.353
 20
-0.353
 30
0.0
 11
0.3535
 21
0.3535
 31
0.0
  0
ARC
  8
0
 62
     0
 10
-0.580
 20
0.6234
 30
0.0
 40
0.6034
 50
257.70
 51
284.28
  0
ARC
  8
0
 62
     0
 10
-0.969
 20
-1.163
 30
0.0
 40
1.2257
 50
77.700
 51
98.260
  0
ARC
  8
0
 62
     0
 10
-1.480
 20
1.6093
 30
0.0
 40
1.5956
 50
258.22
 51
282.11
  0
ENDBLK
  8
0
  0
BLOCK
  8
0
  2
003D
 70
     0
 10
0.0
 20
0.0
 30
0.0
  3
003D
  1

  0
POLYLINE
  8
0
 62
     0
 66
     1
 10
0.0
 20
0.0
 30
0.0
 70
     1
 40
0.174651
 41
0.174651
  0
VERTEX
  8
0
 62
     0
 10
-0.08569
 20
0.014303
 30
0.0
 42
1.0
  0
VERTEX
  8
0
 62
     0
 10
0.088957
 20
0.014303
 30
0.0
 42
1.0
  0
SEQEND
  8
0
 62
     0
  0
ARC
  8
0
 62
     0
 10
1.480731
 20
1.609393
 30
0.0
 40
1.595632
 50
257.8893
 51
281.7718
  0
ARC
  8
0
 62
     0
 10
0.969858
 20
-1.16373
 30
0.0
 40
1.225724
 50
81.73926
 51
102.2998
  0
ARC
  8
0
 62
     0
 10
0.580193
 20
0.623449
 30
0.0
 40
0.603445
 50
255.7175
 51
282.2998
  0
ARC
  8
0
 62
     0
 10
-0.58019
 20
0.623449
 30
0.0
 40
0.603445
 50
257.7001
 51
284.2824
  0
ARC
  8
0
 62
     0
 10
-0.96985
 20
-1.16373
 30
0.0
 40
1.225724
 50
77.70011
 51
98.26073
  0
ARC
  8
0
 62
     0
 10
-1.48073
 20
1.609393
 30
0.0
 40
1.595632
 50
258.2281
 51
282.1106
  0
ENDBLK
  8
0
  0
BLOCK
  8
0
  2
0040
 70
     0
 10
0.0
 20
0.0
 30
0.0
  3
0040
  1

  0
LINE
  8
0
 62
     0
 10
-0.32402
 20
-1.25
 30
0.0
 11
0.324028
 21
-1.25
 31
0.0
  0
LINE
  8
0
 62
     0
 10
-0.51740
 20
1.481950
 30
0.0
 11
-0.51740
 21
-1.48195
 31
0.0
  0
LINE
  8
0
 62
     0
 10
-0.93176
 20
-1.86839
 30
0.0
 11
-0.51740
 21
-1.48195
 31
0.0
  0
LINE
  8
0
 62
     0
 10
-0.32402
 20
-1.52335
 30
0.0
 11
-0.93176
 21
-1.86839
 31
0.0
  0
LINE
  8
0
 62
     0
 10
-0.32402
 20
-1.25
 30
0.0
 11
-0.32402
 21
-1.52335
 31
0.0
  0
LINE
  8
0
 62
     0
 10
0.324028
 20
-1.25
 30
0.0
 11
0.324028
 21
-1.52335
 31
0.0
  0
LINE
  8
0
 62
     0
 10
0.324028
 20
-1.52335
 30
0.0
 11
0.931764
 21
-1.86839
 31
0.0
  0
LINE
  8
0
 62
     0
 10
0.931764
 20
-1.86839
 30
0.0
 11
0.517402
 21
-1.48195
 31
0.0
  0
LINE
  8
0
 62
     0
 10
-0.32402
 20
1.25
 30
0.0
 11
-0.32402
 21
1.523356
 31
0.0
  0
LINE
  8
0
 62
     0
 10
-0.32402
 20
1.523356
 30
0.0
 11
-0.93176
 21
1.868392
 31
0.0
  0
LINE
  8
0
 62
     0
 10
-0.93176
 20
1.868392
 30
0.0
 11
-0.51740
 21
1.481950
 31
0.0
  0
LINE
  8
0
 62
     0
 10
0.517402
 20
1.481950
 30
0.0
 11
0.517402
 21
-1.48195
 31
0.0
  0
LINE
  8
0
 62
     0
 10
0.931764
 20
1.868392
 30
0.0
 11
0.517402
 21
1.481950
 31
0.0
  0
LINE
  8
0
 62
     0
 10
0.324028
 20
1.523356
 30
0.0
 11
0.931764
 21
1.868392
 31
0.0
  0
LINE
  8
0
 62
     0
 10
0.324028
 20
1.25
 30
0.0
 11
0.324028
 21
1.523356
 31
0.0
  0
LINE
  8
0
 62
     0
 10
-0.32402
 20
1.25
 30
0.0
 11
0.324028
 21
1.25
 31
0.0
  0
ENDBLK
  8
0
  0
BLOCK
  8
0
  2
0041
 70
     0
 10
0.0
 20
0.0
 30
0.0
  3
0041
  1

  0
LINE
  8
0
 62
     0
 10
-1.60890
 20
0.057506
 30
0.0
 11
-1.64703
 21
0.316677
 31
0.0
  0
LINE
  8
0
 62
     0
 10
1.740038
 20
-0.05910
 30
0.0
 11
1.663508
 21
0.213681
 31
0.0
  0
LINE
  8
0
 62
     0
 10
0.902135
 20
-0.36253
 30
0.0
 11
0.838906
 21
-0.12560
 31
0.0
  0
LINE
  8
0
 62
     0
 10
-0.29085
 20
-0.29537
 30
0.0
 11
-0.21610
 21
-0.07107
 31
0.0
  0
LINE
  8
0
 62
     0
 10
-0.99718
 20
-0.06771
 30
0.0
 11
-0.90731
 21
0.177330
 31
0.0
  0
LINE
  8
0
 62
     0
 10
1.138380
 20
0.459556
 30
0.0
 11
1.182520
 21
0.214918
 31
0.0
  0
LINE
  8
0
 62
     0
 10
0.363822
 20
0.301786
 30
0.0
 11
0.346105
 21
0.053830
 31
0.0
  0
LINE
  8
0
 62
     0
 10
-0.40908
 20
0.488765
 30
0.0
 11
-0.44442
 21
0.242703
 31
0.0
  0
LINE
  8
0
 62
     0
 10
-1.16890
 20
0.733675
 30
0.0
 11
-1.22866
 21
0.492377
 31
0.0
  0
POLYLINE
  8
0
 62
     0
 66
     1
 10
0.0
 20
0.0
 30
0.0
  0
VERTEX
  8
0
 62
     0
 10
1.880184
 20
-0.04776
 30
0.0
 42
0.131879
  0
VERTEX
  8
0
 62
     0
 10
1.553138
 20
-0.12585
 30
0.0
 42
-0.20490
  0
VERTEX
  8
0
 62
     0
 10
-0.28760
 20
-0.29642
 30
0.0
  0
VERTEX
  8
0
 62
     0
 10
-1.42898
 20
0.071468
 30
0.0
 42
0.225300
  0
VERTEX
  8
0
 62
     0
 10
-1.94413
 20
-0.13472
 30
0.0
 42
0.149508
  0
SEQEND
  8
0
 62
     0
  0
POLYLINE
  8
0
 62
     0
 66
     1
 10
0.0
 20
0.0
 30
0.0
  0
VERTEX
  8
0
 62
     0
 10
1.899977
 20
0.662016
 30
0.0
 42
0.131879
  0
VERTEX
  8
0
 62
     0
 10
1.214829
 20
0.498434
 30
0.0
 42
-0.20490
  0
VERTEX
  8
0
 62
     0
 10
-0.06976
 20
0.379396
 30
0.0
  0
VERTEX
  8
0
 62
     0
 10
-1.25538
 20
0.761549
 30
0.0
 42
0.169274
  0
VERTEX
  8
0
 62
     0
 10
-1.94413
 20
0.674134
 30
0.0
  0
SEQEND
  8
0
 62
     0
  0
ENDBLK
  8
0
  0
BLOCK
  8
0
  2
0081
 70
     0
 10
0.0
 20
0.0
 30
0.0
  3
0081
  1

  0
LINE
  8
0
 62
     0
 10
-0.90006
 20
-1.04631
 30
0.0
 11
-0.90006
 21
1.046316
 31
0.0
  0
POLYLINE
  8
0
 62
     0
 66
     1
 10
0.0
 20
0.0
 30
0.0
  0
VERTEX
  8
0
 62
     0
 10
1.305803
 20
1.046316
 30
0.0
  0
VERTEX
  8
0
 62
     0
 10
-1.30580
 20
1.046316
 30
0.0
  0
VERTEX
  8
0
 62
     0
 10
-1.30580
 20
-1.04631
 30
0.0
  0
VERTEX
  8
0
 62
     0
 10
1.305803
 20
-1.04631
 30
0.0
  0
SEQEND
  8
0
 62
     0
  0
LINE
  8
0
 62
     0
 10
0.350094
 20
-0.00000
 30
0.0
 11
1.305803
 21
-0.00000
 31
0.0
  0
SOLID
  8
0
 62
     0
 10
0.350094
 20
0.220105
 30
0.0
 11
-0.44331
 21
0.000000
 31
0.0
 12
0.350094
 22
-0.22010
 32
0.0
 13
0.350094
 23
-0.22010
 33
0.0
  0
ENDBLK
  8
0
  0
BLOCK
  8
0
  2
007F
 70
     0
 10
0.0
 20
0.0
 30
0.0
  3
007F
  1

  0
LINE
  8
0
 62
     0
 10
-0.90006
 20
-1.04631
 30
0.0
 11
-0.90006
 21
1.046316
 31
0.0
  0
POLYLINE
  8
0
 62
     0
 66
     1
 10
0.0
 20
0.0
 30
0.0
  0
VERTEX
  8
0
 62
     0
 10
1.305803
 20
1.046316
 30
0.0
  0
VERTEX
  8
0
 62
     0
 10
-1.30580
 20
1.046316
 30
0.0
  0
VERTEX
  8
0
 62
     0
 10
-1.30580
 20
-1.04631
 30
0.0
  0
VERTEX
  8
0
 62
     0
 10
1.305803
 20
-1.04631
 30
0.0
  0
SEQEND
  8
0
 62
     0
  0
ENDBLK
  8
0
  0
BLOCK
  8
0
  2
0042
 70
     0
 10
0.0
 20
0.0
 30
0.0
  3
0042
  1

  0
LINE
  8
0
 62
     0
 10
-0.90006
 20
-1.04631
 30
0.0
 11
-0.90006
 21
1.046316
 31
0.0
  0
POLYLINE
  8
0
 62
     0
 66
     1
 10
0.0
 20
0.0
 30
0.0
  0
VERTEX
  8
0
 62
     0
 10
1.305803
 20
1.046316
 30
0.0
  0
VERTEX
  8
0
 62
     0
 10
-1.30580
 20
1.046316
 30
0.0
  0
VERTEX
  8
0
 62
     0
 10
-1.30580
 20
-1.04631
 30
0.0
  0
VERTEX
  8
0
 62
     0
 10
1.305803
 20
-1.04631
 30
0.0
  0
SEQEND
  8
0
 62
     0
  0
ENDBLK
  8
0
  0
BLOCK
  8
0
  2
0043
 70
     0
 10
0.0
 20
0.0
 30
0.0
  3
0043
  1

  0
SOLID
  8
0
 62
     0
 10
0.451566
 20
0.331592
 30
0.0
 11
0.451566
 21
-0.33159
 31
0.0
 12
1.354699
 22
0.331592
 32
0.0
 13
1.354699
 23
-0.33159
 33
0.0
  0
SOLID
  8
0
 62
     0
 10
-1.35469
 20
0.331592
 30
0.0
 11
-1.35469
 21
-0.33159
 31
0.0
 12
-0.45156
 22
0.331592
 32
0.0
 13
-0.45156
 23
-0.33159
 33
0.0
  0
LINE
  8
0
 62
     0
 10
-1.80626
 20
0.331592
 30
0.0
 11
1.806265
 21
0.331592
 31
0.0
  0
LINE
  8
0
 62
     0
 10
-1.80626
 20
-0.33159
 30
0.0
 11
1.806265
 21
-0.33159
 31
0.0
  0
ENDBLK
  8
0
  0
BLOCK
  8
0
  2
0044
 70
     0
 10
0.0
 20
0.0
 30
0.0
  3
0044
  1

  0
POLYLINE
  8
0
 62
     0
 66
     1
 10
0.0
 20
0.0
 30
0.0
  0
VERTEX
  8
0
 62
     0
 10
-2.00594
 20
-0.76172
 30
0.0
  0
VERTEX
  8
0
 62
     0
 10
-0.82547
 20
-0.17506
 30
0.0
  0
VERTEX
  8
0
 62
     0
 10
0.522527
 20
-0.73475
 30
0.0
  0
VERTEX
  8
0
 62
     0
 10
2.022421
 20
0.084226
 30
0.0
  0
SEQEND
  8
0
 62
     0
  0
POLYLINE
  8
0
 62
     0
 66
     1
 10
0.0
 20
0.0
 30
0.0
  0
VERTEX
  8
0
 62
     0
 10
-2.00594
 20
0.275130
 30
0.0
  0
VERTEX
  8
0
 62
     0
 10
-0.85999
 20
0.844639
 30
0.0
  0
VERTEX
  8
0
 62
     0
 10
0.467863
 20
0.293308
 30
0.0
  0
VERTEX
  8
0
 62
     0
 10
2.022421
 20
1.142138
 30
0.0
  0
SEQEND
  8
0
 62
     0
  0
ENDBLK
  8
0
  0
BLOCK
  8
0
  2
0045
 70
     0
 10
0.0
 20
0.0
 30
0.0
  3
0045
  1

  0
LINE
  8
0
 62
     0
 10
1.617372
 20
0.000000
 30
0.0
 11
0.605791
 21
0.000000
 31
0.0
  0
LINE
  8
0
 62
     0
 10
-2.00349
 20
0.5
 30
0.0
 11
2.003490
 21
0.5
 31
0.0
  0
LINE
  8
0
 62
     0
 10
-2.00349
 20
-0.5
 30
0.0
 11
2.003490
 21
-0.5
 31
0.0
  0
LINE
  8
0
 62
     0
 10
-1.61737
 20
0.0
 30
0.0
 11
-0.60579
 21
0.0
 31
0.0
  0
ENDBLK
  8
0
  0
BLOCK
  8
0
  2
003E
 70
     0
 10
0.0
 20
0.0
 30
0.0
  3
003E
  1

  0
LINE
  8
0
 62
     0
 10
-0.40078
 20
-0.25437
 30
0.0
 11
0.306321
 21
0.452734
 31
0.0
  0
ARC
  8
0
 62
     0
 10
1.480731
 20
1.609393
 30
0.0
 40
1.595632
 50
257.8893
 51
281.7718
  0
ARC
  8
0
 62
     0
 10
0.969858
 20
-1.16373
 30
0.0
 40
1.225724
 50
81.73926
 51
102.2998
  0
ARC
  8
0
 62
     0
 10
0.580193
 20
0.623449
 30
0.0
 40
0.603445
 50
255.7175
 51
282.2998
  0
LINE
  8
0
 62
     0
 10
-0.26858
 20
-0.38657
 30
0.0
 11
0.438520
 21
0.320535
 31
0.0
  0
ARC
  8
0
 62
     0
 10
-0.58019
 20
0.623449
 30
0.0
 40
0.603445
 50
257.7001
 51
284.2824
  0
ARC
  8
0
 62
     0
 10
-0.96985
 20
-1.16373
 30
0.0
 40
1.225724
 50
77.70011
 51
98.26073
  0
ARC
  8
0
 62
     0
 10
-1.48073
 20
1.609393
 30
0.0
 40
1.595632
 50
258.2281
 51
282.1106
  0
ENDBLK
  8
0
  0
BLOCK
  8
0
  2
*U97
 70
     1
 10
0.0
 20
0.0
 30
0.0
  3
*U97
  1

  0
SOLID
  8
0
  6
CONTINUOUS
 10
5.448301
 20
-0.73588
 30
0.0
 11
3.704041
 21
-0.73588
 31
0.0
 12
5.332830
 22
-0.85417
 32
0.0
 13
5.332830
 23
-0.85417
 33
0.0
210
0.0
220
0.0
230
1.0
  0
SOLID
  8
0
  6
CONTINUOUS
 10
3.819513
 20
-0.85417
 30
0.0
 11
5.332830
 21
-0.85417
 31
0.0
 12
3.704041
 22
-0.73588
 32
0.0
 13
3.704041
 23
-0.73588
 33
0.0
210
0.0
220
0.0
230
1.0
  0
SOLID
  8
0
  6
CONTINUOUS
 10
5.332830
 20
-0.85417
 30
0.0
 11
3.819513
 21
-0.85417
 31
0.0
 12
5.201480
 22
-0.95453
 32
0.0
 13
5.201480
 23
-0.95453
 33
0.0
210
0.0
220
0.0
230
1.0
  0
SOLID
  8
0
  6
CONTINUOUS
 10
3.950862
 20
-0.95453
 30
0.0
 11
5.201480
 21
-0.95453
 31
0.0
 12
3.819513
 22
-0.85417
 32
0.0
 13
3.819513
 23
-0.85417
 33
0.0
210
0.0
220
0.0
230
1.0
  0
SOLID
  8
0
  6
CONTINUOUS
 10
5.20148095
 20
-0.9545302
 30
0.0
 11
3.95086279
 21
-0.9545302
 31
0.0
 12
5.05700959
 22
-1.0348597
 32
0.0
 13
5.05700959
 23
-1.0348597
 33
0.0
210
0.0
220
0.0
230
1.0
  0
SOLID
  8
0
  6
CONTINUOUS
 10
4.09533415
 20
-1.0348597
 30
0.0
 11
5.05700959
 21
-1.0348597
 31
0.0
 12
3.95086279
 22
-0.9545302
 32
0.0
 13
3.95086279
 23
-0.9545302
 33
0.0
210
0.0
220
0.0
230
1.0
  0
SOLID
  8
0
  6
CONTINUOUS
 10
5.05700959
 20
-1.0348597
 30
0.0
 11
4.09533415
 21
-1.0348597
 31
0.0
 12
4.90244808
 22
-1.0934730
 32
0.0
 13
4.90244808
 23
-1.0934730
 33
0.0
210
0.0
220
0.0
230
1.0
  0
SOLID
  8
0
  6
CONTINUOUS
 10
4.24989566
 20
-1.0934730
 30
0.0
 11
4.90244808
 21
-1.0934730
 31
0.0
 12
4.09533415
 22
-1.0348597
 32
0.0
 13
4.09533415
 23
-1.0348597
 33
0.0
210
0.0
220
0.0
230
1.0
  0
SOLID
  8
0
  6
CONTINUOUS
 10
4.90244808
 20
-1.0934730
 30
0.0
 11
4.24989566
 21
-1.0934730
 31
0.0
 12
4.74103981
 22
-1.1291404
 32
0.0
 13
4.74103981
 23
-1.1291404
 33
0.0
210
0.0
220
0.0
230
1.0
  0
SOLID
  8
0
  6
CONTINUOUS
 10
4.41130393
 20
-1.1291404
 30
0.0
 11
4.74103981
 21
-1.1291404
 31
0.0
 12
4.24989566
 22
-1.0934730
 32
0.0
 13
4.24989566
 23
-1.0934730
 33
0.0
210
0.0
220
0.0
230
1.0
  0
SOLID
  8
0
  6
CONTINUOUS
 10
4.74103981
 20
-1.1291404
 30
0.0
 11
4.41130393
 21
-1.1291404
 31
0.0
 12
4.57617187
 22
-1.1411132
 32
0.0
 13
4.57617187
 23
-1.1411132
 33
0.0
210
0.0
220
0.0
230
1.0
  0
ENDBLK
  8
0
  0
BLOCK
  8
0
  2
0046
 70
     0
 10
0.0
 20
0.0
 30
0.0
  3
0046
  1

  0
POLYLINE
  8
0
 62
     0
 66
     1
 10
0.0
 20
0.0
 30
0.0
  0
VERTEX
  8
0
 62
     0
 10
-2.52178
 20
-0.56090
 30
0.0
  0
VERTEX
  8
0
 62
     0
 10
-1.39889
 20
-0.03380
 30
0.0
 40
0.379622
  0
VERTEX
  8
0
 62
     0
 10
-0.94913
 20
0.199021
 30
0.0
  0
VERTEX
  8
0
 62
     0
 10
0.014093
 20
-0.20091
 30
0.0
  0
VERTEX
  8
0
 62
     0
 10
1.554902
 20
0.522366
 30
0.0
 40
0.379622
  0
VERTEX
  8
0
 62
     0
 10
2.004668
 20
0.755196
 30
0.0
  0
SEQEND
  8
0
 62
     0
  0
POLYLINE
  8
0
 62
     0
 66
     1
 10
0.0
 20
0.0
 30
0.0
  0
VERTEX
  8
0
 62
     0
 10
-2.52178
 20
-1.38264
 30
0.0
  0
VERTEX
  8
0
 62
     0
 10
-1.30275
 20
-0.77682
 30
0.0
  0
VERTEX
  8
0
 62
     0
 10
0.067736
 20
-1.34586
 30
0.0
  0
VERTEX
  8
0
 62
     0
 10
2.003490
 20
-0.28889
 30
0.0
  0
SEQEND
  8
0
 62
     0
  0
POLYLINE
  8
0
 62
     0
 66
     1
 10
0.0
 20
0.0
 30
0.0
  0
VERTEX
  8
0
 62
     0
 10
-2.52178
 20
0.812044
 30
0.0
  0
VERTEX
  8
0
 62
     0
 10
-1.37582
 20
1.381554
 30
0.0
  0
VERTEX
  8
0
 62
     0
 10
-0.04796
 20
0.830222
 30
0.0
  0
VERTEX
  8
0
 62
     0
 10
2.003490
 20
1.950375
 30
0.0
  0
SEQEND
  8
0
 62
     0
  0
ENDBLK
  8
0
  0
BLOCK
  8
0
  2
00F2
 70
     0
 10
0.0
 20
0.0
 30
0.0
  3
00F2
  1

  0
LINE
  8
0
 62
     0
 10
0.0
 20
-0.87890
 30
0.0
 11
0.0
 21
0.878906
 31
0.0
  0
ENDBLK
  8
0
  0
BLOCK
  8
0
  2
005C
 70
     0
 10
0.0
 20
0.0
 30
0.0
  3
005C
  1

  0
SOLID
  8
0
 62
     0
 10
8.42
 20
0.0
 30
0.0
 11
11.42
 21
1.73
 31
0.0
 12
11.42
 22
-1.73
 32
0.0
 13
11.42
 23
-1.73
 33
0.0
  0
LINE
  8
0
 62
     0
 10
8.42
 20
0.0
 30
0.0
 11
1.5
 21
0.0
 31
0.0
  0
ARC
  8
0
 62
     0
 10
4.0
 20
-0.0
 30
0.0
 40
0.0
 50
0.0
 51
180.0
  0
ARC
  8
0
 62
     0
 10
6.0
 20
-0.0
 30
0.0
 40
1.0
 50
180.0
 51
0.0
  0
ENDBLK
  8
0
  0
BLOCK
  8
0
  2
005D
 70
     0
 10
0.0
 20
0.0
 30
0.0
  3
005D
  1

  0
SOLID
  8
0
 62
     0
 10
8.42
 20
0.0
 30
0.0
 11
11.42
 21
1.73
 31
0.0
 12
11.42
 22
-1.73
 32
0.0
 13
11.42
 23
-1.73
 33
0.0
  0
LINE
  8
0
 62
     0
 10
8.42
 20
0.0
 30
0.0
 11
1.5
 21
0.0
 31
0.0
  0
ARC
  8
0
 62
     0
 10
4.0
 20
-0.0
 30
0.0
 40
0.0
 50
0.0
 51
180.0
  0
ARC
  8
0
 62
     0
 10
6.0
 20
-0.0
 30
0.0
 40
1.0
 50
180.0
 51
0.0
  0
ENDBLK
  8
0
  0
BLOCK
  8
0
  2
0001
 70
     0
 10
0.0
 20
0.0
 30
0.0
  3
0001
  1

  0
POLYLINE
  8
0
 62
     0
 62
     0
 66
     1
 10
0.0
 20
0.0
 30
0.0
 70
     1
  0
VERTEX
  8
0
 62
     0
 10
-0.55664
 20
1.5
 30
0.0
  0
VERTEX
  8
0
 62
     0
 10
-0.55664
 20
-1.5
 30
0.0
  0
VERTEX
  8
0
 62
     0
 10
0.55664
 20
-1.5
 30
0.0
  0
VERTEX
  8
0
 62
     0
 10
0.55664
 20
1.5
 30
0.0
  0
SEQEND
  8
0
 62
     0
  0
ENDBLK
  8
0
 0
ENDSEC
 0
SECTION
 2
ENTITIES
  0
INSERT
  8
IP
  2
00F1
 10
997960.71
 20
9974574.91
 50
208.39
 62
5
 41
0.5
 42
0.5
  0
INSERT
  8
IP
  2
00F1
 10
997802.97
 20
9974241.97
 50
327.99
 62
5
 41
0.5
 42
0.5
  0
INSERT
  8
IP
  2
00F1
 10
997863.346
 20
9974195.989
 50
235.26
 62
5
 41
0.5
 42
0.5
  0
INSERT
  8
IP
  2
00F1
 10
998073.01
 20
9974373.72
 50
0
 62
5
 41
0.5
 42
0.5
  0
INSERT
  8
IP
  2
00F1
 10
998012.43
 20
9974464.29
 50
0
 62
5
 41
0.5
 42
0.5
  0
INSERT
  8
IP_PROJ
  2
00F1
 10
997921.32
 20
9974334.72
 50
0
 62
6
 41
0.5
 42
0.5
  0
INSERT
  8
IP
  2
00F1
 10
998049.91
 20
9974390.56
 50
0
 62
5
 41
0.5
 42
0.5
  0
INSERT
  8
IP
  2
00F1
 10
997993.21
 20
9974498.15
 50
0
 62
5
 41
0.5
 42
0.5
  0
INSERT
  8
IP
  2
00F1
 10
997587.19
 20
9974370.49
 50
0
 62
5
 41
0.5
 42
0.5
  0
INSERT
  8
IP
  2
00F1
 10
997973.91
 20
9974545.01
 50
0
 62
5
 41
0.5
 42
0.5
  0
INSERT
  8
IP
  2
00F1
 10
997973.91
 20
9974545.01
 50
0
 62
5
 41
0.5
 42
0.5
  0
INSERT
  8
PONTO_GEOGRAFICO
  2
002F
 10
997924.23
 20
9974648.64
 50
203
 62
7
 41
0.5
 42
0.5
  0
INSERT
  8
PONTO_GEOGRAFICO
  2
002F
 10
997940.47
 20
9974611.76
 50
113
 62
7
 41
0.5
 42
0.5
  0
INSERT
  8
PONTO_GEOGRAFICO
  2
002F
 10
997960.71
 20
9974574.91
 50
208
 62
7
 41
0.5
 42
0.5
  0
INSERT
  8
PONTO_GEOGRAFICO_PROJ
  2
002F
 10
997964.76
 20
9974566.94
 50
207
 62
6
 41
0.5
 42
0.5
  0
INSERT
  8
PONTO_GEOGRAFICO_PROJ
  2
002F
 10
997921.94
 20
9974541.66
 50
120
 62
6
 41
0.5
 42
0.5
  0
INSERT
  8
PONTO_GEOGRAFICO_PROJ
  2
002F
 10
997809.5
 20
9974462.94
 50
215
 62
6
 41
0.5
 42
0.5
  0
INSERT
  8
PONTO_GEOGRAFICO_PROJ
  2
002F
 10
997680.15
 20
9974371.11
 50
125
 62
6
 41
0.5
 42
0.5
  0
INSERT
  8
PONTO_GEOGRAFICO_PROJ
  2
002F
 10
997798.926
 20
9974236.664
 50
328
 62
6
 41
0.5
 42
0.5
  0
INSERT
  8
PONTO_GEOGRAFICO_PROJ
  2
002F
 10
997854.68
 20
9974283.3
 50
43
 62
6
 41
0.5
 42
0.5
  0
INSERT
  8
PONTO_GEOGRAFICO_PROJ
  2
002F
 10
997921.32
 20
9974334.72
 50
209
 62
6
 41
0.5
 42
0.5
  0
INSERT
  8
PONTO_GEOGRAFICO
  2
002F
 10
997863.346
 20
9974195.989
 50
235
 62
7
 41
0.5
 42
0.5
  0
INSERT
  8
PONTO_GEOGRAFICO_PROJ
  2
002F
 10
998027.68
 20
9974425.4
 50
298
 62
6
 41
0.5
 42
0.5
  0
INSERT
  8
PONTO_GEOGRAFICO
  2
002F
 10
998049.91
 20
9974390.56
 50
0
 62
7
 41
0.5
 42
0.5
  0
INSERT
  8
PONTO_GEOGRAFICO
  2
002F
 10
998073.01
 20
9974373.72
 50
0
 62
7
 41
0.5
 42
0.5
  0
INSERT
  8
PONTO_GEOGRAFICO_PROJ
  2
002F
 10
998012.43
 20
9974464.29
 50
291
 62
6
 41
0.5
 42
0.5
  0
INSERT
  8
PONTO_GEOGRAFICO_PROJ
  2
002F
 10
997993.21
 20
9974498.15
 50
299
 62
6
 41
0.5
 42
0.5
  0
INSERT
  8
PONTO_GEOGRAFICO_PROJ
  2
002F
 10
997973.91
 20
9974545.01
 50
291
 62
6
 41
0.5
 42
0.5
  0
INSERT
  8
PONTO_GEOGRAFICO
  2
002F
 10
997853.23
 20
9974653.17
 50
144
 62
7
 41
0.5
 42
0.5
  0
INSERT
  8
PONTO_GEOGRAFICO_PROJ
  2
002F
 10
997635.38
 20
9974339.82
 50
215
 62
6
 41
0.5
 42
0.5
  0
INSERT
  8
PONTO_GEOGRAFICO
  2
002F
 10
997580.67
 20
9974298.47
 50
217
 62
7
 41
0.5
 42
0.5
  0
INSERT
  8
PONTO_GEOGRAFICO
  2
002F
 10
997531.02
 20
9974399.11
 50
0
 62
7
 41
0.5
 42
0.5
  0
INSERT
  8
PONTO_GEOGRAFICO_PROJ
  2
002F
 10
997703.6
 20
9974303.29
 50
151
 62
6
 41
0.5
 42
0.5
  0
INSERT
  8
PONTO_GEOGRAFICO_PROJ
  2
002F
 10
997746.76
 20
9974276.58
 50
328
 62
6
 41
0.5
 42
0.5
  0
INSERT
  8
PONTO_GEOGRAFICO_PROJ
  2
002F
 10
997587.19
 20
9974370.49
 50
328
 62
6
 41
0.5
 42
0.5
  0
INSERT
  8
PONTO_GEOGRAFICO
  2
002F
 10
998061.2
 20
9974496.6
 50
326
 62
7
 41
0.5
 42
0.5
  0
INSERT
  8
PONTO_GEOGRAFICO
  2
0025
 10
997684.88
 20
9974364.4
 50
4
 62
7
 41
0.5
 42
0.5
  0
INSERT
  8
PONTO_GEOGRAFICO_PROJ
  2
002F
 10
998007.098486079
 20
9974407.10611793
 50
44
 62
6
 41
0.5
 42
0.5
  0
INSERT
  8
PONTO_GEOGRAFICO_PROJ
  2
002F
 10
997951.455283501
 20
9974364.88929451
 50
40
 62
6
 41
0.5
 42
0.5
  0
INSERT
  8
PONTO_GEOGRAFICO_PROJ
  2
002F
 10
997889.025335054
 20
9974315.7056724
 50
31
 62
6
 41
0.5
 42
0.5
  0
INSERT
  8
PONTO_GEOGRAFICO_PROJ
  2
002D
 10
997592.338257086
 20
9974379.21791143
 50
0
 62
6
 41
0.5
 42
0.5
  0
INSERT
  8
INSTALACAO_CARGA
  2
005C
 10
997924.23
 20
9974648.64
 50
203
 62
4
 41
0.5
 42
0.5
  0
INSERT
  8
INSTALACAO_CARGA
  2
005C
 10
997863.346
 20
9974195.989
 50
55
 62
4
 41
0.5
 42
0.5
  0
INSERT
  8
INSTALACAO_MANOBRA
  2
0077
 10
997960.71
 20
9974574.91
 50
119
 62
4
 41
0.5
 42
0.5
  0
INSERT
  8
INSTALACAO_MANOBRA_PROJ
  2
0077
 10
997798.926
 20
9974236.664
 50
328
 62
6
 41
0.5
 42
0.5
  0
INSERT
  8
INSTALACAO_MANOBRA_PROJ
  2
0079
 10
997587.19
 20
9974370.49
 50
59
 62
6
 41
0.5
 42
0.5
  0
INSERT
  8
ACESSORIO
  2
0039
 10
997924.23
 20
9974648.64
 50
608
 62
32
 41
0.5
 42
0.5
  0
INSERT
  8
ACESSORIO
  2
003A
 10
997924.23
 20
9974648.64
 50
518
 62
32
 41
0.5
 42
0.5
  0
INSERT
  8
ACESSORIO_PROJ
  2
0039
 10
997798.926
 20
9974236.664
 50
418
 62
6
 41
0.5
 42
0.5
  0
INSERT
  8
ACESSORIO_PROJ
  2
003A
 10
997921.32
 20
9974334.72
 50
356
 62
6
 41
0.5
 42
0.5
  0
INSERT
  8
ENCABECAMENTO
  2
0047
 10
997925.439
 20
9974645.894
 50
294
 62
5
 41
0.5
 42
0.5
  0
INSERT
  8
ENCABECAMENTO
  2
00F2
 10
997963.401
 20
9974569.615
 50
117
 62
5
 41
0.5
 42
0.5
  0
INSERT
  8
ENCABECAMENTO_PROJ
  2
00F2
 10
997924.523
 20
9974543.185
 50
31
 62
6
 41
0.5
 42
0.5
  0
INSERT
  8
ENCABECAMENTO_PROJ
  2
00F2
 10
997962.177
 20
9974565.415
 50
211
 62
6
 41
0.5
 42
0.5
  0
INSERT
  8
ENCABECAMENTO_PROJ
  2
00F2
 10
997919.482
 20
9974539.939
 50
215
 62
6
 41
0.5
 42
0.5
  0
INSERT
  8
ENCABECAMENTO_PROJ
  2
00F2
 10
997682.596
 20
9974372.847
 50
35
 62
6
 41
0.5
 42
0.5
  0
INSERT
  8
ENCABECAMENTO_PROJ
  2
00F2
 10
997677.691
 20
9974369.391
 50
215
 62
6
 41
0.5
 42
0.5
  0
INSERT
  8
ENCABECAMENTO
  2
004B
 10
997860.809
 20
9974197.591
 50
148
 62
5
 41
0.5
 42
0.5
  0
INSERT
  8
ENCABECAMENTO
  2
00F2
 10
998047.031
 20
9974392.282
 50
123
 62
5
 41
0.5
 42
0.5
  0
INSERT
  8
ENCABECAMENTO
  2
00F2
 10
998051.45
 20
9974387.581
 50
324
 62
5
 41
0.5
 42
0.5
  0
INSERT
  8
ENCABECAMENTO
  2
0048
 10
998069.702
 20
9974374.275
 50
144
 62
5
 41
0.5
 42
0.5
  0
INSERT
  8
ENCABECAMENTO
  2
0048
 10
997920.354352026
 20
9974332.39222743
 50
210
 62
5
 41
0.5
 42
0.5
  0
INSERT
  8
ENCABECAMENTO_PROJ
  2
004B
 10
997965.237860179
 20
9974565.61114235
 50
293
 62
6
 41
0.5
 42
0.5
  0
INSERT
  8
ENCABECAMENTO_PROJ
  2
004B
 10
997964.080468948
 20
9974568.27725
 50
117
 62
6
 41
0.5
 42
0.5
  0
INSERT
  8
ENCABECAMENTO_PROJ
  2
004B
 10
997965.971896625
 20
9974566.05608452
 50
324
 62
6
 41
0.5
 42
0.5
  0
INSERT
  8
ENCABECAMENTO_PROJ
  2
004B
 10
997634.183341639
 20
9974338.91556163
 50
217
 62
6
 41
0.5
 42
0.5
  0
INSERT
  8
ENCABECAMENTO_PROJ
  2
004B
 10
997800.194333931
 20
9974235.86316978
 50
328
 62
6
 41
0.5
 42
0.5
  0
INSERT
  8
ENCABECAMENTO_PROJ
  2
0049
 10
997591.319273073
 20
9974377.49696065
 50
-121
 62
6
 41
0.5
 42
0.5
  0
LINE
  8
TRECHO_PRIMARIO
 10
997924.23
 20
9974648.64
 11
997940.47
 21
9974611.76
 62
182
  0
LINE
  8
TRECHO_PRIMARIO
 10
997960.71
 20
9974574.91
 11
997940.47
 21
9974611.76
 62
182
  0
LINE
  8
TRECHO_PRIMARIO
 10
997964.76
 20
9974566.94
 11
997960.71
 21
9974574.91
 62
182
  0
LINE
  8
TRECHO_PRIMARIO_PROJ
 10
997964.76
 20
9974566.94
 11
997921.94
 21
9974541.66
 62
6
  0
LINE
  8
TRECHO_PRIMARIO_PROJ
 10
997809.5
 20
9974462.94
 11
997921.94
 21
9974541.66
 62
6
  0
LINE
  8
TRECHO_PRIMARIO_PROJ
 10
997680.15
 20
9974371.11
 11
997809.5
 21
9974462.94
 62
6
  0
LINE
  8
TRECHO_PRIMARIO_PROJ
 10
997635.38
 20
9974339.82
 11
997680.15
 21
9974371.11
 62
6
  0
LINE
  8
TRECHO_PRIMARIO
 10
997580.67
 20
9974298.47
 11
997635.38
 21
9974339.82
 62
182
  0
LINE
  8
TRECHO_PRIMARIO_PROJ
 10
997635.38
 20
9974339.82
 11
997703.6
 21
9974303.29
 62
6
  0
LINE
  8
TRECHO_PRIMARIO_PROJ
 10
997746.76
 20
9974276.58
 11
997703.6
 21
9974303.29
 62
6
  0
LINE
  8
TRECHO_PRIMARIO_PROJ
 10
997798.926
 20
9974236.664
 11
997746.76
 21
9974276.58
 62
6
  0
LINE
  8
TRECHO_PRIMARIO
 10
997863.346
 20
9974195.989
 11
997798.926
 21
9974236.664
 62
182
  0
LINE
  8
TRECHO_PRIMARIO
 10
997853.23
 20
9974653.17
 11
997960.71
 21
9974574.91
 62
182
  0
LINE
  8
TRECHO_PRIMARIO
 10
997964.76
 20
9974566.94
 11
998061.2
 21
9974496.6
 62
182
  0
LINE
  8
TRECHO_PRIMARIO_PROJ
 10
997964.76
 20
9974566.94
 11
997973.91
 21
9974545.01
 62
6
  0
LINE
  8
TRECHO_PRIMARIO_PROJ
 10
998012.43
 20
9974464.29
 11
998027.68
 21
9974425.4
 62
6
  0
LINE
  8
TRECHO_PRIMARIO_PROJ
 10
997973.91
 20
9974545.01
 11
997993.21
 21
9974498.15
 62
6
  0
LINE
  8
TRECHO_PRIMARIO_PROJ
 10
997993.21
 20
9974498.15
 11
998012.43
 21
9974464.29
 62
6
  0
LINE
  8
TRECHO_PRIMARIO_PROJ
 10
998007.098486079
 20
9974407.10611793
 11
997951.455283501
 21
9974364.88929451
 62
6
  0
LINE
  8
TRECHO_PRIMARIO_PROJ
 10
998027.68
 20
9974425.4
 11
998007.098486079
 21
9974407.10611793
 62
6
  0
LINE
  8
TRECHO_PRIMARIO_PROJ
 10
997889.025335054
 20
9974315.7056724
 11
997854.68
 21
9974283.3
 62
6
  0
LINE
  8
TRECHO_PRIMARIO_PROJ
 10
997889.025335054
 20
9974315.7056724
 11
997854.68
 21
9974283.3
 62
6
  0
LINE
  8
TRECHO_PRIMARIO_PROJ
 10
997951.455283501
 20
9974364.88929451
 11
997921.32
 21
9974334.72
 62
6
  0
LINE
  8
TRECHO_PRIMARIO_PROJ
 10
997921.32
 20
9974334.72
 11
997889.025335054
 21
9974315.7056724
 62
6
  0
LINE
  8
TRECHO_PRIMARIO_PROJ
 10
997854.68
 20
9974283.3
 11
997798.926
 21
9974236.664
 62
6
  0
LINE
  8
TRECHO_PRIMARIO_PROJ
 10
997587.19
 20
9974370.49
 11
997635.38
 21
9974339.82
 62
6
  0
LINE
  8
TRECHO_PRIMARIO_PROJ
 10
997587.19
 20
9974370.49
 11
997592.338257086
 21
9974379.21791143
 62
6
  0
LINE
  8
TRECHO_SECUNDARIO
 10
997922.857
 20
9974648.035
 11
997939.097
 21
9974611.155
 62
1
  0
LINE
  8
TRECHO_SECUNDARIO
 10
997959.395
 20
9974574.188
 11
997939.155
 21
9974611.038
 62
1
  0
LINE
  8
TRECHO_SECUNDARIO
 10
998048.645
 20
9974389.753
 11
998026.415
 21
9974424.593
 62
1
  0
LINE
  8
TRECHO_SECUNDARIO
 10
998069.702
 20
9974374.275
 11
998049.026
 21
9974389.348
 62
1
  0
LINE
  8
TRECHO_SECUNDARIO
 10
998011.034
 20
9974463.742
 11
998026.284
 21
9974424.852
 62
1
  0
LINE
  8
TRECHO_SECUNDARIO
 10
997991.906
 20
9974497.41
 11
998011.126
 21
9974463.55
 62
1
  0
LINE
  8
TRECHO_SECUNDARIO
 10
997972.523
 20
9974544.439
 11
997991.823
 21
9974497.579
 62
1
  0
LINE
  8
TRECHO_SECUNDARIO_PROJ
 10
997588.017469297
 20
9974371.75993273
 11
997636.212958852
 21
9974341.00833305
 62
6
  0
LINE
  8
TRECHO_SECUNDARIO_PROJ
 10
997531.729453512
 20
9974400.53335933
 11
997587.837635381
 21
9974371.75993273
 62
6
  0
LINE
  8
TRECHO_SECUNDARIO_PROJ
 10
997636.033124935
 20
9974341.18816696
 11
997704.37001311
 21
9974304.68188197
 62
6
  0
LINE
  8
TRECHO_SECUNDARIO_PROJ
 10
997747.530153009
 20
9974277.88662845
 11
997704.37001311
 21
9974304.50204805
 62
6
  0
LINE
  8
TRECHO_SECUNDARIO
 10
997799.838
 20
9974237.855
 11
997747.672
 21
9974277.771
 62
1
  0
LINE
  8
TRECHO_SECUNDARIO_PROJ
 10
997855.629297705
 20
9974282.17844987
 11
997799.92272744
 21
9974235.48323656
 62
6
  0
LINE
  8
TRECHO_SECUNDARIO
 10
997864.147
 20
9974197.257
 11
997799.727
 21
9974237.932
 62
1
  0
LINE
  8
TRECHO_SECUNDARIO
 10
997972.538
 20
9974544.404
 11
997959.338
 21
9974574.304
 62
1
  0
LINE
  8
TRECHO_SECUNDARIO_PROJ
 10
997922.078805389
 20
9974333.40527264
 11
997889.771703739
 21
9974314.42618323
 62
6
  0
LINE
  8
TRECHO_SECUNDARIO_PROJ
 10
997890.036296986
 20
9974314.47889818
 11
997855.746328315
 21
9974282.17844987
 62
6
  0
LINE
  8
TEXTO_INDICADOR
 10
997870.337031757
 20
9974234.60354473
 11
997844.897737455
 21
9974234.60354473
 62
5
  0
LINE
  8
TEXTO_INDICADOR
 10
997844.897737455
 20
9974234.60354473
 11
997844.897737455
 21
9974239.76015843
 62
5
  0
LINE
  8
TEXTO_INDICADOR
 10
997844.897737455
 20
9974239.76015843
 11
997802.842687866
 21
9974234.37436189
 62
5
  0
LINE
  8
TEXTO_INDICADOR
 10
997802.842687866
 20
9974234.37436189
 11
997807.197161665
 21
9974236.20782455
 62
5
  0
LINE
  8
MUB_PROJ
 10
997524.292626653
 20
9974403.63840396
 11
997606.159632229
 21
9974361.81985246
 62
84
  0
LINE
  8
MUB_PROJ
 10
997606.159632229
 20
9974361.81985246
 11
997705.063825453
 21
9974305.39799726
 62
84
  0
LINE
  8
MUB_PROJ
 10
997705.063825453
 20
9974305.39799726
 11
997705.948874162
 21
9974298.31760759
 62
84
  0
LINE
  8
MUB_PROJ
 10
997705.948874162
 20
9974298.31760759
 11
997659.262554765
 21
9974243.00206328
 62
84
  0
LINE
  8
MUB_PROJ
 10
997659.262554765
 20
9974243.00206328
 11
997659.262554765
 21
9974243.00206328
 62
84
  0
LINE
  8
MUB_PROJ
 10
997772.327527332
 20
9974200.74098743
 11
997806.623164803
 21
9974242.55953893
 62
84
  0
LINE
  8
MUB_PROJ
 10
997806.623164803
 20
9974242.55953893
 11
997804.631805208
 21
9974247.64856901
 62
84
  0
LINE
  8
MUB_PROJ
 10
997804.631805208
 20
9974247.64856901
 11
997718.560818264
 21
9974297.21129671
 62
84
  0
LINE
  8
MUB_PROJ
 10
997718.560818264
 20
9974297.21129671
 11
997709.489068998
 21
9974296.10498582
 62
84
  0
LINE
  8
MUB_PROJ
 10
997709.489068998
 20
9974296.10498582
 11
997662.13896307
 21
9974240.56817933
 62
84
  0
LINE
  8
MUB_PROJ
 10
997662.13896307
 20
9974240.56817933
 11
997662.13896307
 21
9974240.56817933
 62
84
  0
LINE
  8
MUB_PROJ
 10
997775.425197813
 20
9974197.64331695
 11
997809.499573107
 21
9974239.24060627
 62
84
  0
LINE
  8
MUB_PROJ
 10
997809.499573107
 20
9974239.24060627
 11
997814.146078829
 21
9974240.12565498
 62
84
  0
LINE
  8
MUB_PROJ
 10
997814.146078829
 20
9974240.12565498
 11
997865.921428302
 21
9974204.28118227
 62
84
  0
LINE
  8
MUB_PROJ
 10
997865.921428302
 20
9974204.28118227
 11
997865.921428302
 21
9974204.28118227
 62
84
  0
LINE
  8
MUB_PROJ
 10
997863.70880653
 20
9974210.03399887
 11
997817.686273665
 21
9974243.00206328
 62
84
  0
LINE
  8
MUB_PROJ
 10
997817.686273665
 20
9974243.00206328
 11
997816.358700602
 21
9974252.07381255
 62
84
  0
LINE
  8
MUB_PROJ
 10
997816.358700602
 20
9974252.07381255
 11
997869.461623138
 21
9974295.44119929
 62
84
  0
LINE
  8
MUB_PROJ
 10
997869.461623138
 20
9974295.44119929
 11
997869.461623138
 21
9974295.44119929
 62
84
  0
LINE
  8
MUB_PROJ
 10
997893.800462634
 20
9974323.98402015
 11
998017.043495353
 21
9974424.65831079
 62
84
  0
LINE
  8
MUB_PROJ
 10
998017.043495353
 20
9974424.65831079
 11
998000.44883206
 21
9974462.27288092
 62
84
  0
LINE
  8
MUB_PROJ
 10
998000.44883206
 20
9974462.27288092
 11
998000.44883206
 21
9974462.27288092
 62
84
  0
LINE
  8
MUB_PROJ
 10
997865.921428302
 20
9974291.23721792
 11
997977.437565628
 21
9974382.39723494
 62
84
  0
LINE
  8
MUB_PROJ
 10
997977.437565628
 20
9974382.39723494
 11
997985.403004009
 21
9974381.51218623
 62
84
  0
LINE
  8
MUB_PROJ
 10
997985.403004009
 20
9974381.51218623
 11
998060.632144268
 21
9974368.2364556
 62
84
  0
LINE
  8
MUB_PROJ
 10
998060.632144268
 20
9974368.2364556
 11
998060.632144268
 21
9974368.2364556
 62
84
  0
LINE
  8
MUB_PROJ
 10
997986.288052717
 20
9974388.5925759
 11
998019.477379303
 21
9974417.35665894
 62
84
  0
LINE
  8
MUB_PROJ
 10
998019.477379303
 20
9974417.35665894
 11
998052.002919356
 21
9974378.19325357
 62
84
  0
LINE
  8
MUB_PROJ
 10
998052.002919356
 20
9974378.19325357
 11
997985.403004009
 21
9974387.92878937
 62
84
  0
LINE
  8
MUB_PROJ
 10
997985.403004009
 20
9974387.92878937
 11
998009.520581327
 21
9974407.84238532
 62
84
  0
LINE
  8
MUB_PROJ
 10
998009.520581327
 20
9974407.84238532
 11
998009.520581327
 21
9974407.84238532
 62
84
  0
LINE
  8
MUB_PROJ
 10
998063.287290395
 20
9974371.77665043
 11
998026.557768974
 21
9974422.6669512
 62
84
  0
LINE
  8
MUB_PROJ
 10
998026.557768974
 20
9974422.6669512
 11
997989.606985376
 21
9974502.10007282
 62
84
  0
LINE
  8
MUB_PROJ
 10
997989.606985376
 20
9974502.10007282
 11
997989.606985376
 21
9974502.10007282
 62
84
  0
LINE
  8
MUB_PROJ
 10
998002.88271601
 20
9974456.96258867
 11
997933.185130181
 21
9974612.95242362
 62
84
  0
LINE
  8
MUB_PROJ
 10
997933.185130181
 20
9974612.95242362
 11
997933.185130181
 21
9974612.95242362
 62
84
  0
LINE
  8
MUB_PROJ
 10
997994.917277629
 20
9974490.15191525
 11
997936.282800662
 21
9974618.48397805
 62
84
  0
LINE
  8
MUB_PROJ
 10
997936.282800662
 20
9974618.48397805
 11
997936.282800662
 21
9974618.70524023
 62
84
  0
LINE
  8
MUB_PROJ
 10
997905.283882514
 20
9974333.17701069
 11
997808.315634087
 21
9974256.20221554
 62
84
  0
LINE
  8
MUB_PROJ
 10
997808.315634087
 20
9974256.20221554
 11
997721.01088808
 21
9974306.51907297
 62
84
  0
LINE
  8
MUB_PROJ
 10
997721.01088808
 20
9974306.51907297
 11
997721.01088808
 21
9974306.51907297
 62
84
  0
LINE
  8
MUB_PROJ
 10
997730.007942057
 20
9974301.85393387
 11
997523.408924789
 21
9974412.8175996
 62
84
  0
LINE
  8
MUB_PROJ
 10
997523.408924789
 20
9974412.8175996
 11
997523.408924789
 21
9974412.8175996
 62
84
  0
LINE
  8
TEXTO_TP_PROJ
 10
997825.238706312
 20
9974260.47559677
 11
997826.593966892
 21
9974261.60921826
 62
6
  0
LINE
  8
TEXTO_TP_PROJ
 10
997826.593966892
 20
9974261.60921826
 11
997825.159386128
 21
9974263.32426712
 62
6
  0
LINE
  8
TEXTO_TP_PROJ
 10
997825.159386128
 20
9974263.32426712
 11
997823.804125548
 21
9974262.19064564
 62
6
  0
LINE
  8
TEXTO_TP_PROJ
 10
997823.804125548
 20
9974262.19064564
 11
997825.238706312
 21
9974260.47559677
 62
6
  0
TEXT
  8
TEXTO_TP_PROJ
  1
 73m ABC 3 #1/0 AWG CAA
 50
39.9123161056435
 40
1
 62
6
 10
0.0
 20
0.0
 11
997825.199749565
 21
9974261.89909117
 72
4
  0
LINE
  8
TEXTO_TP_PROJ
 10
997934.785193215
 20
9974350.15632703
 11
997936.033854233
 21
9974351.40639686
 62
6
  0
LINE
  8
TEXTO_TP_PROJ
 10
997936.033854233
 20
9974351.40639686
 11
997934.451911006
 21
9974352.98654566
 62
6
  0
LINE
  8
TEXTO_TP_PROJ
 10
997934.451911006
 20
9974352.98654566
 11
997933.203249987
 21
9974351.73647583
 62
6
  0
LINE
  8
TEXTO_TP_PROJ
 10
997933.203249987
 20
9974351.73647583
 11
997934.785193215
 21
9974350.15632703
 62
6
  0
TEXT
  8
TEXTO_TP_PROJ
  1
 43m ABC 3 #1/0 AWG CAA
 50
45.0336320882704
 40
1
 62
6
 10
0.0
 20
0.0
 11
997934.619327697
 21
9974351.5706617
 72
4
  0
LINE
  8
TEXTO_TP_PROJ
 10
997903.710457768
 20
9974325.95531704
 11
997905.233034144
 21
9974326.85174891
 62
6
  0
LINE
  8
TEXTO_TP_PROJ
 10
997905.233034144
 20
9974326.85174891
 11
997904.098611141
 21
9974328.77853355
 62
6
  0
LINE
  8
TEXTO_TP_PROJ
 10
997904.098611141
 20
9974328.77853355
 11
997902.576034765
 21
9974327.88210168
 62
6
  0
LINE
  8
TEXTO_TP_PROJ
 10
997902.576034765
 20
9974327.88210168
 11
997903.710457768
 21
9974325.95531704
 62
6
  0
TEXT
  8
TEXTO_TP_PROJ
  1
 38m ABC 3 #1/0 AWG CAA
 50
30.4887685005194
 40
1
 62
6
 10
0.0
 20
0.0
 11
997903.90509065
 21
9974327.36598071
 72
4
  0
LINE
  8
TEXTO_TP_PROJ
 10
997588.125195598
 20
9974374.79505153
 11
997589.022831872
 21
9974376.31691816
 62
6
  0
LINE
  8
TEXTO_TP_PROJ
 10
997589.022831872
 20
9974376.31691816
 11
997587.096937067
 21
9974377.45285116
 62
6
  0
LINE
  8
TEXTO_TP_PROJ
 10
997587.096937067
 20
9974377.45285116
 11
997586.199300793
 21
9974375.93098453
 62
6
  0
LINE
  8
TEXTO_TP_PROJ
 10
997586.199300793
 20
9974375.93098453
 11
997588.125195598
 21
9974374.79505153
 62
6
  0
TEXT
  8
TEXTO_TP_PROJ
  1
 11m ABC 3 #1/0 AWG CAA
 50
59.4685512581556
 40
1
 62
6
 10
0.0
 20
0.0
 11
997587.612010534
 21
9974376.12339449
 72
4
  0
LINE
  8
TEXTO_TP_RETI
 10
997942.783917086
 20
9974553.52150583
 11
997945.442152002
 21
9974552.49434486
 62
5
  0
LINE
  8
TEXTO_TP_RETI
 10
997943.920653339
 20
9974551.59608502
 11
997944.305415749
 21
9974554.41976566
 62
5
  0
TEXT
  8
TEXTO_TP_RETI
  1
 49m 2# #6 AWG CA
 50
30.5575827720994
 40
1
 62
5
 10
0.0
 20
0.0
 11
997944.11343677
 21
9974553.00724411
 72
4
  0
LINE
  8
TEXTO_TP_RETI
 10
997863.495156617
 20
9974503.93808699
 11
997866.224923823
 21
9974503.11976949
 62
5
  0
LINE
  8
TEXTO_TP_RETI
 10
997864.777520252
 20
9974502.10643252
 11
997864.942560188
 21
9974504.95142396
 62
5
  0
TEXT
  8
TEXTO_TP_RETI
  1
 137m 2# #6 AWG CA
 50
34.9971560485739
 40
1
 62
5
 10
0.0
 20
0.0
 11
997864.860523646
 21
9974503.5282378
 72
4
  0
LINE
  8
TEXTO_TP_RETI
 10
997742.589500546
 20
9974418.64811857
 11
997745.324580833
 21
9974417.84773844
 62
5
  0
LINE
  8
TEXTO_TP_RETI
 10
997743.883860568
 20
9974416.82492173
 11
997744.030220812
 21
9974419.67093528
 62
5
  0
TEXT
  8
TEXTO_TP_RETI
  1
 158m 2# #6 AWG CA
 50
35.373291798453
 40
1
 62
5
 10
0.0
 20
0.0
 11
997743.957528638
 21
9974418.24724125
 72
4
  0
LINE
  8
TEXTO_TP_RETI
 10
997655.541487011
 20
9974357.10418767
 11
997658.270593313
 21
9974356.28366874
 62
5
  0
LINE
  8
TEXTO_TP_RETI
 10
997656.822372902
 20
9974355.27149951
 11
997656.989707421
 21
9974358.11635691
 62
5
  0
TEXT
  8
TEXTO_TP_RETI
  1
 54m 2# #6 AWG CA
 50
34.9509426002644
 40
1
 62
5
 10
0.0
 20
0.0
 11
997656.906493389
 21
9974356.69327979
 72
4
  0
LINE
  8
TEXTO_TP_RETI
 10
997669.946886532
 20
9974324.27953045
 11
997670.449021715
 21
9974321.47433299
 62
5
  0
LINE
  8
TEXTO_TP_RETI
 10
997668.891405261
 20
9974322.30839527
 11
997671.504502987
 21
9974323.44546816
 62
5
  0
TEXT
  8
TEXTO_TP_RETI
  1
 78m AC 2 #6 AWG CA
 50
331.84191883736
 40
1
 62
5
 10
0.0
 20
0.0
 11
997670.197531924
 21
9974322.87614316
 72
4
  0
LINE
  8
TEXTO_TP_RETI
 10
997724.228048478
 20
9974290.07448452
 11
997724.553851412
 21
9974287.24338491
 62
5
  0
LINE
  8
TEXTO_TP_RETI
 10
997723.051417492
 20
9974288.17318125
 11
997725.730482398
 21
9974289.14468818
 62
5
  0
TEXT
  8
TEXTO_TP_RETI
  1
 51m AC 2 #6 AWG CA
 50
328.257970990942
 40
1
 62
5
 10
0.0
 20
0.0
 11
997724.390479279
 21
9974288.6581741
 72
4
  0
LINE
  8
TEXTO_TP_RETI
 10
997771.90870674
 20
9974256.85565878
 11
997771.953180738
 21
9974254.00622119
 62
5
  0
LINE
  8
TEXTO_TP_RETI
 10
997770.54997002
 20
9974255.07991975
 11
997773.311917458
 21
9974255.78196022
 62
5
  0
TEXT
  8
TEXTO_TP_RETI
  1
 66m AC 2 #6 AWG CA
 50
322.587283173862
 40
1
 62
5
 10
0.0
 20
0.0
 11
997771.930400222
 21
9974255.4302296
 72
4
  0
LINE
  8
TEXTO_TP_PROJ
 10
997970.269982243
 20
9974557.3227966
 11
997970.950339431
 21
9974555.69217003
 62
6
  0
LINE
  8
TEXTO_TP_PROJ
 10
997970.950339431
 20
9974555.69217003
 11
997973.013860351
 21
9974556.55315551
 62
6
  0
LINE
  8
TEXTO_TP_PROJ
 10
997973.013860351
 20
9974556.55315551
 11
997972.333503164
 21
9974558.18378208
 62
6
  0
LINE
  8
TEXTO_TP_PROJ
 10
997972.333503164
 20
9974558.18378208
 11
997970.269982243
 21
9974557.3227966
 62
6
  0
TEXT
  8
TEXTO_TP_PROJ
  1
 24m ABC 3 #1/0 AWG CAA
 50
292.656317714913
 40
1
 62
6
 10
0.0
 20
0.0
 11
997971.640909666
 21
9974556.93755391
 72
4
  0
LINE
  8
TEXTO_TP_PROJ
 10
997984.501760478
 20
9974522.92308158
 11
997985.174636092
 21
9974521.28935354
 62
6
  0
LINE
  8
TEXTO_TP_PROJ
 10
997985.174636092
 20
9974521.28935354
 11
997987.242081898
 21
9974522.14087125
 62
6
  0
LINE
  8
TEXTO_TP_PROJ
 10
997987.242081898
 20
9974522.14087125
 11
997986.569206284
 21
9974523.7745993
 62
6
  0
LINE
  8
TEXTO_TP_PROJ
 10
997986.569206284
 20
9974523.7745993
 11
997984.501760478
 21
9974522.92308158
 62
6
  0
TEXT
  8
TEXTO_TP_PROJ
  1
 51m ABC 3 #1/0 AWG CAA
 50
292.393678059126
 40
1
 62
6
 10
0.0
 20
0.0
 11
997985.870907632
 21
9974522.53155892
 72
4
  0
LINE
  8
TEXTO_TP_PROJ
 10
998003.585566503
 20
9974482.6703706
 11
998004.457777404
 21
9974481.13379093
 62
6
  0
LINE
  8
TEXTO_TP_PROJ
 10
998004.457777404
 20
9974481.13379093
 11
998006.402283022
 21
9974482.23756287
 62
6
  0
LINE
  8
TEXTO_TP_PROJ
 10
998006.402283022
 20
9974482.23756287
 11
998005.530072121
 21
9974483.77414253
 62
6
  0
LINE
  8
TEXTO_TP_PROJ
 10
998005.530072121
 20
9974483.77414253
 11
998003.585566503
 21
9974482.6703706
 62
6
  0
TEXT
  8
TEXTO_TP_PROJ
  1
 39m ABC 3 #1/0 AWG CAA
 50
299.589441516287
 40
1
 62
6
 10
0.0
 20
0.0
 11
998004.992971484
 21
9974482.45342556
 72
4
  0
LINE
  8
TEXTO_TP_PROJ
 10
998021.018601542
 20
9974446.17230157
 11
998021.663627733
 21
9974444.52737904
 62
6
  0
LINE
  8
TEXTO_TP_PROJ
 10
998021.663627733
 20
9974444.52737904
 11
998023.745240057
 21
9974445.34365395
 62
6
  0
LINE
  8
TEXTO_TP_PROJ
 10
998023.745240057
 20
9974445.34365395
 11
998023.100213865
 21
9974446.98857648
 62
6
  0
LINE
  8
TEXTO_TP_PROJ
 10
998023.100213865
 20
9974446.98857648
 11
998021.018601542
 21
9974446.17230157
 62
6
  0
TEXT
  8
TEXTO_TP_PROJ
  1
 42m ABC 3 #1/0 AWG CAA
 50
291.420312324066
 40
1
 62
6
 10
0.0
 20
0.0
 11
998022.380900297
 21
9974445.75757753
 72
4
  0
LINE
  8
TEXTO_TP_PROJ
 10
997670.307405261
 20
9974324.95339527
 11
997671.865021716
 21
9974324.11933299
 62
6
  0
LINE
  8
TEXTO_TP_PROJ
 10
997671.865021716
 20
9974324.11933299
 11
997672.920502987
 21
9974326.09046816
 62
6
  0
LINE
  8
TEXTO_TP_PROJ
 10
997672.920502987
 20
9974326.09046816
 11
997671.362886532
 21
9974326.92453044
 62
6
  0
LINE
  8
TEXTO_TP_PROJ
 10
997671.362886532
 20
9974326.92453044
 11
997670.307405261
 21
9974324.95339527
 62
6
  0
TEXT
  8
TEXTO_TP_PROJ
  1
 78m ABC 3 #1/0 AWG CAA
 50
331.841918837401
 40
1
 62
6
 10
0.0
 20
0.0
 11
997671.613436711
 21
9974325.52096534
 72
4
  0
LINE
  8
TEXTO_TP_PROJ
 10
997726.208417492
 20
9974293.27618125
 11
997727.710851412
 21
9974292.34638491
 62
6
  0
LINE
  8
TEXTO_TP_PROJ
 10
997727.710851412
 20
9974292.34638491
 11
997728.887482398
 21
9974294.24768818
 62
6
  0
LINE
  8
TEXTO_TP_PROJ
 10
997728.887482398
 20
9974294.24768818
 11
997727.385048478
 21
9974295.17748452
 62
6
  0
LINE
  8
TEXTO_TP_PROJ
 10
997727.385048478
 20
9974295.17748452
 11
997726.208417492
 21
9974293.27618125
 62
6
  0
TEXT
  8
TEXTO_TP_PROJ
  1
 51m ABC 3 #1/0 AWG CAA
 50
328.257970990942
 40
1
 62
6
 10
0.0
 20
0.0
 11
997727.547373137
 21
9974293.76100257
 72
4
  0
LINE
  8
TEXTO_TP_PROJ
 10
997774.19697002
 20
9974259.84491974
 11
997775.600180738
 21
9974258.77122119
 62
6
  0
LINE
  8
TEXTO_TP_PROJ
 10
997775.600180738
 20
9974258.77122119
 11
997776.958917458
 21
9974260.54696022
 62
6
  0
LINE
  8
TEXTO_TP_PROJ
 10
997776.958917458
 20
9974260.54696022
 11
997775.55570674
 21
9974261.62065878
 62
6
  0
LINE
  8
TEXTO_TP_PROJ
 10
997775.55570674
 20
9974261.62065878
 11
997774.19697002
 21
9974259.84491974
 62
6
  0
TEXT
  8
TEXTO_TP_PROJ
  1
 66m ABC 3 #1/0 AWG CAA
 50
322.587283175153
 40
1
 62
6
 10
0.0
 20
0.0
 11
997775.57727765
 21
9974260.19506939
 72
4
  0
LINE
  8
TEXTO_TP_PROJ
 10
997611.281397496
 20
9974356.79511296
 11
997612.771986558
 21
9974355.84644381
 62
6
  0
LINE
  8
TEXTO_TP_PROJ
 10
997612.771986558
 20
9974355.84644381
 11
997613.972500755
 21
9974357.73275774
 62
6
  0
LINE
  8
TEXTO_TP_PROJ
 10
997613.972500755
 20
9974357.73275774
 11
997612.481911693
 21
9974358.6814269
 62
6
  0
LINE
  8
TEXTO_TP_PROJ
 10
997612.481911693
 20
9974358.6814269
 11
997611.281397496
 21
9974356.79511296
 62
6
  0
TEXT
  8
TEXTO_TP_PROJ
  1
 58m ABC 3 #1/0 AWG CAA
 50
327.535390372086
 40
1
 62
6
 10
0.0
 20
0.0
 11
997612.626360608
 21
9974357.26301055
 72
4
  0
LINE
  8
TEXTO_TP_PROJ
 10
998015.810458801
 20
9974416.6994313
 11
998017.13106916
 21
9974417.87323589
 62
6
  0
LINE
  8
TEXTO_TP_PROJ
 10
998017.13106916
 20
9974417.87323589
 11
998015.645637685
 21
9974419.54443543
 62
6
  0
LINE
  8
TEXTO_TP_PROJ
 10
998015.645637685
 20
9974419.54443543
 11
998014.325027326
 21
9974418.37063085
 62
6
  0
LINE
  8
TEXTO_TP_PROJ
 10
998014.325027326
 20
9974418.37063085
 11
998015.810458801
 21
9974416.6994313
 62
6
  0
TEXT
  8
TEXTO_TP_PROJ
  1
 28m ABC 3 #1/0 AWG CAA
 50
41.6330392905746
 40
1
 62
6
 10
0.0
 20
0.0
 11
998015.728776516
 21
9974418.12111408
 72
4
  0
LINE
  8
TEXTO_TP_PROJ
 10
997977.737488769
 20
9974386.5648188
 11
997979.145076776
 21
9974387.63277241
 62
6
  0
LINE
  8
TEXTO_TP_PROJ
 10
997979.145076776
 20
9974387.63277241
 11
997977.793597101
 21
9974389.41404086
 62
6
  0
LINE
  8
TEXTO_TP_PROJ
 10
997977.793597101
 20
9974389.41404086
 11
997976.386009094
 21
9974388.34608724
 62
6
  0
LINE
  8
TEXTO_TP_PROJ
 10
997976.386009094
 20
9974388.34608724
 11
997977.737488769
 21
9974386.5648188
 62
6
  0
TEXT
  8
TEXTO_TP_PROJ
  1
 70m ABC 3 #1/0 AWG CAA
 50
37.1891160345968
 40
1
 62
6
 10
0.0
 20
0.0
 11
997977.76620554
 21
9974387.98855658
 72
4
  0
LINE
  8
TEXTO_TP_PROJ
 10
997870.261231659
 20
9974299.90151306
 11
997871.546347095
 21
9974301.11407532
 62
6
  0
LINE
  8
TEXTO_TP_PROJ
 10
997871.546347095
 20
9974301.11407532
 11
997870.011868747
 21
9974302.7403566
 62
6
  0
LINE
  8
TEXTO_TP_PROJ
 10
997870.011868747
 20
9974302.7403566
 11
997868.726753312
 21
9974301.52779434
 62
6
  0
LINE
  8
TEXTO_TP_PROJ
 10
997868.726753312
 20
9974301.52779434
 11
997870.261231659
 21
9974299.90151306
 62
6
  0
TEXT
  8
TEXTO_TP_PROJ
  1
 48m ABC 3 #1/0 AWG CAA
 50
43.3374036639708
 40
1
 62
6
 10
0.0
 20
0.0
 11
997870.137302521
 21
9974301.32013757
 72
4
  0
LINE
  8
TEXTO_PG_NUMERO_RETI
 10
997815.999991789
 20
9974465.17589074
 11
997817.766869809
 21
9974462.93995367
 62
7
  0
LINE
  8
TEXTO_PG_NUMERO_RETI
 10
997816.000000002
 20
9974462.93995367
 11
997817.766861596
 21
9974465.17589074
 62
7
  0
TEXT
  8
TEXTO_PG_NUMERO_RETI
  1
 575655
 50
0
 40
1
 62
7
 10
0.0
 20
0.0
 11
997819.675605627
 21
9974464.05792221
 72
4
  0
LINE
  8
TEXTO_PG_NUMERO_RETI
 10
997928.439991789
 20
9974543.89589074
 11
997930.206869809
 21
9974541.65995367
 62
7
  0
LINE
  8
TEXTO_PG_NUMERO_RETI
 10
997928.440000002
 20
9974541.65995367
 11
997930.206861596
 21
9974543.89589074
 62
7
  0
TEXT
  8
TEXTO_PG_NUMERO_RETI
  1
 575654
 50
0
 40
1
 62
7
 10
0.0
 20
0.0
 11
997932.115605627
 21
9974542.77792221
 72
4
  0
LINE
  8
TEXTO_PG_NUMERO_RETI
 10
997686.649991789
 20
9974373.34589074
 11
997688.416869809
 21
9974371.10995367
 62
7
  0
LINE
  8
TEXTO_PG_NUMERO_RETI
 10
997686.650000002
 20
9974371.10995367
 11
997688.416861596
 21
9974373.34589074
 62
7
  0
TEXT
  8
TEXTO_PG_NUMERO_RETI
  1
 575656
 50
0
 40
1
 62
7
 10
0.0
 20
0.0
 11
997690.325605627
 21
9974372.22792221
 72
4
  0
LINE
  8
TEXTO_PG_NUMERO_PROJ
 10
997978.038000002
 20
9974576.49895367
 11
997979.804869809
 21
9974576.49895367
 62
6
  0
LINE
  8
TEXTO_PG_NUMERO_PROJ
 10
997979.804869809
 20
9974576.49895367
 11
997979.804861596
 21
9974578.73489074
 62
6
  0
LINE
  8
TEXTO_PG_NUMERO_PROJ
 10
997979.804861596
 20
9974578.73489074
 11
997978.037991789
 21
9974578.73489074
 62
6
  0
LINE
  8
TEXTO_PG_NUMERO_PROJ
 10
997978.037991789
 20
9974578.73489074
 11
997978.038000002
 21
9974576.49895367
 62
6
  0
TEXT
  8
TEXTO_PG_NUMERO_PROJ
  1
 575653
 50
0
 40
1
 62
6
 10
0.0
 20
0.0
 11
997981.713605627
 21
9974577.61692221
 72
4
  0
LINE
  8
TEXTO_PG_NUMERO_PROJ
 10
997947.302000002
 20
9974538.70395367
 11
997949.068869809
 21
9974538.70395367
 62
6
  0
LINE
  8
TEXTO_PG_NUMERO_PROJ
 10
997949.068869809
 20
9974538.70395367
 11
997949.068861596
 21
9974540.93989074
 62
6
  0
LINE
  8
TEXTO_PG_NUMERO_PROJ
 10
997949.068861596
 20
9974540.93989074
 11
997947.301991789
 21
9974540.93989074
 62
6
  0
LINE
  8
TEXTO_PG_NUMERO_PROJ
 10
997947.301991789
 20
9974540.93989074
 11
997947.302000002
 21
9974538.70395367
 62
6
  0
TEXT
  8
TEXTO_PG_NUMERO_PROJ
  1
 575766
 50
0
 40
1
 62
6
 10
0.0
 20
0.0
 11
997950.977605627
 21
9974539.82192221
 72
4
  0
LINE
  8
TEXTO_PG_NUMERO_PROJ
 10
997999.710000002
 20
9974498.14995367
 11
998001.476869809
 21
9974498.14995367
 62
6
  0
LINE
  8
TEXTO_PG_NUMERO_PROJ
 10
998001.476869809
 20
9974498.14995367
 11
998001.476861596
 21
9974500.38589074
 62
6
  0
LINE
  8
TEXTO_PG_NUMERO_PROJ
 10
998001.476861596
 20
9974500.38589074
 11
997999.709991789
 21
9974500.38589074
 62
6
  0
LINE
  8
TEXTO_PG_NUMERO_PROJ
 10
997999.709991789
 20
9974500.38589074
 11
997999.710000002
 21
9974498.14995367
 62
6
  0
TEXT
  8
TEXTO_PG_NUMERO_PROJ
  1
 01363815
 50
0
 40
1
 62
6
 10
0.0
 20
0.0
 11
998004.502475434
 21
9974499.26792221
 72
4
  0
LINE
  8
TEXTO_PG_NUMERO_PROJ
 10
998018.930000002
 20
9974464.28995367
 11
998020.696869809
 21
9974464.28995367
 62
6
  0
LINE
  8
TEXTO_PG_NUMERO_PROJ
 10
998020.696869809
 20
9974464.28995367
 11
998020.696861596
 21
9974466.52589074
 62
6
  0
LINE
  8
TEXTO_PG_NUMERO_PROJ
 10
998020.696861596
 20
9974466.52589074
 11
998018.929991789
 21
9974466.52589074
 62
6
  0
LINE
  8
TEXTO_PG_NUMERO_PROJ
 10
998018.929991789
 20
9974466.52589074
 11
998018.930000002
 21
9974464.28995367
 62
6
  0
TEXT
  8
TEXTO_PG_NUMERO_PROJ
  1
 01363814
 50
0
 40
1
 62
6
 10
0.0
 20
0.0
 11
998023.722475435
 21
9974465.40792221
 72
4
  0
LINE
  8
TEXTO_PG_NUMERO_PROJ
 10
998034.180000002
 20
9974425.39995367
 11
998035.946869809
 21
9974425.39995367
 62
6
  0
LINE
  8
TEXTO_PG_NUMERO_PROJ
 10
998035.946869809
 20
9974425.39995367
 11
998035.946861596
 21
9974427.63589074
 62
6
  0
LINE
  8
TEXTO_PG_NUMERO_PROJ
 10
998035.946861596
 20
9974427.63589074
 11
998034.179991789
 21
9974427.63589074
 62
6
  0
LINE
  8
TEXTO_PG_NUMERO_PROJ
 10
998034.179991789
 20
9974427.63589074
 11
998034.180000002
 21
9974425.39995367
 62
6
  0
TEXT
  8
TEXTO_PG_NUMERO_PROJ
  1
 575761
 50
0
 40
1
 62
6
 10
0.0
 20
0.0
 11
998037.855605627
 21
9974426.51792221
 72
4
  0
LINE
  8
TEXTO_PG_NUMERO_PROJ
 10
997957.955000002
 20
9974364.88895367
 11
997959.721869809
 21
9974364.88895367
 62
6
  0
LINE
  8
TEXTO_PG_NUMERO_PROJ
 10
997959.721869809
 20
9974364.88895367
 11
997959.721861596
 21
9974367.12489074
 62
6
  0
LINE
  8
TEXTO_PG_NUMERO_PROJ
 10
997959.721861596
 20
9974367.12489074
 11
997957.954991789
 21
9974367.12489074
 62
6
  0
LINE
  8
TEXTO_PG_NUMERO_PROJ
 10
997957.954991789
 20
9974367.12489074
 11
997957.955000002
 21
9974364.88895367
 62
6
  0
TEXT
  8
TEXTO_PG_NUMERO_PROJ
  1
 00000002
 50
0
 40
1
 62
6
 10
0.0
 20
0.0
 11
997962.747475434
 21
9974366.00692221
 72
4
  0
LINE
  8
TEXTO_PG_NUMERO_PROJ
 10
998013.598000002
 20
9974407.10595367
 11
998015.364869809
 21
9974407.10595367
 62
6
  0
LINE
  8
TEXTO_PG_NUMERO_PROJ
 10
998015.364869809
 20
9974407.10595367
 11
998015.364861596
 21
9974409.34189074
 62
6
  0
LINE
  8
TEXTO_PG_NUMERO_PROJ
 10
998015.364861596
 20
9974409.34189074
 11
998013.597991789
 21
9974409.34189074
 62
6
  0
LINE
  8
TEXTO_PG_NUMERO_PROJ
 10
998013.597991789
 20
9974409.34189074
 11
998013.598000002
 21
9974407.10595367
 62
6
  0
TEXT
  8
TEXTO_PG_NUMERO_PROJ
  1
 00000001
 50
0
 40
1
 62
6
 10
0.0
 20
0.0
 11
998018.390475434
 21
9974408.22392221
 72
4
  0
LINE
  8
TEXTO_PG_NUMERO_PROJ
 10
997897.908000002
 20
9974310.07295367
 11
997899.674869809
 21
9974310.07295367
 62
6
  0
LINE
  8
TEXTO_PG_NUMERO_PROJ
 10
997899.674869809
 20
9974310.07295367
 11
997899.674861596
 21
9974312.30889074
 62
6
  0
LINE
  8
TEXTO_PG_NUMERO_PROJ
 10
997899.674861596
 20
9974312.30889074
 11
997897.907991789
 21
9974312.30889074
 62
6
  0
LINE
  8
TEXTO_PG_NUMERO_PROJ
 10
997897.907991789
 20
9974312.30889074
 11
997897.908000002
 21
9974310.07295367
 62
6
  0
TEXT
  8
TEXTO_PG_NUMERO_PROJ
  1
 00000005
 50
0
 40
1
 62
6
 10
0.0
 20
0.0
 11
997902.700475435
 21
9974311.19092221
 72
4
  0
LINE
  8
TEXTO_PG_NUMERO_PROJ
 10
997927.820000002
 20
9974334.71995367
 11
997929.586869809
 21
9974334.71995367
 62
6
  0
LINE
  8
TEXTO_PG_NUMERO_PROJ
 10
997929.586869809
 20
9974334.71995367
 11
997929.586861596
 21
9974336.95589074
 62
6
  0
LINE
  8
TEXTO_PG_NUMERO_PROJ
 10
997929.586861596
 20
9974336.95589074
 11
997927.819991789
 21
9974336.95589074
 62
6
  0
LINE
  8
TEXTO_PG_NUMERO_PROJ
 10
997927.819991789
 20
9974336.95589074
 11
997927.820000002
 21
9974334.71995367
 62
6
  0
TEXT
  8
TEXTO_PG_NUMERO_PROJ
  1
 575673
 50
0
 40
1
 62
6
 10
0.0
 20
0.0
 11
997931.495605627
 21
9974335.83792221
 72
4
  0
LINE
  8
TEXTO_PG_NUMERO_PROJ
 10
997861.180000002
 20
9974283.29995367
 11
997862.946869809
 21
9974283.29995367
 62
6
  0
LINE
  8
TEXTO_PG_NUMERO_PROJ
 10
997862.946869809
 20
9974283.29995367
 11
997862.946861596
 21
9974285.53589074
 62
6
  0
LINE
  8
TEXTO_PG_NUMERO_PROJ
 10
997862.946861596
 20
9974285.53589074
 11
997861.179991789
 21
9974285.53589074
 62
6
  0
LINE
  8
TEXTO_PG_NUMERO_PROJ
 10
997861.179991789
 20
9974285.53589074
 11
997861.180000002
 21
9974283.29995367
 62
6
  0
TEXT
  8
TEXTO_PG_NUMERO_PROJ
  1
 575672
 50
0
 40
1
 62
6
 10
0.0
 20
0.0
 11
997864.855605627
 21
9974284.41792221
 72
4
  0
LINE
  8
TEXTO_PG_NUMERO_PROJ
 10
997775.632000002
 20
9974229.10095367
 11
997777.398869809
 21
9974229.10095367
 62
6
  0
LINE
  8
TEXTO_PG_NUMERO_PROJ
 10
997777.398869809
 20
9974229.10095367
 11
997777.398861596
 21
9974231.33689074
 62
6
  0
LINE
  8
TEXTO_PG_NUMERO_PROJ
 10
997777.398861596
 20
9974231.33689074
 11
997775.631991789
 21
9974231.33689074
 62
6
  0
LINE
  8
TEXTO_PG_NUMERO_PROJ
 10
997775.631991789
 20
9974231.33689074
 11
997775.632000002
 21
9974229.10095367
 62
6
  0
TEXT
  8
TEXTO_PG_NUMERO_PROJ
  1
 575671
 50
0
 40
1
 62
6
 10
0.0
 20
0.0
 11
997779.307605627
 21
9974230.21892221
 72
4
  0
LINE
  8
TEXTO_PG_NUMERO_PROJ
 10
997683.171000002
 20
9974297.44595367
 11
997684.937869809
 21
9974297.44595367
 62
6
  0
LINE
  8
TEXTO_PG_NUMERO_PROJ
 10
997684.937869809
 20
9974297.44595367
 11
997684.937861596
 21
9974299.68189074
 62
6
  0
LINE
  8
TEXTO_PG_NUMERO_PROJ
 10
997684.937861596
 20
9974299.68189074
 11
997683.170991789
 21
9974299.68189074
 62
6
  0
LINE
  8
TEXTO_PG_NUMERO_PROJ
 10
997683.170991789
 20
9974299.68189074
 11
997683.171000002
 21
9974297.44595367
 62
6
  0
TEXT
  8
TEXTO_PG_NUMERO_PROJ
  1
 01363847
 50
0
 40
1
 62
6
 10
0.0
 20
0.0
 11
997687.963475434
 21
9974298.56392221
 72
4
  0
LINE
  8
TEXTO_PG_NUMERO_PROJ
 10
997730.800000002
 20
9974267.52695367
 11
997732.566869809
 21
9974267.52695367
 62
6
  0
LINE
  8
TEXTO_PG_NUMERO_PROJ
 10
997732.566869809
 20
9974267.52695367
 11
997732.566861596
 21
9974269.76289074
 62
6
  0
LINE
  8
TEXTO_PG_NUMERO_PROJ
 10
997732.566861596
 20
9974269.76289074
 11
997730.799991789
 21
9974269.76289074
 62
6
  0
LINE
  8
TEXTO_PG_NUMERO_PROJ
 10
997730.799991789
 20
9974269.76289074
 11
997730.800000002
 21
9974267.52695367
 62
6
  0
TEXT
  8
TEXTO_PG_NUMERO_PROJ
  1
 01363848
 50
0
 40
1
 62
6
 10
0.0
 20
0.0
 11
997735.592475435
 21
9974268.64492221
 72
4
  0
LINE
  8
TEXTO_PG_NUMERO_PROJ
 10
997632.942000002
 20
9974323.43295367
 11
997634.708869809
 21
9974323.43295367
 62
6
  0
LINE
  8
TEXTO_PG_NUMERO_PROJ
 10
997634.708869809
 20
9974323.43295367
 11
997634.708861596
 21
9974325.66889074
 62
6
  0
LINE
  8
TEXTO_PG_NUMERO_PROJ
 10
997634.708861596
 20
9974325.66889074
 11
997632.941991789
 21
9974325.66889074
 62
6
  0
LINE
  8
TEXTO_PG_NUMERO_PROJ
 10
997632.941991789
 20
9974325.66889074
 11
997632.942000002
 21
9974323.43295367
 62
6
  0
TEXT
  8
TEXTO_PG_NUMERO_PROJ
  1
 575657
 50
0
 40
1
 62
6
 10
0.0
 20
0.0
 11
997636.617605627
 21
9974324.55092221
 72
4
  0
LINE
  8
TEXTO_PG_NUMERO_PROJ
 10
997598.838000002
 20
9974379.21795367
 11
997600.604869809
 21
9974379.21795367
 62
6
  0
LINE
  8
TEXTO_PG_NUMERO_PROJ
 10
997600.604869809
 20
9974379.21795367
 11
997600.604861596
 21
9974381.45389074
 62
6
  0
LINE
  8
TEXTO_PG_NUMERO_PROJ
 10
997600.604861596
 20
9974381.45389074
 11
997598.837991789
 21
9974381.45389074
 62
6
  0
LINE
  8
TEXTO_PG_NUMERO_PROJ
 10
997598.837991789
 20
9974381.45389074
 11
997598.838000002
 21
9974379.21795367
 62
6
  0
TEXT
  8
TEXTO_PG_NUMERO_PROJ
  1
 00000006
 50
0
 40
1
 62
6
 10
0.0
 20
0.0
 11
997603.630475434
 21
9974380.33592221
 72
4
  0
LINE
  8
TEXTO_PG_NUMERO_PROJ
 10
997561.817000002
 20
9974360.01795367
 11
997563.583869809
 21
9974360.01795367
 62
6
  0
LINE
  8
TEXTO_PG_NUMERO_PROJ
 10
997563.583869809
 20
9974360.01795367
 11
997563.583861596
 21
9974362.25389074
 62
6
  0
LINE
  8
TEXTO_PG_NUMERO_PROJ
 10
997563.583861596
 20
9974362.25389074
 11
997561.816991789
 21
9974362.25389074
 62
6
  0
LINE
  8
TEXTO_PG_NUMERO_PROJ
 10
997561.816991789
 20
9974362.25389074
 11
997561.817000002
 21
9974360.01795367
 62
6
  0
TEXT
  8
TEXTO_PG_NUMERO_PROJ
  1
 575661
 50
0
 40
1
 62
6
 10
0.0
 20
0.0
 11
997565.492605627
 21
9974361.13592221
 72
4
  0
LINE
  8
TEXTO_PG_RETI
 10
998028.697991789
 20
9974463.84589074
 11
998030.464869809
 21
9974461.60995367
 62
7
  0
LINE
  8
TEXTO_PG_RETI
 10
998028.698000002
 20
9974461.60995367
 11
998030.464861596
 21
9974463.84589074
 62
7
  0
TEXT
  8
TEXTO_PG_RETI
  1
 PDC100/8
 50
0
 40
1
 62
7
 10
0.0
 20
0.0
 11
998033.655673188
 21
9974462.72792221
 72
4
  0
LINE
  8
TEXTO_PG_PROJ
 10
998034.180000002
 20
9974422.89995367
 11
998035.946869809
 21
9974422.89995367
 62
6
  0
LINE
  8
TEXTO_PG_PROJ
 10
998035.946869809
 20
9974422.89995367
 11
998035.946861596
 21
9974425.13589074
 62
6
  0
LINE
  8
TEXTO_PG_PROJ
 10
998035.946861596
 20
9974425.13589074
 11
998034.179991789
 21
9974425.13589074
 62
6
  0
LINE
  8
TEXTO_PG_PROJ
 10
998034.179991789
 20
9974425.13589074
 11
998034.180000002
 21
9974422.89995367
 62
6
  0
TEXT
  8
TEXTO_PG_PROJ
  1
 DT 11/1000
 50
0
 40
1
 62
6
 10
0.0
 20
0.0
 11
998039.752284695
 21
9974424.01792221
 72
4
  0
LINE
  8
TEXTO_PG_RETI
 10
998047.779991789
 20
9974425.13589074
 11
998049.546869809
 21
9974422.89995367
 62
7
  0
LINE
  8
TEXTO_PG_RETI
 10
998047.780000002
 20
9974422.89995367
 11
998049.546861596
 21
9974425.13589074
 62
7
  0
TEXT
  8
TEXTO_PG_RETI
  1
 PDC300/8
 50
0
 40
1
 62
7
 10
0.0
 20
0.0
 11
998052.737673188
 21
9974424.01792221
 72
4
  0
LINE
  8
TEXTO_PG_PROJ
 10
997957.955000002
 20
9974362.38895367
 11
997959.721869809
 21
9974362.38895367
 62
6
  0
LINE
  8
TEXTO_PG_PROJ
 10
997959.721869809
 20
9974362.38895367
 11
997959.721861596
 21
9974364.62489074
 62
6
  0
LINE
  8
TEXTO_PG_PROJ
 10
997959.721861596
 20
9974364.62489074
 11
997957.954991789
 21
9974364.62489074
 62
6
  0
LINE
  8
TEXTO_PG_PROJ
 10
997957.954991789
 20
9974364.62489074
 11
997957.955000002
 21
9974362.38895367
 62
6
  0
TEXT
  8
TEXTO_PG_PROJ
  1
 DT 11/300
 50
0
 40
1
 62
6
 10
0.0
 20
0.0
 11
997962.968849946
 21
9974363.50692221
 72
4
  0
LINE
  8
TEXTO_PG_PROJ
 10
998013.599000002
 20
9974404.60595367
 11
998015.365869809
 21
9974404.60595367
 62
6
  0
LINE
  8
TEXTO_PG_PROJ
 10
998015.365869809
 20
9974404.60595367
 11
998015.365861596
 21
9974406.84189074
 62
6
  0
LINE
  8
TEXTO_PG_PROJ
 10
998015.365861596
 20
9974406.84189074
 11
998013.598991789
 21
9974406.84189074
 62
6
  0
LINE
  8
TEXTO_PG_PROJ
 10
998013.598991789
 20
9974406.84189074
 11
998013.599000002
 21
9974404.60595367
 62
6
  0
TEXT
  8
TEXTO_PG_PROJ
  1
 DT 11/300
 50
0
 40
1
 62
6
 10
0.0
 20
0.0
 11
998018.612849946
 21
9974405.72392221
 72
4
  0
LINE
  8
TEXTO_PG_PROJ
 10
997897.908000002
 20
9974307.57295367
 11
997899.674869809
 21
9974307.57295367
 62
6
  0
LINE
  8
TEXTO_PG_PROJ
 10
997899.674869809
 20
9974307.57295367
 11
997899.674861596
 21
9974309.80889074
 62
6
  0
LINE
  8
TEXTO_PG_PROJ
 10
997899.674861596
 20
9974309.80889074
 11
997897.907991789
 21
9974309.80889074
 62
6
  0
LINE
  8
TEXTO_PG_PROJ
 10
997897.907991789
 20
9974309.80889074
 11
997897.908000002
 21
9974307.57295367
 62
6
  0
TEXT
  8
TEXTO_PG_PROJ
  1
 DT 11/300
 50
0
 40
1
 62
6
 10
0.0
 20
0.0
 11
997902.921849946
 21
9974308.69092221
 72
4
  0
LINE
  8
TEXTO_PG_PROJ
 10
997927.820000002
 20
9974332.21995367
 11
997929.586869809
 21
9974332.21995367
 62
6
  0
LINE
  8
TEXTO_PG_PROJ
 10
997929.586869809
 20
9974332.21995367
 11
997929.586861596
 21
9974334.45589074
 62
6
  0
LINE
  8
TEXTO_PG_PROJ
 10
997929.586861596
 20
9974334.45589074
 11
997927.819991789
 21
9974334.45589074
 62
6
  0
LINE
  8
TEXTO_PG_PROJ
 10
997927.819991789
 20
9974334.45589074
 11
997927.820000002
 21
9974332.21995367
 62
6
  0
TEXT
  8
TEXTO_PG_PROJ
  1
 DT 11/300
 50
0
 40
1
 62
6
 10
0.0
 20
0.0
 11
997932.833849946
 21
9974333.33792221
 72
4
  0
LINE
  8
TEXTO_PG_RETI
 10
997940.019991789
 20
9974334.45589074
 11
997941.786869809
 21
9974332.21995367
 62
7
  0
LINE
  8
TEXTO_PG_RETI
 10
997940.020000002
 20
9974332.21995367
 11
997941.786861596
 21
9974334.45589074
 62
7
  0
TEXT
  8
TEXTO_PG_RETI
  1
 PDC300/8
 50
0
 40
1
 62
7
 10
0.0
 20
0.0
 11
997944.977673188
 21
9974333.33792221
 72
4
  0
LINE
  8
TEXTO_PG_PROJ
 10
997861.180000002
 20
9974280.79995367
 11
997862.946869809
 21
9974280.79995367
 62
6
  0
LINE
  8
TEXTO_PG_PROJ
 10
997862.946869809
 20
9974280.79995367
 11
997862.946861596
 21
9974283.03589074
 62
6
  0
LINE
  8
TEXTO_PG_PROJ
 10
997862.946861596
 20
9974283.03589074
 11
997861.179991789
 21
9974283.03589074
 62
6
  0
LINE
  8
TEXTO_PG_PROJ
 10
997861.179991789
 20
9974283.03589074
 11
997861.180000002
 21
9974280.79995367
 62
6
  0
TEXT
  8
TEXTO_PG_PROJ
  1
 DT 11/300
 50
0
 40
1
 62
6
 10
0.0
 20
0.0
 11
997866.193849946
 21
9974281.91792221
 72
4
  0
LINE
  8
TEXTO_PG_RETI
 10
997873.379991789
 20
9974283.03589074
 11
997875.146869809
 21
9974280.79995367
 62
7
  0
LINE
  8
TEXTO_PG_RETI
 10
997873.380000002
 20
9974280.79995367
 11
997875.146861596
 21
9974283.03589074
 62
7
  0
TEXT
  8
TEXTO_PG_RETI
  1
 PDC100/8
 50
0
 40
1
 62
7
 10
0.0
 20
0.0
 11
997878.337673188
 21
9974281.91792221
 72
4
  0
LINE
  8
TEXTO_PG_PROJ
 10
997775.632000002
 20
9974226.60095367
 11
997777.398869809
 21
9974226.60095367
 62
6
  0
LINE
  8
TEXTO_PG_PROJ
 10
997777.398869809
 20
9974226.60095367
 11
997777.398861596
 21
9974228.83689074
 62
6
  0
LINE
  8
TEXTO_PG_PROJ
 10
997777.398861596
 20
9974228.83689074
 11
997775.631991789
 21
9974228.83689074
 62
6
  0
LINE
  8
TEXTO_PG_PROJ
 10
997775.631991789
 20
9974228.83689074
 11
997775.632000002
 21
9974226.60095367
 62
6
  0
TEXT
  8
TEXTO_PG_PROJ
  1
 DT 11/600
 50
0
 40
1
 62
6
 10
0.0
 20
0.0
 11
997780.645849946
 21
9974227.71892221
 72
4
  0
LINE
  8
TEXTO_PG_RETI
 10
997787.831991789
 20
9974228.83689074
 11
997789.598869809
 21
9974226.60095367
 62
7
  0
LINE
  8
TEXTO_PG_RETI
 10
997787.832000002
 20
9974226.60095367
 11
997789.598861596
 21
9974228.83689074
 62
7
  0
TEXT
  8
TEXTO_PG_RETI
  1
 DT 10/300
 50
0
 40
1
 62
7
 10
0.0
 20
0.0
 11
997792.845849946
 21
9974227.71892221
 72
4
  0
LINE
  8
TEXTO_PG_PROJ
 10
997683.171000002
 20
9974294.94595367
 11
997684.937869809
 21
9974294.94595367
 62
6
  0
LINE
  8
TEXTO_PG_PROJ
 10
997684.937869809
 20
9974294.94595367
 11
997684.937861596
 21
9974297.18189074
 62
6
  0
LINE
  8
TEXTO_PG_PROJ
 10
997684.937861596
 20
9974297.18189074
 11
997683.170991789
 21
9974297.18189074
 62
6
  0
LINE
  8
TEXTO_PG_PROJ
 10
997683.170991789
 20
9974297.18189074
 11
997683.171000002
 21
9974294.94595367
 62
6
  0
TEXT
  8
TEXTO_PG_PROJ
  1
 DT 11/300
 50
0
 40
1
 62
6
 10
0.0
 20
0.0
 11
997688.184849946
 21
9974296.06392221
 72
4
  0
LINE
  8
TEXTO_PG_RETI
 10
997695.370991789
 20
9974297.18189074
 11
997697.137869809
 21
9974294.94595367
 62
7
  0
LINE
  8
TEXTO_PG_RETI
 10
997695.371000002
 20
9974294.94595367
 11
997697.137861596
 21
9974297.18189074
 62
7
  0
TEXT
  8
TEXTO_PG_RETI
  1
 DT 10/150
 50
0
 40
1
 62
7
 10
0.0
 20
0.0
 11
997700.384849946
 21
9974296.06392221
 72
4
  0
LINE
  8
TEXTO_PG_PROJ
 10
997730.800000002
 20
9974265.02695367
 11
997732.566869809
 21
9974265.02695367
 62
6
  0
LINE
  8
TEXTO_PG_PROJ
 10
997732.566869809
 20
9974265.02695367
 11
997732.566861596
 21
9974267.26289074
 62
6
  0
LINE
  8
TEXTO_PG_PROJ
 10
997732.566861596
 20
9974267.26289074
 11
997730.799991789
 21
9974267.26289074
 62
6
  0
LINE
  8
TEXTO_PG_PROJ
 10
997730.799991789
 20
9974267.26289074
 11
997730.800000002
 21
9974265.02695367
 62
6
  0
TEXT
  8
TEXTO_PG_PROJ
  1
 DT 11/300
 50
0
 40
1
 62
6
 10
0.0
 20
0.0
 11
997735.813849946
 21
9974266.14492221
 72
4
  0
LINE
  8
TEXTO_PG_RETI
 10
997742.999991789
 20
9974267.26289074
 11
997744.766869809
 21
9974265.02695367
 62
7
  0
LINE
  8
TEXTO_PG_RETI
 10
997743.000000002
 20
9974265.02695367
 11
997744.766861596
 21
9974267.26289074
 62
7
  0
TEXT
  8
TEXTO_PG_RETI
  1
 DT 10/150
 50
0
 40
1
 62
7
 10
0.0
 20
0.0
 11
997748.013849946
 21
9974266.14492221
 72
4
  0
LINE
  8
TEXTO_PG_PROJ
 10
997632.942000002
 20
9974320.93295367
 11
997634.708869809
 21
9974320.93295367
 62
6
  0
LINE
  8
TEXTO_PG_PROJ
 10
997634.708869809
 20
9974320.93295367
 11
997634.708861596
 21
9974323.16889074
 62
6
  0
LINE
  8
TEXTO_PG_PROJ
 10
997634.708861596
 20
9974323.16889074
 11
997632.941991789
 21
9974323.16889074
 62
6
  0
LINE
  8
TEXTO_PG_PROJ
 10
997632.941991789
 20
9974323.16889074
 11
997632.942000002
 21
9974320.93295367
 62
6
  0
TEXT
  8
TEXTO_PG_PROJ
  1
 DT 11/600
 50
0
 40
1
 62
6
 10
0.0
 20
0.0
 11
997637.955849946
 21
9974322.05092221
 72
4
  0
LINE
  8
TEXTO_PG_RETI
 10
997645.141991789
 20
9974323.16889074
 11
997646.908869809
 21
9974320.93295367
 62
7
  0
LINE
  8
TEXTO_PG_RETI
 10
997645.142000002
 20
9974320.93295367
 11
997646.908861596
 21
9974323.16889074
 62
7
  0
TEXT
  8
TEXTO_PG_RETI
  1
 DT 10/300
 50
0
 40
1
 62
7
 10
0.0
 20
0.0
 11
997650.155849946
 21
9974322.05092221
 72
4
  0
LINE
  8
TEXTO_PG_PROJ
 10
997598.838000002
 20
9974376.71795367
 11
997600.604869809
 21
9974376.71795367
 62
6
  0
LINE
  8
TEXTO_PG_PROJ
 10
997600.604869809
 20
9974376.71795367
 11
997600.604861596
 21
9974378.95389074
 62
6
  0
LINE
  8
TEXTO_PG_PROJ
 10
997600.604861596
 20
9974378.95389074
 11
997598.837991789
 21
9974378.95389074
 62
6
  0
LINE
  8
TEXTO_PG_PROJ
 10
997598.837991789
 20
9974378.95389074
 11
997598.838000002
 21
9974376.71795367
 62
6
  0
TEXT
  8
TEXTO_PG_PROJ
  1
 DT 11/600
 50
0
 40
1
 62
6
 10
0.0
 20
0.0
 11
997603.851849946
 21
9974377.83592221
 72
4
  0
LINE
  8
TEXTO_PG_PROJ
 10
997561.817000002
 20
9974357.51795367
 11
997563.583869809
 21
9974357.51795367
 62
6
  0
LINE
  8
TEXTO_PG_PROJ
 10
997563.583869809
 20
9974357.51795367
 11
997563.583861596
 21
9974359.75389074
 62
6
  0
LINE
  8
TEXTO_PG_PROJ
 10
997563.583861596
 20
9974359.75389074
 11
997561.816991789
 21
9974359.75389074
 62
6
  0
LINE
  8
TEXTO_PG_PROJ
 10
997561.816991789
 20
9974359.75389074
 11
997561.817000002
 21
9974357.51795367
 62
6
  0
TEXT
  8
TEXTO_PG_PROJ
  1
 DT 11/600
 50
0
 40
1
 62
6
 10
0.0
 20
0.0
 11
997566.830849946
 21
9974358.63592221
 72
4
  0
LINE
  8
TEXTO_PG_RETI
 10
997571.557991789
 20
9974359.66189074
 11
997573.324869809
 21
9974357.42595367
 62
7
  0
LINE
  8
TEXTO_PG_RETI
 10
997571.558000002
 20
9974357.42595367
 11
997573.324861596
 21
9974359.66189074
 62
7
  0
TEXT
  8
TEXTO_PG_RETI
  1
 PDC100/8
 50
0
 40
1
 62
7
 10
0.0
 20
0.0
 11
997576.515673188
 21
9974358.54392221
 72
4
  0
LINE
  8
TEXTO_PG_RETI
 10
997815.999991789
 20
9974462.67589074
 11
997817.766869809
 21
9974460.43995367
 62
7
  0
LINE
  8
TEXTO_PG_RETI
 10
997816.000000002
 20
9974460.43995367
 11
997817.766861596
 21
9974462.67589074
 62
7
  0
TEXT
  8
TEXTO_PG_RETI
  1
 DT 9/150
 50
0
 40
1
 62
7
 10
0.0
 20
0.0
 11
997820.455414888
 21
9974461.55792221
 72
4
  0
LINE
  8
TEXTO_PG_RETI
 10
997928.439991789
 20
9974541.39589074
 11
997930.206869809
 21
9974539.15995367
 62
7
  0
LINE
  8
TEXTO_PG_RETI
 10
997928.440000002
 20
9974539.15995367
 11
997930.206861596
 21
9974541.39589074
 62
7
  0
TEXT
  8
TEXTO_PG_RETI
  1
 DT 9/300
 50
0
 40
1
 62
7
 10
0.0
 20
0.0
 11
997932.895414887
 21
9974540.27792221
 72
4
  0
LINE
  8
TEXTO_PG_RETI
 10
997686.649991789
 20
9974370.84589074
 11
997688.416869809
 21
9974368.60995367
 62
7
  0
LINE
  8
TEXTO_PG_RETI
 10
997686.650000002
 20
9974368.60995367
 11
997688.416861596
 21
9974370.84589074
 62
7
  0
TEXT
  8
TEXTO_PG_RETI
  1
 DT 9/300
 50
0
 40
1
 62
7
 10
0.0
 20
0.0
 11
997691.105414888
 21
9974369.72792221
 72
4
  0
LINE
  8
TEXTO_PG_PROJ
 10
997978.038000002
 20
9974573.99895367
 11
997979.804869809
 21
9974573.99895367
 62
6
  0
LINE
  8
TEXTO_PG_PROJ
 10
997979.804869809
 20
9974573.99895367
 11
997979.804861596
 21
9974576.23489074
 62
6
  0
LINE
  8
TEXTO_PG_PROJ
 10
997979.804861596
 20
9974576.23489074
 11
997978.037991789
 21
9974576.23489074
 62
6
  0
LINE
  8
TEXTO_PG_PROJ
 10
997978.037991789
 20
9974576.23489074
 11
997978.038000002
 21
9974573.99895367
 62
6
  0
TEXT
  8
TEXTO_PG_PROJ
  1
 DT 11/600
 50
0
 40
1
 62
6
 10
0.0
 20
0.0
 11
997983.051849946
 21
9974575.11692221
 72
4
  0
LINE
  8
TEXTO_PG_RETI
 10
997988.412991789
 20
9974576.23489074
 11
997990.179869809
 21
9974573.99895367
 62
7
  0
LINE
  8
TEXTO_PG_RETI
 10
997988.413000002
 20
9974573.99895367
 11
997990.179861596
 21
9974576.23489074
 62
7
  0
TEXT
  8
TEXTO_PG_RETI
  1
 DT 9/150
 50
0
 40
1
 62
7
 10
0.0
 20
0.0
 11
997992.868414887
 21
9974575.11692221
 72
4
  0
LINE
  8
TEXTO_PG_PROJ
 10
997947.302000002
 20
9974536.20395367
 11
997949.068869809
 21
9974536.20395367
 62
6
  0
LINE
  8
TEXTO_PG_PROJ
 10
997949.068869809
 20
9974536.20395367
 11
997949.068861596
 21
9974538.43989074
 62
6
  0
LINE
  8
TEXTO_PG_PROJ
 10
997949.068861596
 20
9974538.43989074
 11
997947.301991789
 21
9974538.43989074
 62
6
  0
LINE
  8
TEXTO_PG_PROJ
 10
997947.301991789
 20
9974538.43989074
 11
997947.302000002
 21
9974536.20395367
 62
6
  0
TEXT
  8
TEXTO_PG_PROJ
  1
 DT 11/300
 50
0
 40
1
 62
6
 10
0.0
 20
0.0
 11
997952.315849946
 21
9974537.32192221
 72
4
  0
LINE
  8
TEXTO_PG_RETI
 10
997956.889991789
 20
9974538.61989074
 11
997958.656869809
 21
9974536.38395367
 62
7
  0
LINE
  8
TEXTO_PG_RETI
 10
997956.890000002
 20
9974536.38395367
 11
997958.656861596
 21
9974538.61989074
 62
7
  0
TEXT
  8
TEXTO_PG_RETI
  1
 PDC100/8
 50
0
 40
1
 62
7
 10
0.0
 20
0.0
 11
997961.847673188
 21
9974537.50192221
 72
4
  0
LINE
  8
TEXTO_PG_PROJ
 10
997999.710000002
 20
9974495.64995367
 11
998001.476869809
 21
9974495.64995367
 62
6
  0
LINE
  8
TEXTO_PG_PROJ
 10
998001.476869809
 20
9974495.64995367
 11
998001.476861596
 21
9974497.88589074
 62
6
  0
LINE
  8
TEXTO_PG_PROJ
 10
998001.476861596
 20
9974497.88589074
 11
997999.709991789
 21
9974497.88589074
 62
6
  0
LINE
  8
TEXTO_PG_PROJ
 10
997999.709991789
 20
9974497.88589074
 11
997999.710000002
 21
9974495.64995367
 62
6
  0
TEXT
  8
TEXTO_PG_PROJ
  1
 DT 11/300
 50
0
 40
1
 62
6
 10
0.0
 20
0.0
 11
998004.723849946
 21
9974496.76792221
 72
4
  0
LINE
  8
TEXTO_PG_RETI
 10
998009.387991789
 20
9974498.06589074
 11
998011.154869809
 21
9974495.82995367
 62
7
  0
LINE
  8
TEXTO_PG_RETI
 10
998009.388000002
 20
9974495.82995367
 11
998011.154861596
 21
9974498.06589074
 62
7
  0
TEXT
  8
TEXTO_PG_RETI
  1
 PDC100/8
 50
0
 40
1
 62
7
 10
0.0
 20
0.0
 11
998014.345673188
 21
9974496.94792221
 72
4
  0
LINE
  8
TEXTO_PG_PROJ
 10
998018.930000002
 20
9974461.78995367
 11
998020.696869809
 21
9974461.78995367
 62
6
  0
LINE
  8
TEXTO_PG_PROJ
 10
998020.696869809
 20
9974461.78995367
 11
998020.696861596
 21
9974464.02589074
 62
6
  0
LINE
  8
TEXTO_PG_PROJ
 10
998020.696861596
 20
9974464.02589074
 11
998018.929991789
 21
9974464.02589074
 62
6
  0
LINE
  8
TEXTO_PG_PROJ
 10
998018.929991789
 20
9974464.02589074
 11
998018.930000002
 21
9974461.78995367
 62
6
  0
TEXT
  8
TEXTO_PG_PROJ
  1
 DT 11/300
 50
0
 40
1
 62
6
 10
0.0
 20
0.0
 11
998023.943849946
 21
9974462.90792221
 72
4
  0
LINE
  8
TEXTO_PG_COORD_PROJ
 10
997957.955000002
 20
9974357.38895367
 11
997959.721869809
 21
9974357.38895367
 62
6
  0
LINE
  8
TEXTO_PG_COORD_PROJ
 10
997959.721869809
 20
9974357.38895367
 11
997959.721861596
 21
9974359.62489074
 62
6
  0
LINE
  8
TEXTO_PG_COORD_PROJ
 10
997959.721861596
 20
9974359.62489074
 11
997957.954991789
 21
9974359.62489074
 62
6
  0
LINE
  8
TEXTO_PG_COORD_PROJ
 10
997957.954991789
 20
9974359.62489074
 11
997957.955000002
 21
9974357.38895367
 62
6
  0
TEXT
  8
TEXTO_PG_COORD_PROJ
  1
 997951 / 9974365
 50
0
 40
1
 62
6
 10
0.0
 20
0.0
 11
997966.376588274
 21
9974358.50692221
 72
4
  0
LINE
  8
TEXTO_PG_COORD_PROJ
 10
998013.599000002
 20
9974399.60595367
 11
998015.365869809
 21
9974399.60595367
 62
6
  0
LINE
  8
TEXTO_PG_COORD_PROJ
 10
998015.365869809
 20
9974399.60595367
 11
998015.365861596
 21
9974401.84189074
 62
6
  0
LINE
  8
TEXTO_PG_COORD_PROJ
 10
998015.365861596
 20
9974401.84189074
 11
998013.598991789
 21
9974401.84189074
 62
6
  0
LINE
  8
TEXTO_PG_COORD_PROJ
 10
998013.598991789
 20
9974401.84189074
 11
998013.599000002
 21
9974399.60595367
 62
6
  0
TEXT
  8
TEXTO_PG_COORD_PROJ
  1
 998007 / 9974407
 50
0
 40
1
 62
6
 10
0.0
 20
0.0
 11
998022.020588274
 21
9974400.72392221
 72
4
  0
LINE
  8
TEXTO_PG_COORD_PROJ
 10
997897.908000002
 20
9974300.07295367
 11
997899.674869809
 21
9974300.07295367
 62
6
  0
LINE
  8
TEXTO_PG_COORD_PROJ
 10
997899.674869809
 20
9974300.07295367
 11
997899.674861596
 21
9974302.30889074
 62
6
  0
LINE
  8
TEXTO_PG_COORD_PROJ
 10
997899.674861596
 20
9974302.30889074
 11
997897.907991789
 21
9974302.30889074
 62
6
  0
LINE
  8
TEXTO_PG_COORD_PROJ
 10
997897.907991789
 20
9974302.30889074
 11
997897.908000002
 21
9974300.07295367
 62
6
  0
TEXT
  8
TEXTO_PG_COORD_PROJ
  1
 997889 / 9974316
 50
0
 40
1
 62
6
 10
0.0
 20
0.0
 11
997906.329588274
 21
9974301.19092221
 72
4
  0
LINE
  8
TEXTO_PG_COORD_PROJ
 10
997598.838000002
 20
9974371.71795367
 11
997600.604869809
 21
9974371.71795367
 62
6
  0
LINE
  8
TEXTO_PG_COORD_PROJ
 10
997600.604869809
 20
9974371.71795367
 11
997600.604861596
 21
9974373.95389074
 62
6
  0
LINE
  8
TEXTO_PG_COORD_PROJ
 10
997600.604861596
 20
9974373.95389074
 11
997598.837991789
 21
9974373.95389074
 62
6
  0
LINE
  8
TEXTO_PG_COORD_PROJ
 10
997598.837991789
 20
9974373.95389074
 11
997598.838000002
 21
9974371.71795367
 62
6
  0
TEXT
  8
TEXTO_PG_COORD_PROJ
  1
 997592 / 9974379
 50
0
 40
1
 62
6
 10
0.0
 20
0.0
 11
997607.259588274
 21
9974372.83592221
 72
4
  0
TEXT
  8
TEXTO_PROJ
  1
 DESCRIÇÃO:
 50
0
 40
1
 62
5
 10
936085.704193153
 20
10005392.7491791
  0
TEXT
  8
TEXTO_PROJ
  1
 EXT. DE REDE BT
 50
0
 40
1
 62
5
 10
936085.704000002
 20
10005390.7179537
  0
TEXT
  8
TEXTO_PROJ
  1
 OBRA: CT-UNI-CAR-NS-1019303671-300572068
 50
0
 40
1
 62
5
 10
936111.008690332
 20
10005449.8610051
  0
TEXT
  8
TEXTO_PROJ
  1
 NOTA SGO: 440224517
 50
0
 40
1
 62
5
 10
936110.867000002
 20
10005447.4059537
  0
TEXT
  8
TEXTO_PROJ
  1
 CARNEIROS
 50
0
 40
1
 62
5
 10
936110.867000002
 20
10005444.8089537
  0
TEXT
  8
TEXTO_PROJ
  1
 ZONA RURAL
 50
0
 40
1
 62
5
 10
936111.009000002
 20
10005442.2119537
  0
TEXT
  8
TEXTO_PROJ
  1
 Monofásico
 50
0
 40
1
 62
5
 10
936110.867000002
 20
10005439.7569537
  0
TEXT
  8
TEXTO_PROJ
  1
 PADRÃO INSTALADO
 50
0
 40
1
 62
5
 10
936110.867000002
 20
10005437.3009537
  0
TEXT
  8
TEXTO_PROJ
  1
 COORD.
 50
0
 40
1
 62
5
 10
936122.600694627
 20
10005427.9492897
  0
TEXT
  8
TEXTO_PROJ
  1
 LAT.: -9.450867
 50
0
 40
1
 62
5
 10
936122.601000002
 20
10005425.9179537
  0
TEXT
  8
TEXTO_PROJ
  1
 LONG.: -37.332127
 50
0
 40
1
 62
5
 10
936122.742000002
 20
10005423.6039537
 0
ENDSEC
 0
EOF
